<mxfile host="app.diagrams.net" agent="Mozilla/5.0 (X11; Ubuntu; Linux x86_64; rv:130.0) Gecko/20100101 Firefox/130.0" version="24.7.16">
  <diagram name="Page-1" id="RUXfeHaGRiLlHr6YveLu">
    <mxGraphModel dx="2313" dy="1312" grid="1" gridSize="10" guides="1" tooltips="1" connect="1" arrows="1" fold="1" page="1" pageScale="1" pageWidth="850" pageHeight="1100" math="0" shadow="0">
      <root>
        <mxCell id="0" />
        <mxCell id="1" parent="0" />
        <mxCell id="xMQF3Xm1KzFrfOHQRXqz-3" style="edgeStyle=orthogonalEdgeStyle;rounded=0;orthogonalLoop=1;jettySize=auto;html=1;entryX=0;entryY=0.5;entryDx=0;entryDy=0;" edge="1" parent="1" source="xMQF3Xm1KzFrfOHQRXqz-1" target="xMQF3Xm1KzFrfOHQRXqz-2">
          <mxGeometry relative="1" as="geometry" />
        </mxCell>
        <mxCell id="xMQF3Xm1KzFrfOHQRXqz-1" value="" style="shape=image;verticalLabelPosition=bottom;labelBackgroundColor=default;verticalAlign=top;aspect=fixed;imageAspect=0;image=data:image/jpeg,/9j/4AAQSkZJRgABAQAAAQABAAD/2wBDAAEBAQEBAQEBAQEBAQEBAQIBAQEBAQIBAQECAgICAgICAgIDAwQDAwMDAwICAwQDAwQEBAQEAgMFBQQEBQQEBAT/2wBDAQEBAQEBAQIBAQIEAwIDBAQEBAQEBAQEBAQEBAQEBAQEBAQEBAQEBAQEBAQEBAQEBAQEBAQEBAQEBAQEBAQEBAT/wAARCAIAAgADAREAAhEBAxEB/8QAHwAAAQUBAQEBAQEAAAAAAAAAAAECAwQFBgcICQoL/8QAtRAAAgEDAwIEAwUFBAQAAAF9AQIDAAQRBRIhMUEGE1FhByJxFDKBkaEII0KxwRVS0fAkM2JyggkKFhcYGRolJicoKSo0NTY3ODk6Q0RFRkdISUpTVFVWV1hZWmNkZWZnaGlqc3R1dnd4eXqDhIWGh4iJipKTlJWWl5iZmqKjpKWmp6ipqrKztLW2t7i5usLDxMXGx8jJytLT1NXW19jZ2uHi4+Tl5ufo6erx8vP09fb3+Pn6/8QAHwEAAwEBAQEBAQEBAQAAAAAAAAECAwQFBgcICQoL/8QAtREAAgECBAQDBAcFBAQAAQJ3AAECAxEEBSExBhJBUQdhcRMiMoEIFEKRobHBCSMzUvAVYnLRChYkNOEl8RcYGRomJygpKjU2Nzg5OkNERUZHSElKU1RVVldYWVpjZGVmZ2hpanN0dXZ3eHl6goOEhYaHiImKkpOUlZaXmJmaoqOkpaanqKmqsrO0tba3uLm6wsPExcbHyMnK0tPU1dbX2Nna4uPk5ebn6Onq8vP09fb3+Pn6/9oADAMBAAIRAxEAPwDxf9wf3Fubb/p8rnOgsQ/6r/X9qANCH/rv79KANiEQcfv/AMaANCH/AK7+/SgDQh/67+/SgCxDD/039c0AaEI/5d/O9qALEMP/AE39c0AaEP8A139+lAGxDD/039c0AaEP/Xf36UAbEP8A139+lAGhDD/03uf6UAbEMP8A039c0AaEMP8A039c0AaEMJ/1/wDpPpQBoQw/vfP88c/lQBsWcPSAj60AaEMH/LA/yoAseTN/o/7j/PegCwfPEVx+46frQBoQwz/6PXOBYh8/yv8AUDFqPzoAsQw/9N/f/jzroAPJ/wCW/n/jQBX82b1/Wug5zPhh/wCm9z/SgDHvLODzec2317UAfyP/APBSbwrBF+0j8cL46T/Yn9l6xa/6J9j/ALN0y/8At9l/x+0AfmfZw3E0v+AoA6DUtNnhl/cQfSgDR8N2Zhl8++P+jm8pU1yu7HVfMrI+5vhv4k8OabFcQC+/0m1/02z+1+Gv7S0y/r06WLjStPtqeXWw0qicT9yf2V7P4ZfFTxb4f8AaHrttqXjD7H/pn2TR/wDj/uv+fKxr9Z4a8SaLwnI5baH5Fm3B9V49Stuyx/wWY+DOq/su6h+z/wCMfDkH2bT9e8N3Xhi8tP8AkJf6VYXv2/8A07/wef8AkhXoYfjzD1as433TPrKfCFX6pGVtjsP2A/hv4H0f4Vaxqvg7xV4k1u3ufGGqWWfFn2L+0/8Aj9/4/b7/AK//APj9r8hzTGxxFSUl3f5n1FHDyppJn6EQwzwxdea8ijNQbuepTbjow8j3/WuJ7s6A8j3/AFpAHk/9PH6UAV5oYP8Anvc0AV5oYP8AnvQdBQ8i3/5+D/4C0AJNDiW3/f8Av/x50AZ80P7rift/z50AV/J9/wDyUoAz5rOf2+tAGfNDP17UAZ83n80AZ/k/vv8AX/p70AUJvP8AK8j/AEnvigDGm/67+/SgDPmh/wCm/wBKAOfnm/6b/Q4/KgDHm/67+/SgDPm/67+/SgDHm/67+/SgCvMP+XfzvagDPm9fPuen4UAZ803/AE3ucfrQBn/8tv8AX+9AFeab/JoAz8/9N/0oA2PJ/e/5zQBYhh8n/Xz/ANKAND97/nNAGxD2/wCPnv8ASgDQ/wDSqgCxB3/z6UAaEM3m0AWKANCDv/n0oAsQ+fxQBsQ+fxQBsQd/8+lAGhD/AM8MUAaEUPXz/rjFAHQQZ8r9/nGe9AGhB3/z6UAaEHf/AD6UAbEHf/PpQBsQwnPf7RQBoUAHke/60AWP9d+/9aANCaEeV5H5VzgEP7n7P+/I9KANCGH/AI9/tE9tx3NdAB5P7r/OKAM//ln+/wAdePWug5whhn69qAK81nPN3IoA/Pf9sz9hXSv2iotP8cQX1tpviDwbZ3X2y0/6G61/58qAP5j/AAf4D0Oz17WINWn/AOJfdc2d3/z4XVAGP4w02x0e68j+1ba2uLX3/wCP+gDQ8E+D7Hxtf29jY3+m239qdftfFOquVXQqd5O0j1D/AIRzVfh7/wAJBP8A6ObjwveWv2z/AEP/AImf/X7Y/a/+Pv8A7cK8ytXkk0elSw8Wkz+mn/g258H/AAj8beI/2iPjhqv2m58UeA7PS/BfgO01ayzpn/E9/wBP/wBB/wCnv/Qf/KhU5NgalHCyfMeZmdKDxceWJ+2//BQn9g/w5+2Z8G9P8HeOZ/s2saX4k/trw3q1pZ/8gG6+xfYP8/8AYPrgp46vQxLV3Y+tVOmsEotHxv8AA3/gnVP+yL8PrjwrfeMf+E2GqXlre3mrf2P/AGaRdfYvsH/tjXXgcXUrSfMfOVaEVsaGsaPBZy+RBB+Jr0q03FaHnVLxdonLzWfk+/51J0mPND/k0AH73/OaAM/yJ+PPoAPI9/1oOgr+T/08fpQBXmhnh5876UAZ8/b/AD60AV/38Mv+v6/rQBXn7f59aAMebz5oqAMeft/n1oAz5+3+fWgDPn7f59aAM+ft/n1oAx5vP8r/ADj2oAx5jx5Hn/6QBQBjzefzQBjzef3n+zfSgDPm7+f9qx39aAK83f8A4+e30oAx5+3+fWgDP/64T3OT3zQBXn7f59aAM+bz+aAK9AHQeR7/AK1znQWIYf3X4UAaHlQ+n6V0AaEPn/8APD8fsdAGh5Hv+tc5zmhB3/z6UAWIYfNroOgsQd/8+lAGhDDXOc5oQ9R5/wBlx3oA2If+uHt1oA0IYf8At59e+aANCGGugDYhh/8Arf6HQBsWcPagDQhz/wBvNAGhDCfN8j86AOgs4YO/+jUAbEInP9f9D/4/65wLEEHQwfyoAsQw0AaH2PyeOv6UAWPJ/wCPf9x6Z/rXOdBYhs/+Pf8ApQBsWdn/AMe/5kYropdDnCaz/de1d0PhQHPzQ/uvwqjnLEMPlUAaEMNAFe8hg8ryJ+l1QB/Jf8fvgzY/CX40/FjwdBY6lpuj6X48ur3w3aXg/wCXW/8A9Psf/S6uc6D5f+IWg6Hr1hcQT2X2m4/WgD5nEM+gy2/2E3NtPan/AEO7tOK2n8LKh8R/QRpvwx+B+vfsM/B/4j/HcXWpeIPHmsWv/H3eXv8Aad/9g/0D/Qa4K1kmz0qfU/ZD/glf42+CF58bfC/hz4H+HLbwl8N9L8H3V6LTw9o/9m/b9U+xfYPtt9/0915vtpdDvwtBXvJH9MGo6l9stbix+z9O9Cpc0kVjKiimlsfK/wAZteg+wXEE/b/jzr6GMYpKyPlJNtu5+eGvf8fVx9DVWT3JOOvO/wCFAGP5P73/ADmgCvND/wAe0Gfw/WucDPmh8qgCvQdBXoAr+T+9/wA5roAz5of3X4UAV/J/e/5zXOBX8n2/5c/7tAGPNB3nt/fNc50GPND/APX/ANDoAx5vI5oOcrzQ/wDXtQBjzQ/5NB0GfP2/z60Ac/NCYf3H+jDP4V0HOY83H/TtjpQBnTdT5H2XHaucDIm/1v8AX7HQBnz9v8+tAGfP2/z60AY8/b/PrQdBX8j3/WgCvN3/AOPbt9aAM/p/07frQB1Hke/60AaEMP7r8KANCDv/AJ9K6ANCDv8A59KALEHf/PpXOc5oQd/8+lAFiGGug6DQhh//AF3n5UAaEMH/ACwP8q5znNGH/Uj6GgDXhhoA0IYaANCGHza6ANiH/ph+GP0oA0IYaANiH9170AbEMNAGxDDP17UAaEMP/XzXOBoQw0AaEMP7r8KALHke/wCtAFjyf+Pc/wDT50uv1rnOg2LOyPm2/T+VAGxDDXRS6HOV5+3+fWu6HwoDn/J/49/+vzv+lUc5sQwwde9ABD+5izznpQBn3kPnfZ/Pg+lAH8z/APwUO1LwdqX7S3jDVfB2q21z9r0e1stYtLW8x9g1Sx/0C+rnOg/M/XryCzNx5E/4DvQBx/gn/iZazbwarY6bqVvdXn/L5W0/hKh8SP7GP2J/j9+xb8K/2S/+EP8Ajh8OdE1vWPAej/21o9pq1nZ+JMap/wA+Vj/z6VwV2rSPTpbnh/8AwS18YeKviF/wUE1D4jfYf7N8L3Wj69rV7aaTo/8AZvhmw0v/AJcLKxsbT/j0r5yhNudmfQUoqMLn9bHjC8sfDfgi31XVZ/s3iDVB9t9hX0OHgmk2fPZlUcWfnv8AELxV/aUP7gm2/wC3yvTPDuj5f1ObzvwNAXRjzQ/vfxoAzpv9cfqKAIJof3X4VzgZ80P/AB7/AMs0AV5oYP8Aj37UHQVznzbjz8fh60AV5v8AW2/+e9dAGfQATQ/vfxrnAr+T/wAfH6UAZE0OIrmDr/y+1znQctKf+PmC4H4AUAZ8/b/PrQc5n+T+6/zigDPoOgz5oYJj+/8As386AOfmhMP7j1/Cug5zHm7/APHt2+tAGPP/AKryMk8/lXOBnzQ+bQBnz9v8+tAGPND/AJNAGfNDB/pFB0Gf/wAtf8+tAGfND+6/6eKAK4/5Yfj/AEoA7D/phP8ATk10HOTwf6rn/j4z/wDroAs0AaEMNAGhDDXOBoQw0AWIYf8AlhB9OKDoNiGGgDQhhoA0IYaANiGGg5zQhhoA0IYa6ANiGGgDQhg/5YH+VAGxDB/ywP8AKgDYhh/7efXvmgDYs4e1AHQQ2dc4FjyPf9aALHk+R/qK5zoLH2P91/qOf0oAPJ/49/1oA6G0/wBbbfU/yoA2If8AWwfX+lZ0+oGfN/qT9BXpQ+FAY2fOi/cfXpXUc5oeT+6/zigDn/G3jbwd8PdGuNc8Y+I9N8NaPa2f/H3q14cVzmPJI/Df9sb/AIKlQQWtv4c/Z6n/ALStrr/kMatd2f8AZupi1/6caA5JH4L+KviRP4q1nV9V8/7LqF1e/wBtXln9toNjz/X5tVmit76C++029z/ptAHUfD3Tb7Wbrz5746Jp9r/pt5q3X7BUy+FlQ+JH6QfDHw3rl5oOoQeFZ9b8W/2p/wAwn/kG/b682rdqx6VPqfrx8GdH+Kn7Ovxk0fxH8JJ9S03wP8OfDel/8LUtLuz/AORu/wCf7/Qf+37/AMkK4IwfNdHoTqJRP6KPBPxy8cftOeCLex8V+FfDfwl0f7Ha614b8WXfjH/hJP7e/wC3H7H/AKJXpUoNHmVpqV7nzP428N654bv7ixvb7Tdbze/8fdpXsLZHz7pavQ83ms55u5FMPZvsE1nQbmfDDQBnzQ/5NAFfyf3X+cUAZ/ke/wCtB0FfyPf9aAK5/wBdb0AV5v8AnhigCv5P73/Oa5wK/wDy1n/68f8ACgDH8j3/AFoAx7zyM/8ALt1oA5+aH/JoAz/I9/1oAz5of8mucDPmh/yaAMeeDqZ/5UAc/ND/ANN/pQBjzwdTP/KgDPmh/wAmgDPmh/yaAM+aD/lgP5UAZ/ke/wCtB0GfND5tAGfN+6965wM/yf8Aj3/WgDsPJ/df5xXoHOWIYaANCH/nhigDQg7/AOfSgDQg7/59K5wLHke/60AaEHf/AD6UHQbEMNAGhDD7/ZrjvQBoQw0AbEMP/Tf1zQc5oQwf8sD/ACoA0IYa6ANiGHP7+f8A0n0+ycGgDQhs6AOghhoA2IYf+3b17YoA6Czh7UAaEMNc4GhDD/28+vfNAFjyofT9K5zoLHk/9MP8/nQATQ/vfxoAsQ4hurfPrQBoQzVnBPUCvN+5iuB2+lelD4UB5f4w+J/gD4YaDceI/FXiO2ttHtf+Pvium6exzn5ffHP/AIKfT/ZbjSvg7pVtolv9j/5GzVv+Qn/4A0wPyQ+IX7Qvir4hapf6r4x8R6l4k1Dtd3d5XOb+zXY+H/Ek080txfWPA+2UB7Ndjh/sf73z7H7Nc3H/AC+UGBn/AGO+s7/z4PtVtb9rSgD6I+HviTxJZ239lT6Hbalp+qXn228tLvR//b6pl8LKj8SP34/Yc+GPiOzsP+FjWPhzw3baPa2f2IWmrXn9m/2hdf8Ab3XnVE9ND0abWup++Hwf8B6HoOl3HirXPDnhLQ/FHjyztf8AhMPD1pef8JL/AKLY/wDHh9uvqdOnYVSpfY+oLPXtK0aw+w6HBbabb/bP+PQ2n/HhXfTp3Whw1KjvZmPrE2laxKBqtvplz/2511mfsr62PP8AUvh74VvJbi4sb650360B7K3Q8w1jwHqum/v7GxtrnTvXSec0HOefTWfkyn9wKAMeaH/JoArzQf8ALAfyoAx5v+Xn8KDoK9AB5P723yeaAM+aH97+NABNDiW46+3eucDPn7f59aAMeaH/ACaAM+aH/JoA5+aH/JoAx5u//Ht2+tAGfNDPj/Uc/pXOBjz9v8+tAGPN3/49u31oAx7zv+FAGP5PTyKAM+aH/JoArz9v8+tAGPNCc9/tFAGfP2/z60HQZ80P/Hv/ACzQBnzQwde9c4GP5P8Ax7/rQB2Hke/616BzliDv/n0oA0IYaANCGGgDQhh/e/jQBoQw0AaEMNAGxB3/AM+lAGhQBoQQdDB/KgDYhh/e/jQBsQw0AaEMNAGxDD/x8fyzQBsQwjHb7PQBoQwnPf7RQB0EMNAGxDDQBsRQ9fP+uMVzgaHke/60AWPJ/df5xXOBX8n91/nFAC3n+pg+lACQ/vvs/wD+v8qAMf4hfEPwd8K9B/4STxhrttomn/bPsVn9r6391XQVD4kfkN+0h/wUanh/tDSvhXBc/Z7W8+xXmrUHox2Z+W/jz4/+OPiRdf8AFR31z9n/AOP37If+QZRSb0PHlCV2fOHjDWL7zf3GevU9q7ofChcsjy+aaebqcfpVG12Y81nP0gzxQO7M/wDsGGaX9/B9moOY7Dwr8H5/FUVx9h1zRen/ADFtY/s2gD64+Ff7LvjjXr+CD/hKtb1y3tetn4T/APk67/0KgD90P2dfgnBoMWn2OuQeG/s9r/y6/Y/+E21P/wAm6Vl2Hd9z9aPB95BZ2tvB5/2n7L+FYG56RDrHny54+z0AE+sQfj6V0AY82sfvv9fx1/0SgCxZ69B5v7if7NjigDQm0fQ/Eg8i+/4luodPtdp/y/0Aef8AjDwTqvhuW3nvoLa50+6/48rugDyeaH/JoArzQ/8AHx5A+vNBzmP5Plfj70AWPJ/49/1oArn/AJb/AIf1oAgmhP2rvmg6DGoAz5v+eGK5wMeaH/JoAz5of8mgDHmh/wAmgDHmh/dcfZvegDHmh/yaAMa8hz/174+lAGRND/k0AY80Jz3+0VzgZ80P+TQBn0AY80P+TQBnzQnn9/8A6TQdBnzQ/vfxoAz5of3X4UAZ9AHUf+A9dBzlmH/Uj6GgC/D9o58/7N7+tAGxDDB0/wCfX8KANCGGgCxBD/x7wfmaANDyPf8AWgDYhhoA2IoYOkH096ANCzh7UAbEMNAGxDDQBsQw0AbEMNAGhDD/AMe/+frQBsQ2dAHQQw0AbEMPlUAbFnZ/5/8Ar1zgaEMNAB5Hv+tc4B5Hv+tAGfNDmK46e3agCxptn9si+z/8vGaAP5p/+Ck3x+n+J3xz0fQ/Dc5Hh/4X2d1ouj/ZLz/iWX//AD/3tdBUPiR+b+m69qusf2fY3H/Mes/7as/tn/L/AEHowas9TuIYZrOXixz9ls6KWlrnI6aucveTTTfaIJ9K+0/XvXdD4UL2a7HPweG/7SIuINKubaqMCxZ+A76b7T5EH2nn6UAeseCfgbNrEtv589Bzn2h4J/Zv8LaR/r9DudSuPT7Z0oA+0PBPgOx02K3/ANOuc2vP9k6T/wAS3TLCgD6o8Kza5o8dvONVtrW3x/x6UAfQHhv4harDF5EH+kiuc6D1Cy8b655X+kQUAbB8V3v+onsa6AOW1jxhfQ3Q8iC5oA8o1j4qar5tz5+LbvQB7B8JfjPBr3i3w/4OvoLm5uLr/Tjx1oA+1/i1o/8AaXhLyIIPtI0v/Tv9E60m0tws3sfGGpfubryIKLp7BZrcz5of+Pj/AD9KZzleaHyqAK/ke/60AH/LL/PpQBXmhHm3HT/jz57UHQY80J83yPyoAz7z9z75/wCfv3rnAx5+3+fWgDHmh82gDP8AJ/e/5zQBjzQ+dF+4+0n+VAGPPF/y3z9TQBz80P8Ak0AZE0P/AC35+z570AY00P8Az3/1Fc4GfPB1M/8AKgCvND/k0AY83/PDFAGf5Hv+tB0GP5PTyKAK8/b/AD60AY80P/Hv/LNAHUeT/wAfH6V0HOaEMPlf8t80AaEP/PCf8yaANCGGgDQoA0IO/wDn0oAsQ/8ATD8MfpQBsQd/8+lAGxDDQBsQ/wCp79P+XvpQBsQ/9cPbrQBsQw0AbEHf/PpQBoQd/wDPpQBsQw/uvwoA2IYaANiGH/r2/wDAPmgDoLOH/ph/nvQBsQd/8+lc4Gjx623/AIBmgCtxDN7D8KALFAFeft/n1rnOg+f/ANoX4hf8Kr+DnxB8cGf7NrFrZ/2Lo/r9qvv9A/8Au3/uH0Afx7/FS8nh8Z/2rwbe1vPtv/H3z/x+16BzlfQZoIde8DQefc/Z7X7Votnxn/RftuoUDuz6I+x2M1/9hsftNzcGz+2/a6AuzsNNs/Cs37i+n+zXFqP9Mu+tAXZ6BpvgnSporifQ7i2uf+fwVtzxMOWR1Gg/Df8Ae3HkQD/SvfFHPEOSR7R4V8H+TN+4sPsxo54hySPoDR7Oeytf38H2a4u/xo54hySOw8N2f+l/Z4Z/9HtR/pn2v/iZVibHpH9sarpsvkXH/HvdXn+h4oA9g8HzT/6P/KtueIHtGjzGb7PRzxA7iCX/AJYY+gNYgcP4w1L/AIRvTNY1WeD+0vstn9t9aAPn/wCKkMGvfCXw/wDGKD/iW6fa6x9t8SWn/Pha0AeMfAHxVfa94c+OHxVsZv7NuPBvgPXtas/9M/48Pt1l9g0KgD9p/gz4kg/4Qj4X+Dr7/Sf+KDtdFs9Wu7zP2+60KysLCuTF1DowaT3/AK3PJ/iRoH9g+I9QgMH+ji8+2/8AbrRhKnzDGJHn/X/t5r0zzwmh/wAmgDP8n97/AJzQBH/8mUAU/wDlrcQDk/Y65wM+ft/n1oA5+aD/AJYD+VB0GfQBnzQ/uvwoAx5+3+fWgDPn7f59aAMe8/7dv69qAOfm6nz/ALLnvQBjzQ+VQBjzf88MVzgZ/v8A8fP/AG5UAZ832eb/AKdgO9AGPNnt9m+00AZ88P8A0w+gz+VAGfP2/wA+tAGfP2/z60HQY/k/8e/60Adh5P724wea6DnLEMP7rj/j370AaEEHQwfyoA0IYaANCDv/AJ9KANDyPf8AWgCxD5EOfp6ZxQB0FnD0gI+tAGhDD/x7i3/OgDYhhoA6CzhPm9/5UAbEMNAGxDDQBsQw/vfxoA0IYaANiGGgDYs/33Tt/WgDoIYYP9HoA2IYa5wLHke/60AHke/60AHke/60ALND+6/cVznQfid/wVo+LV9oMXw3+FelT21t/amj3XjTxJaYx9v/AOXCw/8Ab6gD+e/x5N5N15//AB8/arP7beV6BzmP4b1j7Zf+B4P+fXWLqy+1/wDb7QB9QaxCPEmqW+qz339m/atHtTeXdpQBsTQz6xqmj6VYwal/Z/2P7F/a13Z/8f8AQB9EfDfwdfaDa+R/atz9o6Wd3/z/ANc7qtdTf2a7H1x8PdBvpov3/T7H+VHtfMfsl2PWLPQf7Oi+3z/8e9HtfMPZeRsXkMENhbzzzj/Sv+POhVW9mHsrdD0D4Y6FfandXE8/2a1t9L/4/P8AqIV0HOeX+NviFfXnxG/sqxt7n+z9L5/0ugD6I8E69f8Am/6d6fiK5/a26gfRHhu8n5gH4Ue1v1A7j7Fqs32aexg/0ftXQBy/xT8N65qWjXE+lQf6RdWfNpQB4v4D/sP4qfs3fHH4VeI/9G/svwfqn2y0/wCYnQB8oab9h+Hv7I3xZ1zwrYXOm2/jL4weF/h9o/h67vP7S1O/tdC8MX9//wCln2Gh6K4H6r+CfHnnePPgf4Ug+zW39g/DfS7280m0/wCXD7dZfb7/AP8AJyvFxlR2OjBprf8Arc9w+JFn/b0X9qz/APHxpYtbK8owdRuwYxM8P8mf/p5uf1FfQrVXPPCaH/JpgY03+uP1FAEHk+/v9rxQBnzefNLce/8AnpXOBXoAxrzH+v8A+Xig6DIm/fY86gDPm/6b/wCi5/GgDPn7f59aAMeaEY7fZ6AMeaH/AJ4Y+0YoA5+8h7UAY83/ADw/49s0AY8/b/PrXOBnz9v8+tAGPN/03/HP60AZ8/b/AD60AY37j/UcdOlAEE8HUz/yoAz5v9V/r+3eg6DPH/LD8f6UAdRND/x8f5+ldBzmhDn/ALeaALEMNAGhDDQBoQd/8+lAGhDDQBoww/uv39AGvDD+9/GgDYhhoA2IYaAOgs4e1AGxDD+6/CgDYhhoA2IYaANCGH/pv65oA2IbP917UAdBDDQBsQw0AbEMNAFiGGgA8n97/nNc4B5Hv+tAB9j7/wDHz7etB0H8o/8AwU48ef8ACYftc+OJ/wDSf7H8LfZfh9o//bh/x/8A/k59uoA/NfxVDfGK3nuP+YXZ3Wi10HOcv4D8iz8R+F4J/wDl18SXX2znp/yD6APqC8+JGlava+H9K/0XTbb+2bXRdY1a0s/+PC6oA9403xr4c/0ew/0q5t7X/QvtdpQB9EfD3x7od5dW9j5HH/T3xUzS5WF2fZHw9mg02K4n8+2uvtVebU6Duz2DXv31hb+RBbXNxdf6b9ktBRT6m55eZp9S1mCCCxubn/TPsX2P/oH16UEuUD6Q8VXkHw9+F9xAR9m+y6P9t1i7qgPy3+Hmo6r4w1C51y+vvs3+md+/2GgD7w8EaxfalYafBBfW2pXFr/x+3XpXOB9QeFNYmntP38/+kf8AL5jtQB6xo+sarDLbwQQf6P7jiug5zsLPWJ/stxBqsH+j2v8AoWKAPj/4neFvFfwl8W/8L38AfadS0+1vPtviTw9acC/ta5yuSR+Y/irxhP4q1T4X+APB2q3OpW+vfFXXvGln/pll/Zl/a317p9hY/wCg0BySP04/Zo8VT+PP2oPHHiPSvtP/AAi/g3R/+EX0f3+wfYLD/wBLLGvLxJ3WS2P1Q03/AImVr4osZ/8ASvtX+m8D/jwowwpbM8H/AOWVwMfae2a9w8mW7K80H7rz++aBGP5Pm/h710HQZ/k/8sPw2/8A1qAM+ft/n1rnOcz5v30Xe2oAz/I9/wBaDoM+aHzos+ec0AY83732oAz/ACf+3n/p7xQBjzQib9x6fjQBjz9v8+tAHPzCDn9/+NAGRND/AM9/9fQBjTefDj6+mcUAY83/AEw/DP6UAZ80Pm1zgUJv9SfoKAM+aHP7j/lvQBnTQz+b9fxoAz5v9V/y89O9B0Gf5P8Ax7/rQB1A/wBdcV0HOaMP+pH0NAF+Dv8A59KANCDv/n0oA0IO/wDn0oA0IYaANCGH/t29e2KANiH/AJ4CD7N9TQBsQd/8+lAGxB3/AM+lAGxD/wBN/wAcfrQB0EPH/TtjrQBsQ+f2/wDAugDYg7/59KANmCGf/lv160Aa8P732oA14f8AXD6mgDZhhoA0IYf3X4UAaHke/wCtAFiucCv/AKr/ADnNAGP4k1ix8K+F/EHirVc/2f4X8NXWtXn/AF62NlQdB/Ff8YLyfxhfjxHfT3VzqGu6xdXusXfXF1fXv2+gD53168/4k2oQTnNx/Y9dBznk8Opz6brOnzz/AOk3H2y6/wDJ6yoA+iNH1mx8KxQaVYwfaftX/H5z/wAf91QB6BDqV8f38993/wCXSgD2/wCDOvTw+N/389z9n+x1M/hYH6Y+CdYhmutP8/8A497W07V5009APpDQoYNYl8+xAtrj/jy+10qfU6DuPCvhuDR7q4+wz21zqH2z7beXd31r0ofCgPnf9tP4kWGj+Ev7D+3WwuNU/wBN/wBE/wDb6qC6Ph/wfeX+m+A/7Vgn022uLrxJ/pl3d0BdH1x8GPHkF7a6d9hgtv7Qtf8Aj8Nc9mB9YeG/EnnXVvP55+z3XF5Z9cUAfRHg/wAST6Bf/v7cXOn3XX0roOc+kdSstC16w8iC+/s22urP7b9r+x0DWrsfB37Tniqfwr8PTof/AAkltbW/ii8uta+1/wDMMsNL/wCf2+/6dK5z0lBW3P5/9H8VQaPrMHxG0OD+zvsusapovwrtP+Yn/wAuFhY/+Tl9fXv/AHD72gfIu5+6H/BPfR59H+H3iDxHffafs91efbbzV/8Ap1sLL7fXl4kzP1I+A95Pr+qeIJ7+f/lztbLijDClszj9Ys/7Nv8AWLH/AJ9bvnPFe4eTLdnMTf6k/QUCK0/b/PrXQdBn0AZ/ke/61znOY83kc0AV5v8Anhig6DPmh/yaAM+aHyqAMeaEY7fZ6AMe8hHldv5UAc/ND58Q/ImgDHvfI/H2oAx54v8Alvn6mgDHm/64XP2j9aAMeaH/AI+P8/SgDPmh/wAmucDHm/6Yfhn9KAM+byPK/wA496AM+bkfv4P9I/IUAY83/Tf8c/rQdBnzf8u9AHYeT/x8fpXQc5oQw0AaEHf/AD6UAaEMNAGhDDQBoQd/8+lAGhDDQBsQw0AdBB3/AM+lAGhZw9qAOgs4e1BzmxDD/wBvPr3zQBsQw0HQbEHf/PpQBsQw0AbEMPnRAUAdBDDQBsQw0AaEMNAGh5Hv+tABND5Vc4FegD5H/b2+IVv8N/2X/iRPbz/ZtQ8UaP8A8IXZg3n/AD//AOgX3/knQdB/J/4qm8nRv39jbfZ/+P33oA+d9SgsYc+RB/o/610BV0vY8X8SefD+/gx/xK7u1vbP/Q6Dhn8TPYPBM39pX+odLm3tby6vbM0Gx6h53k/8t+tAHqHw91Kez1T+1TP9m+y2eaAPvj4Y+PILy60/z57bN3Z1MkrMD9UPgnoI1Kw0+eCDFv8A8ftedHdnQdx8YNe0rR9BuNV/49ri6/0Kz4r0YfCge2h+J/xy1j+2Ne1iD/j5/wBM545FdRxOMr6C/EKCDQfhVo+lfZ/+Qp9lvf8AqJ0ByzOu/ZR0fxHrHje3/sm3ttS0+1vP9Ms7v/l/qZpcrNT9KfipNpXgPxQND1X+zba4/wCfTw8P+JYK4avUD3j4D3mh6xf6fY/8fOnXV50roOg+0NH0eDTfFHjCx/srTf7P0sXX9jj+2P8AiWX/APoX/L9QB/PP/wAFJvipPNrPhf4LeHLHTvDdv8ULy18T6xq32z/kA6XY/wDHjZfbv+fT/l9/8AqAuz8z9B12x8e+N/D+leHILn/hF/C9n/Yvg/8A0P8A4/8A/p9/9Lr3/uIUDuz+kj4M6nY6D8G7fwrof2a5t9fvPsV5d2n/ADD7Wx+wV5mMpaHXz+R94fDe8n0Hwvp/2GD/AEnVNZ+23l2f+fWxowdPQTqaPQ6DxtNPqV1b39vB9m+1Wf8Aptp0/wBKr0zzXuzzeb/rh7daBFeX/l4/9tKDnM+b/rh7daAMebz/ACv849qDoM+aHyJR+RNAFeaH/JoAr+R7/rQBjzQnPf7RQBnzeRzQBz80NvgeRP7e1AGPND/17faaAOfvIYITwLb7Rj1oAx5s/wDbvdUAY80P7r8KAMeb/Vf6jt3oAx5v+eGK5wM+ft/n1oAx73z/AMPagCvND5VAGOP9VcQf8u9B0Gf5PTyKAO4mh/4+P8/Sug5yxB3/AM+lAGhDDQBoQw0AaEHf/PpQBsQw0AaEOP8At3/6dKANiGGgDYhhoA2IYaAOghh/+v8AZBQc5oQw0AdBDDQdBsQw0AbEMNAGxB+5i86gDYhh/e/jQBsQd/8APpQBoQd/8+lAGhQAfv8A/lh/x71zgV/J/e/5zQB+D/8AwVR8eX3ir4oeFvhzpU9tc+H/AIc+G/tusfa7z/mKX3+n/wDpH9h/8GFB0H4/69NpU0XkefbYuv8ApyzmgD5v8VaabP8A1H/Hv+Wa6Aq9T5v8STTw2uoTj/j474oOGfxM6D9nvUp7ywuPPnubnPAoNj6Qmn7T3HtigAstSvrO/t54P9J/6dPWgD2DwH4w8RzfFDwPBBB9m+1Xlrov2QUpbMD+qD4P6DcaD4Xt576f7NcfY+fsnFebHdnQfG/7RXxCvptV0/Q4J/8AiT6X9qvfslejD4UB+c9nps/iTxbcT3x+zW91ef6Zd3f/ADD66boPZeRw/wC0JrGlfarfSrGfjS7z/l8607oPZW6H6Mf8Ex/Dc+vfEvR57GD7T9ls/tt531Opn8LOfbc+kP29vDf9j/F/yNK+021xdf8AH5aXdn/y9Vw1db2A9g/Yh0H7ZqlvB51tc/2Xef6Z9qs/7SroOg/Ri8m8OReLfihrmqwXNtb+Dby60Wz+18+Gde/0L7f/AOllAXR/EP8A8FGviF4i8VftS+IPCtjPbC3uvAeg3t5d3f8AxLft/wDbv/E+v/8A0uoA5/4J6x/ZuvW9jqvhy2udP+x/YrweHv8AkJ2Fr/04/a/+PugD+iD4D+A/H82g6fqvhXxHc+JPB1r9lvbzSf8AhA7zTdT+y/8Ab3/7YVGLhHdGPPI/Tj4e2dvrFrpF8bH7T9q/4+7u7/5Cdh/05fYaMJBJXDnkegeMIdDs9Lt9Kn+zXGsXX+m/ZP8A5Oq3voSePzf639xP/pFAGNN/rj9RQc5BNZ0AZ8/kQxXHNt78c0HQY83cT3H60AV5of8AJoAr/wCt/wA4xQBnz9v8+tAGPND5H2j3oAxryEnPkT/ZqAOZm8//AFHkf6PQBjT9v8+tAGPLD/zw+uMUAY803nf6/wDL7HigDHm+zw/8t/8ASPQXlAGPPB1M/wDKucDHm8/mgDPm/wCeGKAM+Yzj9/PQBnzQwde9B0GfPnzf3+MY7UAdhXQeeaEMPkxeQe3NAGhDDQdBoQd/8+lAGxB3/wA+lAFiDv8A59KAOhsseVx/x754oA14YaANiGGg5zYg7/59KANizhPm9/5UAdBDDQBsRQ9fP+uMUHQaEMNAGxB3/wA+lc4HQQd/8+lAF+H/AFw+poA2YYf3tuP+fqgDQhg/5YH+VAFiH977UAWO/wD08f8APp3roA0IO/8An0oA/Ob9qL/gm94O+NsuseMfBviM+G/HF39q1q8tPFl5eeJPDOvXV/8A+Ttp/wCTn/XjQB/Ixo/xZ+HPiT/X32peG7j/AJ9dWs/+JZQBX1jUoLy1uILHVdN1K3P/AD6XmaDoq9T5n8bf8gm//wA+lBwz+JnP/AG8NlFcf9fn1AoNj7Qh/e+1ABND5UtuOP8ACgD7A/Y/+G//AAnnxk8L308AudP0G8+2Xlpd0Af0L/ELxt/wrfwRc2M9xbW1x9j/AOXSuc6D8mNY8YXHjHxlb2N9fXP2e6vPsVnd0Aen6d8MdKs7rxBqtxPbXP8Ay5Wd3RdgfmR8TtSvvEnjfULCD7N9n/tj8/8APFO7A/fj/glf8K59B1TT/Ec32r/iaWfpzW5z4vTY9Y/4KKaDfWfxK0fVbG3/ANH+x97OlLZhg9d/63Oo/wCCct5qs3jzxBpVv/yD/sf228u8YrGnudFXqfpB428H2OvWvijS9V/4SPTbe71i6/tj+ybzm/ta7YfCjhm3zM/h3/4KraP4O8N/t9ahBpcGpeG/C+vfDbQb2ztP+Ql9g+wf6B/oP/gDY0T+Fji3zFb4P69pOgXWn/Yb/wASeJPD91/x+3fh7wHrOpf6VXDV0vY7Ke33n7dfs0+MPA+papo+leDp7bRNY0uz/wChP1n/AITk3X/pbQYvdn7T+FfDfjib4fax4jng8SaZbn7LjxDq3/FN/wCi/wDL/wD6D/x+/wDHn/oX27/p/ou1sIx7yfzv+nm3+uK6AOfvP+eHP2f/AJ++lAGfN++l88f8vX/PpQBj3n77rPjvQBj46+ePb/jzoAgm/wBSfoKAM2b/AFx+ooAoUAV5+3+fWgDHm/64e3WgDHm8+bH19cZoA5+b977UAc/ed/woA5+bp/y822PwoAx5v3vtQBjzdv8Aj66f8ufTrQBjzZ/7eaAMiWGfpP8AT2oAzp+3+fWucCvND/03+lAGRN/qT9BQdBnfvf8AOaAPQJv+Xn8K6DzyzZ/6rz+tAF+Dv/n0oOg0IO/+fSgDQg7/AOfSgDQh8jigDoIO/wDn0oA2IO/+fSgDQh/c84/0f3oOc6iH/nvmgDYhh86I/uPwoA34f9cPqaANGHyOKDoNiGGgDYtP+nn9a5wNiGHzogKANiGGgDYhhoA0IYYIYj/nNAFjyYJpR555/nQBoQ5/7ea6ALEMMHXvQB5f8fvFU/gP4BfHDxjYz/ZtQ8L/AAe8UeJ7O79Lqx0XUL+gD+C/4caPY/2UIDBbW1x/y+fZLOgdmdP4l8H+HPsFxPPpVsbjtd0G9XqfIHjaz8mW5sfPufs/tQcM/iZ6RoPwl134S+N/iB8OfFUAtvEPgPx5qngrxJaf9RSwvfsF/QbHtEM1AHQWnn6xf20EHXr0oA/cf9i34Sz/AA30G38VatB9m1DVP9NvPegDmP2rvjxpWpeI/wCw7G+P/PleWlc50HAeG/Df/CbaVp19ALW2udLvLX/ib3f/ABLKAPR9e8jQdB8QW8N/dalb2tn/AMvnW/oA/K/QbPXPGHxB/f3H/H1/x+UAf1Yf8E/fB+q6D4X0f99c6lb/AGP/AEPsLCug58XrsfSH7S3gmx8VeEbjz7H7VqGg9eP+XWk9mGD03/rc+L/2IdAg8N/tD3E99fXP9n3Vn9js+9Y007nRV6n7oePfCulTWGoX3/Ht/aln+NdkWuU4Z/Ez+Hf/AILnfCW+s/2gvhv4j8OWNzdajpfhu6/ti7+x/wDHh9g1qwsP/b6xok1yhD4keD/sl+G/Ct54t0fVdc1vUrbR9L1j7beeHtJ1i9037fdVxVep209j+tD9lGDwPZy29xoeh6Jptvdf8+lnQYy3Z+sE1nY+KvBGsaV5H/H1o9Aj89/J86L/AJ9rj9TXQBnzQ/bPtE8BxcY9aAM+aE57/aKAOfmh/e/jQBnz9v8APrQBnzQ/5NAGfN9nx+4+zUAZ837r3oAz/J8mKgDHm/6Yfhn9KAMeaaDzvpQBz8wg5/f/AI0Ac/ed/wAKAMeb/nhigDHn7f59aAMebyPN8j+tAHPTef8A6if/AEagCjN5Gf8Al268+lAGd+9/zmucDPm/6Yfhn9KAM+ft/n1oOgz/ACf+Pf8AWgDuD/y3/D+tdBzliHyOKANCDPlfv84z3oA2IO/+fSgDQg7/AOfSgDYh7f8AHt3+tAGzD/qR9DQBrww/veP+PjvQBsQd/wDPpQc50Fn2/GgDoIYaANiGH91+FAGhB3/z6UHQbEMNAGxZw9q5wOgg/wCXfyPbOaANCDv/AJ9KANiGGgDQoOgsQw0AaEH/AC7+R7ZzQc5Yx/0w/WgD5P8A29tYOg/sUftMar/z9fCu68Mf+D3/AIkP/t9QVD4kfxP6PD/YP2e4n/496D0YJah4w1iCa1/cX1yf+vSug5KvU8/+Evw21X4zfHP4X/CTQzbXOsfEb4kaD8P9H+1n/l613WrCwsP/AEuoOGfxM+qPj9o8/ir9qr9rjxHpX2a6t7r9sD4jcf8Acz39BseTzQ/2bdXFj/o32j/n0oA9o+A/hufUvih4H0OeDFxqniS1+2H/AKdbGucD9+Pid4kt/g94I1DVZ821x/Y9AH4D2erz/Ej4l3GuX0/2kaprH41tP4WB+rHw903+wfBFxBPY/wDHrecf9P8AXmzbVrAfO/xy8YeTYXGlef8A9Pt5Wh0Hg/wZ0G9m+IvheDQz/pGvax9ivBac0Af1cfBTwh/wr3RtHsdDuNS+0fY/9M7V6Bz77n0DDqV9rEtvpV9Y3Ntb3Vn9i+10AfP3/CmfFXhv4yaf4j0OC5/s8f8AH5/0DK1kkouwH6gQzf2x4Xt7eef/AEj7H9a4qreoH5z+Nv2dvCvxU8b/ABot/GWlabqVxr3wHuvBdl9r/wCJl9gtfFl79v8A/cHY0AfxP/D281XwpF4o0qfNtqGg+JP7FvfWw+wUAftB+xz+2xY6Dr3h/wAOX18LkXV79iz6VznQf1kfBPxtD4w8OW99Bcf1xQB8gaxpv9m6zrGk/wDQLvLqy966DnM7yYP9I60Ac/eQ+SfIroAx+n/Tt+tAGfND5VAGPP2/z60AZ88HUz/yoAx/9d+49aAM+b/Vc/6T/wBOdAGfN/139+lAGPed/wAKAOfvIe1AHPz9v8+tAGPN/wA8MUAY83/PDFAHPzfvv3E4oAz5of3Nvj/j3+nNAGP5Pk/8t859s0AZ80MHXvXOBnzf8vP4UAUJv9SfoKAM4f8ALv5HtnH9aAOwm/5efwroA0IYaANCHn/p5z1oA0IYaANiGGgDYhhoA0IYaAOgh4/6dsdaANiHj/p2x1oOc6Cz7fjQB0Fn2/GgDYg7/wCfSgDYg7/59KDoNCGGgDoIO/8An0rnA2IYaANiAf4/ZDQBsQw0AWPJ/dZg4/nQdBoQwf8ALA/yoAsdP+nb9aDnLFAH5r/8FUPHkHhv9nPR/h//AKN9o+LXjzS9FvLT/qF2P/E++2/+BljY/wDgwoKgnzH8n/xa/wBDutQ/49tN/wBN7dKD0qfU+btS1LybX99/x8e/aug46vU/an/ggD+zf/wuD9v/AMPfFTVbG5ufB/wR8N3XjT/jz/4ll/4ovrL+wfCdl/19/wCnX2t2P/YoUHDP4mfG+sQ3Gg+N/wBqDxjqtjbW1xqn7Tnjz7H/AKH/ANRrUKDY8n8K2cENhca5ff6RqF1efYsdrCgD6I/Zp1iDTfj78N76ef7Lcf2xdHmucD7o/wCCjXxI86LT/B2lX1x9n/se1vbz7J/z9X1AH5v/ALPcM83iz7P5AzpdndXv2utp/CwP2A03/iTeCLeC+nubm4+yfbftY/5+q82abtYD81/idrs+seLfsM8Fzbfav+Pz0rQ6D3D9lfTb2f4v+F4bGf8A49dY/wBDu6AP6mPCusz/AGW40rVR/wAI3caXZ2tle3dref2l/pVegc57BZ6b9j/fz332m3ubP/j0+x9KAN+GGe8ureD/AEm2tx1/0z+061k1yvUD0H7Z9jiuIOLn/r0riq9QPD/CtnYw+PPix4jnvtSudY1T+wfC50n/AJhtha2Nl9v/ANB/8Hl9QB/EP+3t4P8A+FD/ALZv7RHhWCD+zPC/inxJdeNNHtOx+3f6f/7fUAfF/wAGfEmuQ/ELR76wnuf9E1nP1rnOg/vQ/wCCcvxgn8SeDfD9hqv2r7R9j/0ygD3Dx5Mf+Fg+OP3/AB/wmF1XQc5x/Pm9v9K/KgDn7yH97+/6V0AZ/k/8u5+n+l0AY83/AF39+lAGPNx/07Y6UAZ8/b/PrQBj0AV5v+u/v0oAx5v3/wC4zQBjz9v8+tAHPzQ/us+f/pHcUAcvd/8ALf8AGgDHmh/yaAMeaHyf9RP/AKR1oAx5pjnv9ooAxpuv7j/X0AZE0M/XtQBnzQ//AF/9DrnAz5oP+WA/lQBQm/1J+goAreTB5v8Arz0/GgDsPJ/4+P0roAsw/wCpH0NAGvB/4DXHrmgDYh/6Yfhj9KANCDv/AJ9KDnNiH/pv+OP1oA0If+Xb8aDoOgh8jigDoIYTnv8AaKDnNizh/wAP9MNAHQQd/wDPpQBsQd/8+lAGxB3/AM+lB0GxD/0w/DH6UAbEMJhl8gfSucDYhEHH7/8AGgDYh/5dvxoA0IYaANCH99/yw+0/jQdBYh/54Z/0egCx/wBO/wClc4Gh5Hv+tAH4L/8ABVbWIPEn7SP7N/w5nn+zDwv8N9e+IN5/3Hb37B/7g66DoslsfjP+0h8PfO0HUL6D/j4+x4NAH5Lw694jvJbixvoLn7Pa10HPV6n9MH/BNP8Atz4bfsAaP8cPA+uXPhvX/wDh7p8JdF8SataXn9mm/wBB0LwxqF/9ivv+nT/ieX1Bwz+Jnzf/AMFDvGFjr3jf4T+DoLHTfDWsap8N9B+LnjzSdJs/+QDqnjrRdP17/Tv/AAOvv/JKg2Pzn1jX/JurnSoIPs1va/rQB2Gg+Nvsd/p+u2Nx9m1jS7z7b9rzXOB3Hjz4ta58Qrr/AIms/wBmxZ/WgDoPgD4V8R3l1rHiOxn+zafa3nX7H/aVAH3hqXjaDQfC+sQT/wDIQ+x/8vf/AC/0AfC/9pX2seI/Pn/0Y/8ALnQdB+qH7Cvw9nvPihp+uf8AHxb2tn/y99bCgD+gC81Kx037PB/x7XFr/wAvdpZ/8Sv7VQc57gbO+021M8/+k3F1Z/bftf2OgA03xJmW3sb6xubb/TP+XSsLvudB6xoNnPqV1if/AEbT+3/QTpAeb6xDBD4y+IEFjBbW2n/2za2Vn/246Lp9h/7Y0Afxnf8ABebR57P9rnT77yPs39qfCvS737X/ANvuoWH/ALY0AfBH7Jfg+4s/Fun6rqtj/o91zZi7rnOg/sI/4J+6b539j+RBc21ApbM+8PG1n/xW/jj/ALDFr0H/AE5WFaQ6nC92cvXpQ+FCOfvP3Muf5niqAz5z/h9rFAGPed/woAx7yHzpeo/LOaAMeft/n1oAzpv9cfqKAIJsf9u1BznPzf8AXf36UAY956ef7/8AH5QBz82P+3agDn7zv+FB0GPed/woA5+bP/bzQBj3nkTf6PQBn3vn/wDLfP2jv60AY83+p7dP+XvrQBjyw/8ATD7VjpXOBXn7f59aAMeb7Pked+PrQAfvvK/zigDsD5Hm3Gce9dAFiEW/leR+FAGxB3/z6UAbEHf/AD6UAaEP/Tf8cfrQc5sQ/uvegDQhhoOg6Cz7fjQBsWfb8aDnOosvP/D3oA2IO/8An0oA2IO/+fSgDYg/1XH/AB75/wD1UHQaEHf/AD6UAdBZ/vv3HGTXOBsQ+f5v+c+1AGhB3/z6UAbEHf8Az6UAWP8AR/8Alv0oOg0IfI/188/PagCebr+//wBRXOBpQ/6kfQ0AfzC/8Fb/ABJ/Zv7c3gefz/8AkF/s96Xot5/1D/8Aida/XQdB88Q2cHjDRrixn/4+Lqz/AOXvg0AfmP8AHj4Yf8K88UX/AJEH2a31T/Ta3ujnq9T9QP2OfiR4V0H/AIJu3Hw51XVba21nxl/wVo+F9iLX/p1v/Bev/wCm/pTOGfxM+Jv2tPHk/wATv2r/ANoDxx/pP2e6+KmqaLo/f7Bpehf8SHQrL/wDsbGg2PYdH/Zp/wCF/eA9P8Y/DG+trbxBa/6D4k8PXf8AzD7qgD53m+CfxG0HVLjQ9W8Ha3bXOl3n2K8s/sdc4Gf4k8H65oNhbwT6Vc22oXQ/49KAPcPgzear4DuvI1yC5trfVOKAsz1jxtrFjeXVvPBBbXOn5/0MXlnQOzOH0ezt9Sl+3X1x/o/2z/j0oNz9gP2A4dKs9ZuL6AfafstAH60Ta953iT+yp4Ln7Rqln9is7TOBQc59QeG7SCzsCdVvsf6H/wAvd5zQB2FnqXw5hlt5zrmm/wDH59i/4/K5zoPSNN1mxEVxPPPnT7X/AJe+9AHyP8JfEk/jDQbjxHfD/iYa9rF1rXv/AKde0AfzX/8ABbDQdD1L9q/4bzzf6TcWvwHtda+yen/E61+gD8/vhXps95qnh/8Af/Zri5vP9C+yVznQf1Ef8E8byCaLR7GcZ+y2f+mUClsz758beR/wsHxhBB/y63tr+H+hWFaU+pwvdnHzTf5NelD4UIx5v30uOMdaoDHn/wBb5GQOPzoAx5v+Xn8KAMef/l4gzQBjzefzQBn0AV5v+eGKDnMab/XH6igDAvIf+eH/AB8UAY8376XHGOtAHP3nf8KDoOfvB/z3n9utAHPzDjt9nuuM3dAGPN/zwMH2b6GgDPmxNF+4/KgDHm5/6ec9KAK8/b/PrXOBjzfuvegDPm8j/r2P5YoAr/uPNt8Y9qAOwEP764/f/l1roAsw/wCpH0NAGvD/AK3yMg8flQBsw/6kfQ0Aa8Hf/PpQBoQd/wDPpQBsw/6kfQ0HOb9nD534UAdBB3/z6UAdBZ9vxoA2IO/+fSgDYhhoA2IYf+m/rmgDQhhn7j7TxQBsQd/8+lB0GxDB/wAsD/KgDQg7/wCfSgDYhhoAsQd/8+lc50GhDj/SPI/4+O9AFj/SP+W/WgCxB3/z6UAfybf8Fkpp9N/bhuJp/wDj31T4D6DrVnzn/l91+w/9sa5zoPn/AODPiqfUrC39M9qAF/ai8EweJfBH9q9bjS/9Nz/061EG9Tnq9T89/BPxCvvBN/o+lWN9bW1vpfxg8L/E7RvtfH2/VNC/tD7BZf8Ak9fV6MPhRwz+JnqHxI02e7+I3iDxjYwD+x/iNrF140sx6/b/APj+sv8AtwqjY9w/Z7+LWu/A3x79tsf+Jlo91/oXiTSOumX9rQB+9PhvWPhl+0X4D1jXNDvtNt7j7H/x6f8AMT0G6rnOg+Bvid8JZ/DcdxPPPpupfZbz/j0+x/8AEzoA8Hs4LGbVLj7dpX+kWtBvZHn+sfaLyW3g8j/j6vOoHWgdkekWemwaxpf9lQfZba40r/l7tKDnP0H/AGRdesvBMXn65BqWm2//AEF7SzoA/RGG8sbzxbp+uWOq6bqWj3Vpn7Wbz/iZ2FAH1x4D02x+IWjf8I5Y3w1LUD/y9/8AMTNAGhqXwf1W817T4PFfiO4/s/S7z/QrW0oOc+j7zTpz4I1ixg/6Fu6sj/4BUAeIfDbR4NB8G9P9Htv9CrnOg/l3/wCC1Wvf2b+1B8OL6A23/JE7UYz/ANRrX6APhf4P6lPr1/8A8SqD/l8+22dB2T6H9JH7BPiq+s9U8P8A/CRz232fVP8AQrO7tP8AiW6pp/2D/lyoPNm3zM/Sjxhef8XG8cf6dz9stf8ARP8AkG/YP9CsKzp9STn5s/8AbzXpQ+FAZ82fK/cdbrj6VQGPNMc9/tFAGPPjzf3GM47UAY03+uP1FAFCgDPn7f59aAM+bHleRB6euaAMeb7P/qD0/wCvygDHm+0f6gfWgDn5seV+4/4+Mc0Ac/N/y3g/5ebr/j89aAOem/1x+ooAwJs/9vNAGfNjzf3/APx8Z4oAz5oTnv8AaKAMfp/o+P8Aj64zQBjzQwf8e/aucCvP2/z60AZ83f8A49u31oOgz5v+XegDuJv3P2j/APV+ddBzliH/AI9B/wAfXX/OKANiD/Vc/wDHxn/9dAGxD/03/HH60AaEHf8Az6UAbEHf/PpQBsQw+bQc5sQ/8u3/AD3oA6Czh7UAdRB3/wA+lAGhB3/z6UAbMP8AqR9DQBrww/8Abz6980AbEHf/AD6UAbEPn+V/nHvQdBoQd/8APpQBsw/6kfQ0AX4f3vtQBYg7/wCfSuc6DQh8j/l3n/49eevSgCx5P/Lf8N3/ANegCxQB/Kv/AMF09GvtN/al+F+uQc2+qfs92tkc8f8AHh4n1+uc6D4P+A48m6t4IP8ASbgc/ZKAPqj4hTT2fgjULif/AEn7LZ3V7WcE9Tnq9T+ff42Xk8Hi3R9Dsf8ARv7Ks/7avB/09V6UPhRwz+I/Q/R/GEGj6Xo8HiOD+0vD/jLR7XWtHtD/AMhOwuv+nGqNj0HTdBsdSiuL7w5f6bc29r/pt5afbf8AkH/9uNAHuHwx+J0/w91S31XQ7650S4tf+Pz7J/y/1znQdB48+MHiPx5qvn3s9tc/arP7F9ktP+JZmgDPs/B/iPUv3H2DU9NuP+P37J/z/wBBvdGxN8Jb68lt4NK/4+P+Pz7Jd/8ALhQO6Mez8K65Z39xB9uurbR7ofYvtf2P/l6oOc+yPhX4k1z4Py6f4Vn8ceEvFvg7VD/xUlpd3n/HjQB9kaPN/aVrbwQXwudP/wCP2z0m0s7zUtU+1UAfpB+yjr0/9veRPBbaZ4gtbPH2S0vP+P8Atf8Ap+oA+2NYnsZ9Z8//AEb7Rdf6Fx/y4Uro5zn7zUv+Ebi1C+8R65baZo9rZ/btZvLv/kGWFrRdAeLXmpeFfG1rb658K/FWm6lpGqc3n9k/8gysLM6D+VD/AILqfbrP9ob4bz33+k3Fz8K/sX+l/wDX7qFAHyP+xDr0Fn8UPB+h65Bc3Oj69/xJby77WH2+g7KjWh/Vh8B/DcHhvX9H1yxgtra3ubz7Fo9pd/8Ak9e0Hmy+Jn2BPeQalf6xrn/Lvr15a/YuP+fCy0+w/wDbGognqSY953/5dq9GHwoDP87P/Tz/APWqgM+ft/n1oAx7yb/pv/ntQBnzHzus5FAFDyR/07fmaAMb/lrcQdKAM+aGD/nvQBn3np5Hv1oA5+ft/n1oA5+8h8n/AFH/AB8dbwUAc/eef5v/AD7fhQBz953/AAoAx5+3+fWgDPm+z/6R6+1AHP8A7/8A0egDPmEH2U2//Lx/KgDP87955OP51zgZ9AFCb/Un6Cg6DOn7f59aAO4P/Lf8P610HOWYf9SPoaANeH977UAbEHf/AD6UAbEMJz3+0UAbEPH/AE7Y60AaEHf/AD6UHOdBDD50R/cfhQB0Fn2/GgDoIf3XvQBsQd/8+lAGxB3/AM+lAGxB3/z6UAaEM1AGxDDB170HQbEP/Tf8cfrQBsWefLH2j7N17VzgaPH/AE8/8+dAE9n++h8j/l5NB0Fj/Vf5zmgCxN/z3x/pH61znOWP+WP+o9qAP51/+C/HgmebS/2b/iNB9m+z2t7r3gu8u+9h/wAg+/sP/b6g6D8T/gleT3t/p/2fVfs9zaXn/Lp/y/2tAH3x488K/wBseEtQnM//ADB7qyraE1fY7KiWh/Pv8YIftnxL8YTjP2f+2P7Eyf8Alw+w/wCgV3wqLlPNl8TP0I8K/Yde+A3hefSrG21vWPBv/ElvM2f/ABM/stcb3ZsV7PwT4jn+z67faVc6Jb/9Pesf2bSA2NS1jStN+zwX2q/abi1/4/LS0FdBzlfTfG0H2r9x9p/4/f8AQ7vPNAH7wfsr/tIfsvfFTwvp/gf4/aT4T8N+KLWz+xf8JDd/8S7S7+gLs/TjQfhX+yhrNrb/APCG6r4J1u4+x/Yjq2k3lnqWp0Duyx4q/Zp/Z68K6Vcatrs+m6bp/wDx+/a7v/l/oEeL2fxI/YJ+Eo+3f2V4a1vWLWz/AOPv+x/7SoA8A8bf8FRPh/o9+bHwB4H0TTbf7Z/od39j/s0UAeO6x+3t8Yodet/GPw50PxJc2/8Ax+XhOj/8SzXf+nKk9mB+lPwl/aW+MX7RXw5uJ/8AhB9b+G/iC1/4/NWtbz+zR/oH/X3XmuDu9QPpD45fD3xj8Tvg3qHhz4ZeP7bRNYury1vdY+1/8TLTNe/6cr6hQd9wND9nv4Y6V8K/hxp/hWD7P9o0sf6ZedvtX/L/AF6ElaAH83//AAX+8Nn/AIWZ+z/4jg/5inhvVNF/8AL2vOqdAPLv2D/hXqt5f+F9csbHTf7P0v8A5+6KfU6KvU/pJh03ydBsJ7EfZri1s7Wy0cY/5er+vRilynDP4j2i8hgs5rexgnuf9Fs7WyAu6qyNjHmP/Lx5PvTAx5v3vtQBnzHzus5FAGfP2/z60AY953/CgDPm/wCeEH5g0AZ8/b/PrQBnz9v8+tBznPzeQIvI/wCXg8UAY95N1M/5UHQc/eCfyv3H+k59+KAOfm/5efwoAx7z18/26UAc/N/139+lAGPN5/lf5x7UAZ8377/UZ+z9a5wM/r/08/pQBnzeRzQBQm8/P/Lt149KAMab9zCB/pNzcfyoOgz/AP0qoA7gf664roOc0Yf9SPoaANCH/Uj6GgDWh/1w+poA2YO/+fSgDZh/1I+hoA14O/8An0oOc2If+m/44/WgDqLPt+NAGxB3/wA+lAGxZ9vxoA2Ief8Ap5z1oA0IO/8An0oA2If+u/v0oA2Ief8Ap5z1oOg2bP8A1p+o/kKANeDv/n0rnAsQ8/8ATznrQBsww/8APD/X0HQT0AWO/wD08f8APp3rnOcrwkQ/aIMfZh9aAPyn/wCCz3gmDxV+w94o8Rzi5trj4X+PNB8af+Tv9g/+5yg6D+W/4Dw+df2+IPs3+mdLs0norgfpx42vIdB+F+oX032b7P8AY+Pslc8JtSsdlRpWufP/APwWA/YD0P8AZ10b9lfxx4A8Oal/wlHxQ+D+g/8AC1LS0/5f/FH2Kw+33v8A2/8A+nV3wqOx5stZOx8z/CXwrqvwl8G/btVuNNttX17/AJhN2f8AiWWH/X9VGxz+vTQa9dXE+q+Mda1K4/6hP/Et0ywoA831PQfJl/0LVdN+z/8AgyroMLPsZ8NnfQ/Z54L7TbmgLPsdB/b09p/r7f7N7UBZnoHg/wCJ2uabc/Z9K1XUtE1D7Z9ts7vSbz+zcUCP6cPCvwZ8cft1fsl/BfxHofxj1LTdZ0vR/sWsWh/5+v8Al/oA6jwT/wAEi9D+wW0/jj406lrdva83mk/Y6APoDRv+CaX7NnhWXT77Q/A+m639l4+1at/xMtToA+kLP4WeDtOittJg8OeG7a3tf+oPxQBsWeseB/B91caVfQfZj/5TKnkiB1Hw38S6HqN/qGleB9Duf7Pur3/TNW+x/wDEso5IgbOpWd94b8b6P5GlXP8Awj+q2d19su7S8/48LqifwsD+dX/g4E02Ca//AGZ/sP8Ax8f8T69Au/8AtwrzanQdmeg/8Ex9B0PXvBGj6VffZfPurz7EaKfU3q9T9qNYs4LPVPA/g6xg/wCJPoNn/bV5/ptelD4UcM/iNCbyJ5fPg6XXFUbHPzQfvfP7YoAz5uf+nnPSgDPmh8qgDPn7f59aAMeb99LjjHWgDPvP33Xt/WgDPmz/ANvNAGfeQ/8AHzAPxzQc5jz9v8+tAHPzf88MUHQc/N+//cZoA5+ab/JoAx55v3txB0/pQBz837mLMMH5UAY8/wC9/wBR/pXpQBnzZ/7ea5wMib/W/v8A/wBI8UAZs3+uP1FAFCb/AJ4YueevagDPm9fPtuv40HQY83/LvQB6B53724wOa6DzzRh/1I+hoA14O/8An0oOg2IO/wDn0oA0If4vw/4+6ANiz7fjQBsWfb8aDnOgg7/59KAOgs4e1AHQQd/8+lAGxFD18/64xQBsQ/vfagDQ8j3/AFoA0IO/+fSgDYh/de9B0GxB3/z6UAbEHf8Az6VzgaH/ACy/z6UAaGf+m/6UHQFAFjP/AE3/AEoOcKAPB/2rvh7B8Yf2ZPjx8Mv+Pm58UfDbVLLR/wDsKWP+n2H/AJOfYa5yofEj+Kf9l2H/AIqj+yvPz9l9bz0pS2Z6UOp+rHinw3BrHgnR9Kzcn+1NY0uxH2vrf/6b9gowqTnr/W5x4xs2P+Cq3xs8VeMP2tPH/wAOYNVttN0f4X2dr4L/ANL/AOXD7fZWF/8A6D/z6f8AH9SxWj0DB67/ANbn5j2fhXQ7y1/cX1zrf/P5/wBA2qOgNY8E332U+RpX2bT8Z/0SzxQB5veeG4NN/cT/APbnzXQdfMuxz8/huebPkWH+j9qA5l2Miaz/AHVxY31iPT2oOeaWhw2pWmq2eZ7H/Sfsvag86fxM+0P2Y/8AgoF+018AYrfwr8P7+51vT/tn22z8Pf2P/aVbc8Tn5JH7EfD3/gp9+2xqWqaPP4j+AOpaJ4Xuru1srzVrvR73ijniHJI/Uiz/AGutKvLrz/t3iXRf7L+y/bP+JP8A2lplUbH0ho/xm8K/8S++1zxHptzb3XH2v7H/AGbpl/QB6hN8QfhzDi+8OaH9p1DVP+Pz+ybT+0vt9AFeb4kQaxLcaHY2Hi3RMWf/ACCbSzstOoA4/wCM2j654b/4Uf4j0O+trfR9U1i6+2eHru9/tLU7+uWXwsqHxI/n/wD+Cq2j658Zv23Pg/8ACOf7Tc/8Ib8H7rxPeY5/0rXb3UP/AJBsa82p0PRglqfVH7FvwZ1z4J6X4f0q+sf7S1i6vP8AQ/snFFPqOp0P0o8Kzf29rPijxH/pP+lfZfDFn72tjZf6d/5Ofbq9KHwo82XxM6CbyBFcfuM/Suokx5v3x/1H2X/2woAz5v3P/TrcYxjPFAGfN+99qAM//p3/AEoAx7zv+FAGfPL/AMsMfUUAZ8//AC8+R75oAz/+2H/kpQc5z8/b/PrQBjzdT5/2XPeg6Dn54YP+WHTrQBj3ufKPkUAc/NNBn/X8frQBjzeT5X/Pt/06dKAOfmh8qgDPm8/yv849q5wMf/phB9ODQBQl8jyv3HTHag6CtN/zwuJ/x/SgDHm8/wAr/OPagDHm/wCXegD0g+R5txnHvXQeeWbLPlc/8fGeaAL8P/Tf8cfrQdB0EP8A03/HH60AaEMNAGxD++i721AGxZdj/wCTZoOc6iz/AOu+Lj35oA6Cz9fP9ulAGxB3/wA+lAHQQd/8+lAGxDD/ANN/XNAGhDDQBoQw0AbEI/5YCD9P8+9B0Gx5Hv8ArQBoQd/8+lc4Gh+4h9Bx9cUAaH/LL/PpQdAUAWKDnK//AID0AWIYYP8ASOmbo+lc5UPiR/C/8K/Dc+j/ALRHjjw5YwW32fQfEuqWXX/nxvaT2Z6UGtT9efEmjwf8KbttVJ/0jQby18T/APgD/p//ALY0YXSev9bnHjGjzb/grp4bg0f/AIKCfGjVfDk9tc3Piiz8L61rGk3dnzYfb/DFh/ptLF6vQMG0t/63Pg/R9YvtN/f6tBptrbXX+hfa/wDkJE1R0HYTfELxGJbfyLHw3bXH2P8A0PVtWs/+P+1oA0IdS8HeK7C3g8ZaH/wjesXV5zq3hQf8Sy//AO3Gugz9p5FjTfgD4c8V/wBnz6H8TdE/0b/mE6vZ3vhvU6A9p5GhrH7JfiSaL/QdV8E+JPsv/Lpaax/ZtFmb1GtNT1jw38H/AIc6DYfZ/GXhy20TUf8Ajz+13dnjTKGmjzpfEz9Af2e/FX7PXwx0G30qD4S6J428QaXefYtX8Q+HrP8AtKuNzs7WNvZeR9cax+0tpV7a6hYwfAfxJ9nurL/Q7S00emp67B7LyOO0HxJ438SWtxY+Dvhl/Ylxd8Xlpd2f/IPr0VJW1ZhZnm+pfsi/tQ6l9p1yx1W6udQteLO11a8vNN8Mmnddwsz2j4D/AAN+P3w91n/hMfir8cPhL4Jt7X/QrzwnpN5rPiT7f/5OUxH6IeCdS0qHXgLGDUvH/wDpl0bz7J4b/s3U7/8A6fft13eUAdh4V03w54p8W6x4qvr6503WNLs/tvg/wP4s/wCJb9v/AOvH/n7rlnpF3Kh8SPwH8VaxB8Yf+Cqnxogvrjw14S+IGg3nhfwx/wAIRd+JLLTdTv8A/ii7C/v7Kxsbv7Je3f8Apn27/jxs/wD0ssq82abtY9GDWp+1HjbwrofhXwPp/irSoLa21Dwbo91rV59k5+wWv/L/AHv26in1HNp2sZ/hWzgs/CWjwQfac/Y/+Xv/AIltelD4UebP4mWLz/P+mV1EmfN++z9n/wBG+1fpQBn3mP8AUf6T/ovegDn5poIZe34UAV/O4/6d/wBKAM+ft/n1oAz5+3+fWgDPoAx5hB5Vx5//AC9dDQc5kTf6k/QUAc9Nx/07Y6UHQc/P2/z60AY803+TQBj3nf8ACgDn5+3+fWgDHm/1vP2b/r7u7LBoAz73yPx9q5wM+ab/AKb22aAMeaf/AJbj+dB0GfP2/wA+tAFeb/rv79KAOfm8n/R/SgD0gf664roOcsQd/wDPpQBsQd/8+lAGhDn/ALeaANiH/l2/GgDYhz/280AbFn3g/Sg5zqLPt+NAHQWfb8aAOgg7/wCfSgDYg7/59KANiz/c48j/AAoA0IYaDoNCH/rh7daANiz/AH0v/TwaANj/ANKqANiH9zxn/SPeucCxDD18+D60AWIO/wDn0oOgsUAWKACgAh/1v+v70Afwb6l8Qv8AhFf2m/GF959tnVPHmqDWPsn/ACDP+P2gD9sPCs3/AAmHwq0++sf+Jlo91ef2IbsXn/Es+1VznPdvc5f/AIKoal8OfGHi34D+Mb+xtrnxxqnwH0HRdY1a7vMf29daF/oH2K+o33GnZ3Pyn03xh/ouoWOleHLrQ9Puv9CvLTSv+Jlpl/8A+BdZ+z8z0lPTY+oPhv428OabdW99feFfBHja4tfstl9k8Q/8S3UzScLK9x+08j3i81j4A+NrX/iqvCtz4S1D/n7tLO91LTLD/wABKweIs7B9XvqcP4k+Bvw51iwuNV+GPxV9vsl3q9l/6Q3f2O9/8k6axOoPDaHzvqXw98Y+G/3/APaut/Z/+fu0vOa9JYtWOR4R9ws9Y8VQ2txpU/jjxbptvdWf/P5nFDxaYLB63Nj9nvQbHQfFv2H/AISrxZon9qXn23+1tJvP+P8ArkcLu9zrU7K1j90Pgnr83hW6t5/+Ej+JHjbT+o0m78N2X+n/APb9R7PzB1NNj9APAeveKtSlGq6H8Of+EJt/+gt4s1iy02nyvucbqLuekal/plhcX3jH4m/ZtHtf+Pz/AIR7/kF/+B13Qou+4vaLufn/APGD/gop/wAE5/gDLcQT+P8Aw38UfiBa/wChWfh7w9rH/C2vE3/gDaf6FaV6S0VjA+H9e/4KxftQ/FqXyPgt8Afhd8LvD+qXmdHu/jd4kvPEnibXv+4HpVMDl/2kfip+3B8VP2c/GHg6+8D/AACufFHjKz0v/S/BHw31nw345sPsF7/p/wDYd9d6xef6X/0/VOO0WgH4X/D39m/9ozxv+1p4P8K+OND+KOm+ONU8SWtlo+rat/bP/CTa9qmhf6fY2Vjrn/Lpd2FnY/8AblZafXmUNVqO7P6WP2b/ANur4uTeKLn9lD476Hc63rOvaPdaL8N/izq1n/xM7/7B/Z/9u6Lrlja/Y/ter2Fn/wAeN9/y+/8AX59tqo7s3P1w02zns9Lt4OuP+fuvRh8KArzTf9e1Uc5nzfv4riDz/wDSfpQBjzeRNz/op7elAGfN5Ai/0ift6ZoAz5v+u/v0oAz5+3+fWgDPn7f59aDnM+gDPn7f59aAMe8/z/odAGPPnzf9f/pHvQBy93/080AY82f+3mg6DHvO0H6UAc/P2/z60AY8377nH+j+1AGfN3/49u31rnAz5v8Aph+Gf0oAx5v+u/t/x+UAZ9AGf5P7r/OKAM+b/l3oA9AP/Lf8P610AWYf9SPoaANeDv8A59KANCH/AK7+/SgDYh/67+/SgDYg7/59KANiz9PI9+tBznUWfb8aAOgg7/59KANiDv8A59KANiDv/n0oA2Yf9SPoaANeGag6DYh/64e3WgDQg7/59KANDr/qP9G9aAL8P+uH1Nc4GjQBYoOgsedPNiDyPzoAsef7fpQBY/5a/wCfWgCv5373yPI/HtQB/D/48+A998Mf2pfih4A1zSvs2oeF/GF0LO7uv+fW/wD9PsP/ACTvqAP2Y/Zd+A99eaX4PgsdV1u58H+KP9C1jw9/zDP7U/5/f/AOuc5z8p/+CtPw9+MX7KP7QVxfefqXiT4T/Eaztb3wfaeIbz+0vDOg3VhZf6fZWP8Az6UAfj//AML++MWpap/xKtc/s23/AOfT/kG6bXdyRK55HpGjfHj472cs8P8AwmP2m3/59Luzs9S0yjkiHPI2If2qPj9pkP7/AEPwT9ntf+Xv+x/7NF//AOAlc7wKYfXpLQz7P9ur41eb/p1j4Jucf8ud34bxR9RQ/r7uWJv+CgXximlt/I0PwBbW/p/Y97x/5OVX1M1+uGgf+CgXxi58/SvAA7f8i3eal/7eUfU9Q+uHoHhX9vzx/oNpcTwQeALbxRdf6dZXdp4D/wCJZ/6WVtyRMeeR9IeFf+Cln7bMNr9u8HfGnRNE+1f8uek/DfRiD/4F2dHJEOaR0Gvft4f8FEde/wCRj/av8S6JbXXa08N6Npup/wDkpZ0ckTn55Hx/488E/E342XVvrnxN+PHxI8fi6H/H3438SXviSjkiHPI6D4WfB/4SaPdXFjP4/wBbOof8+n2P+zcVRsffHwx02DwTLp8Phzw54Stbe6vP+PvVtZvD4m/8m6AP0w8E2d9D4c0++0rXPFttcf8AH7Z/bLO91LTPtVj/AMeFTjtVoB+yHwf8SfDn9p26+F/xbvvDmm6J+0f8L9Y+23lrd/Yv9P16wsr+w/8Ab7/j+sP9NrzKGi1A8Q8N/so6HD+0F4w/aF8VaVa2/iG6+JGqa14b8PXdnZf6BdfYtQsL+9/8nr6qjuzoPqC8vP3vkef7c9K9GHwoCtNN+9/GqOcz5s9/tP2mgDHm/de9AGfNN5VAGfNN/k0AZ03+uP1FAEE/b/PrQc5n0AZ8/b/PrQBjz9v8+tAGPN/0w/DP6UAcvef6r/X232igDHlM/wDywzbf1oOg56br+4/19AGPN/rj9RQBkTf6ryJ8CgDPm/67/wCkZ/5e65wMfyfI/wBRQBn/AOq/znNAGfP2/wA+tAGfN/z3zQBnj/lh+P8ASgD0Af664roOcsw/6kfQ0AX4O/8An0oOg14f9cPqaANmHj/p2x1oOc2If+eGKANiz7fjQB1Fn+56d/6UAdBZ9vxoA2If+m/44/WgDoIO/wDn0oA0Ic/9vNAGxD/03/HH60AbMP8ArYPr/SgC/B3/AM+lB0Gh/wBO/wClAF+H/VQfT+tAFn/r4/4F/n86ALHn+36VzgFAGh++8r/OKDoLGehgg9qADzv3v+c1zgfzv/8ABT7wTY6b+194f8Y2P2a5uPFPwrtb27tD/wAS0f8AH79g/wDbGgD6o/ZM8eX2g/D7UNc8R/8ALreWt7/on/T/AFtzxMeSR8f/APBfjWND8VfAv4L31v8AZv7Q0vxh/wC2V/RzxDkkfyTzWdjNL/p2P+nP7J3qiTqPCt7/AMI3f/biP7St+o+2UAfWF59h8VaDb301jpum3F1/z9iug5zwfxh4Dgs/+JrBB9m+y/hQB4/DpsGsRXH7j7NcWx9aAOf+xzwzeRP2oArywzwy28/H2i1roA7DQZtcF/b6rY31zbah/wA/f2ygD6w+E3jA6l4tuINcgudSuPsf2K8u7vjTLCucD1DXtB+NOpX+oT+Dh4b/AOEftrz/AI+/7Ys/7TsKANfQfgP8cZ7+2vtK8Y+Cbm4uv+fvWdG02g6D7p+G3hv9sTw3YW/hzVfB3gjW/D//AE5+JdG03U//AAO+2UAfdHgmHxxqWlnwpB4yubbxhoGj/bfsnh6zvfGv2D/py/0SzqZ/CzGHxI+uPhJrF94b+I/iDxHY6rbf6LeaD/bFp/zE/tX/AF4/9edebU6HdS6H7gfFqz0Oz0bwvrmk31trf/CeaP8A8JP/AKXef8TPQbW/+wX9j/m/op9TsmkrWPnfzv3VxAcH9a9KHwo82fxMzpv9cfqKokrzf64/UUAQceV/z7fkKAOfm/fRZ5z0oAz5+3+fWg5yv5/t+lAFfP8A03/Sg6CvQBnzTfuuf+PftQBkedb/APPc0AY03/Xf36UAc/N+5/6dbfOc45oA5+8/fRdra3xQBy800/IuM21v/wAufNAGfN+5/wBR9m+0daAMeb99z/5OUAY832fyjBB/x81zgZ3nXH/Pe2oAoTeR/qJ4PxoAz5+3+fWgDHm/c84/0j2oArn/AJd/+fmgDuZv9bP9f6V0HOaEP+pH0NAF+Dv/AJ9KDoNiHP8A280AbEOf+3mg5zYh+z/6g/WgDYs+340AdRZ9vxoA6Cz7fjQBsWfb/l5oA2IO/wDn0oA2IYcRW/T370AbMP8AqR9DQBfg7/59KANiGGg6DQg7/wCfSgDQg7/59KAD91/nFAGhXOAf63/OMUAaEMM83QY/Sg6CxB3/AM+lAGhDFBMPTPWucD+e/wDbk8Y2Pjb9vr/hANKntrm48HfCvS/DF5af+B9/f/8Ap8pN2A+f/GHxI8U6Pd6fpWlWP9m+H/FHhu1vbPH/AGBft/8AoP8A2+VyOeux18i7kH/Bbzw39j+C3wv1WCe2udG/4TDS9as8/wDPrfWWv01O72BwVnqfzHf2bY3mPIgubnULqvSW2p5r3Z0+m/brO6t4J7HFwf8Al0NnTEfbPgOHxHqdr++8HeG9Tt/sf2Kz/wCJxmug5yx4q+HvxVmsNQsb74SXNzb/APLnd2l5ZD/28oA+ANY0fVvB/iPyNVsbnTZ/tv8Aptpd8UAT69psF5a2+q2H/Lr/AMfnagDh7z/S/wDUcfZK6AAalBDF5EH1oAsQ6xqsPNvfaln/AJ9PtnWucD0DR/HljZ2v2G+8HeErnP8A1Lf/ABM6APSPCviT4A/b9Pg1XwB9luPtmPtX+m6aKDoP1g+Evhv4V6Z9nvv+EI0TN1ZfbbP7ZZ/2lpl/QB9w+A7y+0aXUL7Q/Dngnw3o91Z86t/wh/8AZupj/t+qZ/CzGHxI+x/Adn4cvZvDGq+MToltjV7XWrzVv+Rb/t6vNqdDupdD9cJvGE/jbS9H1ye+037Pqmj2t7Z/2T/z6/8ALhRDqdk2naxz837+L9xi57etelD4UebP4mV5v3XvVElab/XH6igChMP3Xn+fQBjzTQZ/1/H60AZ9BzlegCvP2/z60HQZ83/Lz+FAGfNN3n/5e+4vOlAGfNx/07Y6UAcvNNcf88P9INAGPeHyZRBPxcUAc/ew/vef+Pjv2oAwL399+4n/APrGgDGm8/mgDHm4/wCnbHSgDPm/54YrnAz5v+eGKAMfP/Tf9KAM+f8A8Brj0xQBn0AV5+3+fWgDuB/rriugDRh/1I+hoAvw+fxQc50Fl5H4+9AGhZzf9N/896DoNiH/AKb/AI4/WgDoLPt/y80HOdBZ+vn+3SgDoIc+b5E/r65oA2If+eGf9HoA17P/AFR+g/mKANmHP/bzQBsQ/wDXf36UAbEP+f8AQ6ANCH/P+h0HQaEM0H/Pf/SaANCA/wCH2s0AWP8An2n/AEFABDNQBYhmgh/5b8D8KAND9wP3H4f6JxXOdBoQ/wDTf/R/rQBoedP5v+ouelTP4WdB/K/8ePAfir4P/wDBRnxR4j8Va5c23h/xR8YLXxprF3d6x/xLL/QfFl7f/YL3/tw/06y/7cK82fQCxBDf6x8G/HGiCC21LxR+y/8AGzXr3R7vtf6D9tv7/wCxf+l1c8Ophdlj/gor9h+IX/BPvwPqsAz/AGX8K9B8T2dp9s/48PsOtfYP/SO+vq9CHULs/l3h/wBb/qLn/ReleocxsTTQXn2eC+7daAPrj4P/AA9n1iK3vp/7NttP/wCnTWOtdAH0xefCXSprW4/4nupW3/b5mgD4n+M3wlg02wuJ4L7+0vW89K5/ZX6AfK+m3t9Zy3GlT/6i660ey8gOf8STf2aLcQZ/0rmgCxZwweVbz/yoA0PJF5L+/ntuf+nygDsNI02wm/cQat4b03HT7XeUAegeG/Ddj9vt4P8AhKvhv/x+ddV1igD9iP2V9N1ybS9Pgsfib8LtRt7X/l1tPEln/ZlAH6oaDN8VIbrwudKg+H+t+H9L+y3t4bvxJ1qZ/CzGHxI7j9pbw3pWj/Afxh4xt4NN/wCEo0v+y9as/wCybzH2D7Be/wDLjXm1Oh3Uuh+kHwB1iy8SfCD4b+I9K+0i31TwFpd79k/58P8AQq7APUJpoOnegCvN/wA8MV0HOZ/+pl/5ecfzoAx5v9Vnta/nQBnzf9d/fpQBn0AZ/nedHz/y6+lABN+99qAM+WXyf+vj9KAM+b99+48/7N6ZoAx5v+eGf9HoAx5v/Sr8PrQBz800HlXEH/HsfSgDl5ppx/r8fZ8fjQBjzeR/17H8sUAY80373/p3oAx5+3+fWgDPm9fPtuv41zgZ9AGPN/zwxQBXmm7fh9roAz/+WXn+fkf8vntQdBnjPm2/kY/H1oA9Bm/1s/1/pXQc5Yh/1I+hoAvwd/8APpQc50EM0/TtQBoQd/8APpQdBsQ/9N/xx+tAGxZZ8oefQc51Fl5/4e9AG/D/AK4fU0AbMPkcUAbEP732oA2IZv8At29e2KANiHz5v3Hke5oA0IYfO/1H+k5oA2ITBx+4/Cg6DQh/54Tj7N39qALHnef/AK+gCxQAUAWP9b/nGKAND/lrbz9K5zoNCH99nyaAL9p/qrb6H+dTP4WdB+OH/BaX4M2/jb4GeH/jFY/2JpviD4X3n2LxJd3f/Et1PXtLv/8Ajwsv/Az/AE3/AD/pvnVE9APxv+Cfx41y8+NNvPqsFtbaP+0F8H9U8T+PNJu7yy03S/tVhrWv1zwT1Ocx/hx420P4kaX4w/Zs8Va5bf8ACD+MrzVP+ED/ANM/5AOl317qH+hf9uFd9PqB+G01nBFdXHnz5FrefYvsn22vUOc2ZoNKEpggntjcd9W+2UAfSHwf0HSZ9Ut8+I/Df2j/AKdLPFdAH2R41s55rW3sZ4LjTc/8xa1s/wDhJPt//gJQB836v4b0OaK4t7HVdS1u46Xn2vR70Vv7NdgPifx5oP8AY9/ceR0taHT02A+8v+CO/wAKPh3+0d/wUN+EXwc+M/gnRvHvw28beDfHen+KNI1W0Oo6Y4/4QzXm+2H/AJ9buwIU2N76gVwuy0A/PX4keCR8PfiN8QPA885uf+ED8Yap4LP/AG43uoWFK6ewHL+VD6fpQBoWctjCR58Fz/4GZoA2PO0r/lh9p/8AAygD9OP2V9Y+HPhvS7e+1zXdNubc/wCm/ZLyzvCKAP2Q+EvxI+GWpWtvY6HBon2j/l8u7v7b/wATD/yTqZ/CzKKfMfpBoPhvwr8VNP8AD/hyfStEudH1XWLWx1j7X/xMvt9rY/6ffWX/AIB2NebU6HbS6H3RDDBptrb6VYwW2m6faWf2KztLQf2b9grsAJv3H7/FAFe8m878K6DnM6b/AF1z/wBelAGRN/qv38HNAGPNN/k0AY03+uP1FAC4/wCmH60AFAGfP2/z60AZ837r3oAx5/8AVfuM/Z+32TrQBz8/b/PrQBz953/CgDn5v+mH4Z/SgDn7z9917f1oAz5u/n/+AlAGPP2/z60AY80w/wBR/o3rXOBXmm4/5ds/9edAGP8A8sf9R7/8edAFeb/pv+Of1oAz/O6eRQdBnzf623/z3oA9AH+uuK6DzyxD/qvPwTz+VAGxD5E2fp64zQdBsQzUAaEHf/PpQc5sRefz/wC3dAGxB3/z6UAdDD/qR9DQBvwzf9N/qcfnQB0EP/Tf8cfrQBsWfb8aANiH7Rg+T+HpQBoQ+RxQBsQ/9N/xx+tAGhDx/wBO2OtAGhD/ANcPbrQBYh/cfuM0HQH+q/5b579OtAFiucCxZ95/1oA0DNB5Vv7UHQaEP/Tf3+x0AbMP+pH0NAHPeKvDeh+NtGv/AAr4x0PTfEnh/VLP/TNJ1az/ALSpWQH8D/7ZnwN+Jv7Ovxu8UfCTxzBc232W8uv+Eb8Q3fGma9oP23/QL2xo9it7HOeb6x+zT8ftZl+B+lfDnwP4t1vxR488H6p8W9G8PWllef2nf6XYXv2D7b/16f6DT9l5AfK81nfWd1/xNf8Aj4+2f6Z/ofNhdV0HQF55/kmf7D9mtx+NAnqrHuHwTs9J1LxHbwTz3Ntb/wDT3W3PE43GTbPti8m8Dm18j+1bnUrkXn+h2lpeUc8Rckjz/wAbWd9Na+RPY/2Jb9rTOdTv6Oddw5JHwv4wsx5tx/8ArzRzruHLI/Yf/g3j8Bf2l+3/AOIPHHkf6P8ADn9nvxRrX2v/AKer690/Qf8A2+rhxjZ0YSm3qz8yP+CgXgmf4e/tzftYeDp/+XX48eKL2z9fst/rWoX9h/5J31LCNtO/9bjxVN3uj5Xh9fPtuv41Ut2aLZGhZm4/576b/wBvlnSGdho8N7DLbmDStE1L3tLz+zQP/JOug5z9MP2cPEnjHwf/AGf5HgfRLm3/AOyj2Y0z/wBM9AH7AfCu88Y3n2ea+0rw3a291Z/8en9s/wBpf+2dTP4WdFktj9GPhLDqv/CUeB77SrHTdS0+1vMaxd6Tef8AHha/8eFebU6AfbHnfvf85rsAJvPm/wBR0/OgCvP2/wA+tdBzmfNN50twf+nOgDHnz5X7jOM9qAM+ft/n1oAz6AK9AFfz/b9KDnM+ft/n1oAz5+3+fWgDHvJu9AHPzZ7fZvtNB0HP3naD9KAOfm/67+/SgDHu8f8Abv8Aj0oAx5v9V1+zUAZ8/b/PrQBjzf8APDP+kfrQBnz9v8+tAGfNn/t5rnAz5+3+fWgDPm/1X/Lz070AV5v+XegD0A/8t/w/rXQc5Yg7/wCfSgDYh/fRY5z1oOg2IfImz9PXGaANCCf1g/7e6DnNiH99nyaAOgg7/wCfSgDYg7/59KAOgs+340AbEHf/AD6UAdBD/wBMPwx+lAGhD/139+lAGxB3/wA+lAGxB3/z6UAaEHf/AD6UAaH7r/OKANDz/b9KDoK/7+H1HP1IoAsef7fpXOBYhm/4+P54oA0P+ff7P/pWP19aDoLNn/rT9R/IUAX4ZsRfuKAK/wD17/8AAf8AP5UAcP4k+G/w58bXWj33jjwB4J8W6hpf/IHu/Fnhuy8SanYf9eP2uu7kic53Gm6bY2d+NVsbG2ttQ/sf+xbPVhZWX9p/Zf8Any/69KOSIH8E/wDwUs8N2Pgn9s39pjw5Y6Tpv2e6+MGqa19r0mz/ALN0z/Tv9P8A/b6sToPz3yfN/wCPi5+z/SgD1jwHeQWd0PsOh291cWvW71bWP+JZ/wCANpZ1z+1t1D2XkffHg/U/FWpaX5EHiTTfBOn3X/MJ+Huj/wDCN4/7fv8Aj9o9r5h7LyMfxJ4U+x2Gof8AE1ufP/8ABl9vo9r5h7LyPg/xtD/pVxBjjPfrTVVvZh7Jdj+qH/g37+AN94D+C3xQ/aF12xuba4+N3iS18MeD/tdn/wAwHQv7Q+3Xv/b/AHd9ff8AgvpYvVXR14Onqfjd/wAF5/g/P8N/2/8AxB44/wCYP8bvAel/E6z/AOnC6/5AN/Zf+UP/AMqFLCaJ3/rcMZTVz8b4O/8An0qpbs5DYhmpAdho/wDpktvB9hubi4H/AD6Wd7qRroOc+7/gPZz6bFb+RY6lpv8Apn/Qt0Afsz8K7PxJqUWj4nFz/wAev+i/Y7zTambXKzoP1A/Z7/5D1hBfAfaLX7ULPjrXmz6AfcH/AC83P412AV/+Wv8An1oAr3n77r2/rXQc5nzf8vP4UAc9N/qp/p/WgChP2/z60AZ/mw+v60AV5/I805+y+/rQBX/c+b/nNBzleab/ACaAMeft/n1oAz7z9z17/wBKAOfn7f59aDoOfvJusHn/AFoA5+b/AJ4YoA5+b/nhigDHmm8mX/n6uKAM+7/5b/jQBj/vf85oArz/ALkf6/8A0j/n0oAx/wDUy+RPx71zgV/9V/nOaAM/iGLtb0AZ8/b/AD60Aek+dB5tx9nxXQc5PCfJi8jH2YdvagDYgz5X7/OM96DoNCH9/wD6/wDGgDYg7/59KANiGagDYs+0EH48UHOdBZzc28HH2YUAdBD/ANN/xx+tAGxB3/z6UAbEHf8Az6UAbEP/AEw/DH6UAbEM0H/TtQBsQ/8AXf36UAbEP2fJ8n8PWgCxCZ+P3H4UAWKDoCbyPK/zj3oAM/8ATf8ASucCxB3/AM+lAGgf9Tb0HQEM1AGx/qYvW3oADnyrjyM/h60AEHf/AD6V3c8THkkWKOeIckj+J/8A4LMeD5/Df7bnxQn8jnxReWvjT/S/+n/RdArE2PyH8nyZj5/+NAHpHgnyby/uLKecW3vmuWfwsqHxI+4PhvZz/YB9ontvT/jz615s21ax6UEtTuPGGjwQ+HNY1X/SftB710U+pz1Oh+Z/jvUvNutQ8+f/AEjtnivRilynmzb5mf6IH7JfhWx8Cfsofsz+FbGxttN/sL4D+F7G8tP+nr+xbD7d/wCTlZb7noYT4V/Xc/Gf/g4K/Z1g+IX7Mng7476VAP8AhIPgN4w+xax/0/6Drv8AoH/pZ9hoDF7H8b//ACy/z6V0HKaEHf8Az6UAdx4bs768v7f7DB9p+y/hQc5+kHwNh1y8i08z/wBiXX2Xiz/4k9J7MD9gPhjeX1na28Hn3Nt/oeOlcMt2dB+iHwN1K3/4TzwvPY/af9Ks/wCxb37XZ/8ATlSA+8P3H2q4/f4uBeZ616Bzlf8A5a/59aAC7x/27/j0oAxpv9dc/wDXpQBkT9v8+tAGPeTd6AK9AFeft/n1oAr0AV5+3+fWgDHmm/yaAMe8z5vQf6XQBz82f+3mgDn5v30Vxbnr/KgDn5pv+WH+k/aP+XL1NAGPNN/yw4+0Y70AZE80EP8ArqAM6abyYv3A70AZ803ndfsw/wC3OucDP8/2/SgDHm8jmgCvNNP/AM8KAMeaH/j3/lmgCvP2/wA+tAHoB8jzbjOPeug5zQhn/deR3zQBsQ/uveg6DQg7/wCfSgDYhmoA2If3vtQBoWcPag5zoIO/+fSgDoLPt+NAGxB3/wA+lAGxB3/z6UAbFn2/GgDoLObzvwoA0IZqANiDv/n0oAsfuJvQ8fTNAFig6A87/lh+O3/61ABD++lzxjpXOBoQd/8APpQBoQ/8u340HQFn2/GgDY/5ZeRPxmgA/wCWX7+fn+dAFjyPf9aPa+Z2cnmH+q/znNHtb9QcLK9z+S//AIL5ab9j/ab+H2udP7e+D9r0/wCnG9v7D/2xroOM/n/1Kzn+1XEGf+XP7aO1AFjR9SnstVtr4Te1cs/hZUPiR+lHw31L7bpduIM3P2XpXm1Oh6VPqdB8Qpr6z8G6hOb7/lz/AM/59q6KfU56nQ/Nebw3qvjzxx4f8K6VB9p1jxR4ktfDGj2h/wCX+6vr37BXpQ+FHmz+Jn+lxDaWOm2un6HYwfZtP0uztdFsx/062NYnoYTSKv8A1ufL/wC2B8H7f4//ALNPxw+Dvkfabjx58N9UstH7f8TT/j/sP/JyxsaAxeq0P83eaGeGW4gng+zXFr/oV4a6DlLEP732oA9g+GPN1bwY+05vO9Bzn6UfCWznF1b+TcfZf+vSzpS2YH6kfDeCeawt/PvsXH0rhluzoP0A+A959s8ZeD4PIuf+nz/oGGkB+hH/AC1/z616Bzlf/lr/AJ9aAC87/hQBjzef5txB5H/LngdqAMeb9zxjH/bnigDPn7f59aAM+gCvQBX8/wBv0oAx5vI83/X9P1oAz5poOnegDHvP337jnBoAx5pv+3n075oA5+ft/n1oA5+8PnfuLgdsfa+9AGPNN/k0AY83kc0AY83/AE3/ABz+tAFf/R/+WHSucDHn7f59aAM+b/puPbizoAz/ACenkUAZ/nHP/Lt9poAz5v8Al3oA9IroAsQd/wDPpQBsQd/8+lAGxD+4/wBf+NAGhFD18/64xQBsQY8r9xnOe9AGxZ9vxoOc6iz/AH3Tt/WgDYg7/wCfSgDXh/1w+poA2of9SPoaAL8P/PDP+j0AbEHf/PpQB0EHf/PpQBoQw0HQaEJn/wBRj/t7+xUAWP8AVf5zmgA/1X/LDPbr1oAsf6mX/X//AFq5wDz/AG/SgDQ87/j3/WgCxDN5tAGxNmG1uMelB0BN++lxxjrQAkP+uH1NB0Fqb/Un6CgD+Zb/AIOEPB0/m/sz+P4IMW/9j694LvB/143thf8A/t9fUHOfzbalD52q288H/PnkUAYEMPk3/fipn8LMYfEj75+A83nfaLGCfn2715tToelT6no/xm8iz8EahP8A9Of4muin1Cp0Pk/9j+H+0v2zf2V4OLn7V+0h4N9v+ZnsK9KHwo82fxM/0QPO/wCW/wCO7/69YncZ97/y7f59aBS2Z/nj/wDBRT4Y2Pwf/bc/aY8D6Ubb+x7X4qXWtaPaWn/Lha67/wAT6xsv/J6ug4Zbs+N4P30vkT4OKBHuHwx00WeqW899/wAe+Pttn9koA/Tj4Y2f2y6t/s9jqVtcf8udKWzA/Tj4Y6bPFo1uZ4Ov+m9cVwy3Z0H2h+z1qf8Axd/w94c/5eLXR7rWvsn2P/pypAfpBN+5luB/0+elegc4f8tf8+tABP2/z60AY803+TQBz03+uP1FAFCft/n1oAz6AK9AFeab/JoAoTf6k/QUAY000HTvQBj3nr5/t0oAx5sf9u1AHPzYmi/cflQBz952g/SgDHvJoM/6/wCo70AY8/b/AD60AY83+q/5eenegDPrnAz5vP5oAz5u/wDx89vpQBXm7/8AHz2+lAGfP2/z60HQZ83/AC70Aekfv/8ASK6DnLEM37r8KANCH/nhigDoIZqANCH/AFv/AC7de1AHQw/6kfQ0AX4Meb+/xnHeg5zoIZvKoA6CH/0q/D6UAbEP/PDFAGxD/wBMPwx+lAGhD++/6eP0oA6CDv8A59KANiGGgDRh/wBSPoaDoL8P732oAP8All/y7/5FABQBYg7/AOfSucCxD+99qALA/wCWH4/0oA0If3vtQBof8sv8+lB0BQBoY/6YfrQdBXg7/wCfSgD8h/8Agth4JsfFf7D2seI5+NQ+HPxI0HxPZ3fr9v8A9A/9vqDnP4/tBs5721t54J/+fqzoA4DXrz+zdU8g/wDHva89elTL4WYw+JH1B8E9YsbPVLe+/tU/Z/8An0rzaieh6VPqe4fGzWIP+FfahPn/AI+a6IdQqdDw/wDYPs4Jv21/2VwP+XT9pDwb/wCpPp9elD4UebP4mf6EE/b/AD61idt0UJv9SfoKAbVmfw3f8FsPhVrnw9/b/wDix4q1WD/in/jJ4P8AC/xB8H3f2P8A5dbDRbDQb/8A8nNDvq6Dhe7PyH/cf6PBBP8AnQI94+GMN9NqlvYWP2i5/wBM/wBDFrZ8WFAH60eCYfO/4R+ef/SdQP8Ay6UnswP04+FdnPNa28/+jG3tf+Xv0rhluzoPoj9l3QfO+Odx4qgn+0291Z3Vlef6H1uvsV/Yf+2NID9SJ+3+fWvQOcz5v4fx/wCPSgAn7f59aAOfn7f59aAMib/Un6CgDOm/de9AGfQBn0AH/pLQBz8/b/PrQBnzcf8ATtjpQBjzf6o/8+9r+QoAx5+3+fWgDn5vP8r9/wBMdLSzoA5+aaeb9x/x7d/agDHm/wCeGKAMf/Vf5zmgDPmm/wAmgCvXOBjzevn23X8aAK83732oAz/+WX+fSgDPnz5X7jOM9qDoMc/663oA9QroOcsw/wCpH0NAGxD/AKkfQ0Aa8Hf/AD6UAaEHf/PpQc50EM2Yrfp79qANiHH/AG7UAbFn5/8Ao/X3uxQBsQ/vosc560AbEM1AGxB3/wA+lAHQQ8f9O2OtAGxB3/z6UHQbEHf/AD6UAaFAFigCx/y1/wA+tABB3/z6UAH/AKVUAaEP/Lt+NAFiH/l2/GucC/D/AK4fU0AaP7gxXH7/ABkflQdAf8+0/wCgoAsf8tf8+tAFnmGH3H4UnswPi7/god4D1X4kfsPftM+B/DkH2nWLr4b/APCTaPadf+QFe6fr3/tjXLHdnZNJWsfwzfBmaDUv+Eg0mf8A4/7a8+2/9utejD4UebP4mL42+G/iPw3rNxqv9hXOpeH7n/l7tLP+0qJ/Cwh8SPUPhv4J8AXml/2rY31z9v8A+Xy0+2V5tToelT6mh8YLy+g8L/2V5/2m36WddgVOhn/sBTA/tpfsrz+n7SHg36f8hrT6DzZ/Ez/QQP8Ay3/D+tBN2UJv9SfoKB3Z/M9/wcXTaH/Y37K9j5H/ABVFqPGV7wOml/8AEg/9vK6DmP5X4Yf3v40AfQHwf1K+s9et/wCyvs32j/n1u+dMv6DoP2Y+Huj2OvRaPfat4c1LTbj/AKhN5jTKAP04+Huj6Vpvhwz2MH2n/Q/+Xviuc6D2j9iGz1W817zxBqVtb/2zqnxBvLS7/wCQnYWv2L7BY2VAH6Yz/wCt5/4+Mf8A666DnM7/AD/plAFebzx/07XGce1AGOP9dcUAY8/b/PrQBjzf9N/xz+tAGf8A6R/y360HOVx/yw/H+lAFef8A1vkZA4/OgDGm/wBVP9P60AZE03k/8t6AMe8/1w/9s+lAHPzTf5NB0HPyzf8APD6ZzQBjz9v8+tAGfef630/7fKAMeft/n1oAz5pv8mgDP/cf8sP+PiucDPm/6bj24s6AK82f+3mg6DPn7f59aAMeX99F/qPtPtQBnTf623/fk/rQB6j/AM/H/Ht2+tdBzliGb91+FAGhB3/z6UAbEHf/AD6UAbEHf/PpQc5sQ/xfh/x90AbEHf8Az6UAbEPP/TznrQB0Fn2/GgDYh7Qj8PtdAGxDNP5v1/GgDoIf+mH4Y/SgDYg7/wCfSg6DYg7/AOfSgDQg7/59KALEP/Xf36UAWKALH7r/ADigCv5PXz6ALFAGhB3/AM+lc4GhB3/z6UAaHn+36UHQH7+X/n2z+lAFiGagCxD/AM8MUpbMCvNFYzfaIL6D7Tb3Nn9ivLTvf2tcsd2dlTof59/7Znwfm/Zj/bI+OHgfw5OLbTtB8eXV94btLT/n1vv9PsP/AEur0YfCjzZ/Ez6A+BvxUg8VfZ/B3jHStNtbi1s/tuP+f+ifwsIfEj0jx54I+Fem6pp/irQ/9G1j/qXv+JZXnTT0PTpp66Hw/wDHLXoB9ogt/wDj3Bz/AKXXWKp0ND9gKH7Z+2T+zP8Av8/Zf2j/AAb/AOpPYUHmz+Jn+gxQSV/J/df5xQB/I9/wcXaxfT/tGfAfw59oP9n6X8B7rWvb/TvE+of/ACDY10HOfzsUAdT4bvJ9Nv7eeD/R/stB0H7r/sl+MNd8VWun2M/9m/6LZ/bf+PzmgD9mPBNnbzWFvY/8vF1/0+VznQfQH7GfjbSvGF1+0BY/2Vc23iDwH8SP+EYvNWtLMf2Zr2l/Yv8AQP8A2+oA+0P9H/5b9K6DnM+ab/pv/wBuh/GgDPm/64e3WgDHmm/dfhQBj+bN6/rQBj0AV/Onhl8i4gyaDnM+bz/K/wA49qAK803+TQBj3v8Ay8f89/8A9dAGPNN537jj19KAMe87/hQBjzeRNj6emM0HQc/eenn+/wDx+UAY8/b/AD60AY88/UT/AM6AM+ft/n1oAx5vI5oArzTT9O1c4Gf/ANMIPpwaAM+ab/JoOgz5v3XvQBnzTf5NAGPN/wAu9AHrE3/Lz+FdBzliHj/p2x1oA0Icf9u1AGzD0/cf6+gDXil87/r4/SgDYhm/dfhQBsQf6rn/AI+M/wD66ANiGb/pvbZoA2LPvB+lBznQw/6kfQ0Aa8P76LHOetAGxDj/ALdqAOgg7/59KANCDv8A59KANiH/AJ4YoOgsf63/ADjFAFigA/8AAigCx/o/nf8ATxj8KALHn+36UATw/wCuH1Nc4GjB3/z6UAaEP/Xf36UHQWKADP8A03/SgApS2YFj/lr/AJ9a5Y7s7KnQ/gP/AG6vEnirxJ+3h+2BfT2Nzc6xpfxs8UaL9ru7Pmw0vQr37BYf+Sf2GvRh8KPNn8TPnfwT4wg8K+LdH1XVf7Subj7H/wAun/L/AFRNCykmz74m0HzotPnsTc/2Bqll9upWR9FRrQUbM+N/jxo89nf/AGDHuawOKrq7n0R/wSv8E/8ACVft1/sz+HLjra+PP+E0+1/Y+v8AYWi6hr3/ALY0HmT+Jn94E0P7r8K6CTPmm/dfhQB/HP8A8HC2vQTfth/Dexn/AOXX9m/S/sfP/Uz+Lq6DnPwP8qb0/SgDQsvP/D3rnOg+8P2XfiR4y03xHo+lW+q232f7Z9i+1nrQB/Tx8GdS/tKLT5/P+0/arOuc6D7Y/Zp1jwPLYfEDSvDn/Et1jS/GGPGGk/2Pe6bqZuvsX2D7b/pf/Ln/AKD/AMf3/HlQB9IQ+R5v+c+9dBzhN2xP9p5oAyJ8+VcY/wCPjPFAHPTZ/wC3mgDPn7f59aAMfyPf9aAK/E47/aM/iKAM+b9zLnjHSgDPvIf3X7jue9BzmP5373/OaAM+8hHldv5UAY83/PDFAGNN/rj9RQdBgTf88P8ASftHr1oA5+b/AJ4YoAz5s/8AbzQBnz9v8+tAGPN5/NAGfP8A+BNv6YrnAz5v3vtQBXn7f59aAM/97/nNAGRN/qT9BQdBnTH/AI9/3/6UAesTf8vP4V0HOWLP99+44yaALEPeCD88UAbFl/y7ef8AhQBsQd/8+lAGxDN5tAGxB3/z6UAdBD+99qANCyn/AOWH5f0oOc6iDv8A59KANiDv/n0oA2LObvQBsQd/8+lAGxD/ANN/xx+tAGh53/LeceuKDoNCH/rv79KALH/pVQAeR7/rQBY/6+P+Bf5/OgCx/rf84xQBY87/AKb/AOfyrnAsQzUAaEP/AC7fjQdBoef7fpQAecYYv+PigA/6+P8AgX+fzpPZgJD/AK4fU1yx3Z2VOh/Ex/wWY02x+GP/AAUt+IN95H2bR/i14C0HxpeZ/wCfr7F9g+2/+SNejD4UebP4mfnP4bvJ/t9tqulW+m/2ha/6F9k1b/l/qga5dUz7I8K/FrSobq3g8ca5baJcWv8Ax+Wl3eXv/pD9joEq8k0kzh/jxoPhyHRoPGNj4j/tL+1Ly1sv+3Wuc9GclZan1x/wQl8Kz+JP28NP8R309z9n+HPw317xPo9p9j5/06y/sH/2+oPPn8TP7SJof8mugkxrz/VD6H+ZoA/nY/4L2/sx6V48+C3h/wDahsf9F8YfBH7L4L1j/Q/+Q9oOu3v/ALYXl9/5UK3unsc5/JPD+99qYGhZw+T0nFc50HuHwfmNn4o0++/5d7W8+3elAH9M/wCx/wCPDef8I/Y30/NreWtc50XT2PWf2D9ZvtY/br/agsdD/wCEb/sD/hA/tvjD7LZ3um6n/alhe6BYWH26++2f6X/of9uf9eX2+gD9qJofJP7/AJ/lXQc5nz/63z8A8flQBj3nr5/t0oAwJun7j/UUAZ83+pP0FAGd/rv3HrQBnzf8u9AFegDPm/cf9PGPXmg5zn5ulx+//wCPrpaYoAx5pv8AJoAx7zv+FAGPN/D+P/H3QdBjzf6rp9poA5+byM3EEE9tQBnzTT8wf8vH6UAY/wD07/pQBnzf88MUAZ82f+3mucDPn7f59aAM+b/Vfv8A0/4++9AGfP2/z60AUJvIz/y7defSg6DGm/5d6APWB/rriug88sQZ8r9/nGe9AGhDNP07UHQbEHbyPw+1UAbEHf8Az6UAbEH+q5/4+M//AK6ANiDv/n0oOc2Ie3/Hz3+lAHQQzUAbFn/zw/5d7X8aAOgg7/59KANiDv8A59KANiHyOKANiDv/AJ9KANCH/pv+OP1oOg0IJf8Alhj6A0AWPO/2v/JKgBPOuP8AnuKAFoAsUAWKALEHf/PpQBoQd/8APpXOdBof6r/Oc0AEHf8Az6UAFAB/y1/z60Uuh2VOh/n/AP8AwVc+NkHxy/4KCftEX1j9p/sfwbrH/CpNH/7lSy+wX/8A5Ofbq7ofCjzZ/Ez4ns9SnmFvBfd6o5T3Dwf4q8K6af8AipNVubm3tf8Aj00n/kJUAV9e+IWq/E660+xg0P8As3wv4Xu/+PSuWfwsuLfMf0Ef8EB/AV9Z/Gn9oDx//wAIt/xJtK+G2l6Lo/iwXn/P9e/b/sX2H/uB15s21ax2U9j+oC8mPm9/5V2GL3Zjz9v8+tAj8p/+CyWm+I5v+Cc/7RA8K2P9pXFrZ6De6xafY/7S/wCJXY+J9Av7+9/8A6KTehzn8I+j/vrW4nHpXdD4UB0EHf8Az6ViB94fsi+A9V+JGjfEjStDgtrnUNLs7XWrz7LZ/wDEzsLX/jw+2/8ApD/4MKAPtf8AZv8AjNfeG9Z0+CexubbUPC9na3us2nX/AEWx/wBAvqCoN8x/QV+wTr3wP8SaX8QNV+HPhXwlonxH8G3n/CMfEi7tPtup6nYfb737f/y9/wDLpf8A/H7/AKB/y+/baDtp7fefoPNN/k0GL3Zjzzf9N/ocflQIx/8Ap3/SgDPmm/dfhQBj+d+6uMDigCCb/Un6CgDOn7f59aAM+gDHvPI8ryJ58Z6c4oOcx5v9b/qO/egDHn7f59aAMe97n/ybFAGR5x83vc8d6DoOem8jyx06/wCmUAZ8x/dC372vf1oA5+bH/btQBXm/6Yfhn9KAMeb7PgeT+HpQBnn/AF1vXOBnz9v8+tAGfP2/z60AZ83/AE3/ABz+tAGfP2/z60HQY83/AC7/APHxQB6wf+W/4f1roPPLMI/ddsf8/dAF+Dv/AJ9KDoNiDv8A59KANiKbr5/0zmgDQh/cy44x1oA2IO/+fSg5zfh/1w+poA2YfImz9PXGaAOghmOe/wBooA2IO/8An0oA6Cz7fjQBoQd/8+lAGxB3/wA+lAGhDn/t5oOg0IO/+fSgDQoAKALGf+m/6UAFAFiGGgCxDD/x7/5+tAGhDMMdvs9c50Bj/ph+tAGhD+//AHGaAD/lr/n1oAIZvK/5YZopdDsqdD/MPm/tXXvFvjDxl4qn1P8AtnXvEl1rWsf2tZ/8TS/ur+9/0+u6Hwo82fxMr6lrE8NqfsMFtVHKdx8MfAfirxhFcarBBqVzp9refYry7tLP+06APoDQfAWq/DK6/ty+gubnwvdf6F4k/wBC/s0fZa5Zp8rKh8SP6uP+CIcOlab+zx8V/A9jPbXOoeF/jZdXpu/+f7S77RdP+w3v/pdZf9w+vNmnodtPY/ZiuwxluzPn7f59aBHD+PPh7ofxO8G+MPhz4qsftPhf4jeG9U8F+JLT/n/tb6y+wX1FLoc5/mrzeG5/BI8UeHNVuLb+2NB1i60W8+yd7qwruh8KA5+Dv/n0rED6g/ZX+P2rfs6/FrR/H9j9pudHuv8AimPGHh4n/kPaXf8A/H/ZUAfqx8bPAdj4D174b/te/CSf/hJPgf4yvPtt54htLP8A4lmg/b/9AvrK+/6//wDTqCofEj9QP+CSOj67oPjf9pifXILb7PdWeg2Vn4htP+Zttf8AT/sF7/4B31B209j9oLzv+FBi92Z//LL/AD6UCM+b/Vf8vPTvQBz03+uP1FAFCft/n1oAr/vf85oAz5v3vtQBn0AZ8/b/AD60HOc/NNmXyJ+uaAMeaH91+FAGRef6r6n/AI9KAMaaafzDAYDQdBjzfZ/9ePpQBnzfvfagDn5+3+fWgDPn7f59aAM+Yz8/uPwoAz65wM+ft/n1oAz5v+eGKAM+b9170AY8/b/PrQdBnzeRzQB6gP8AXXFdBzlj/ln5/wCnegDYh/6Yfhj9KANCHH/btQBsQ/8ATf8AHH60AbEP2f8A7d6ANiH977UHObFnNBMP1+yUAbEHf/PpQB0EHf8Az6UAdBB3/wA+lAGxB3/z6UAbEOf+3mgDYh/54YoA0IO/+fSg6Cx+9/zmgC/D1/cf6igCzDNQBY87yvx9qACDv/n0oA0PP9v0oAIfP4oA0P8Ap3/Suc6AoAsfvf8AOaAK/nfvf85pPZgHEM1uPPz7dq5Y7s7KnQ/zz/2/fDXhzwT+19+1B4V8D6rpupeF7X42a9/x52f9m6ZYXX237ffWX/bhef6F/wBw+vRh8KPNn8TPk+zhuLyLyB/o3rmqJPrj4PjxHo/g3yNDvv7St7q8N7eWgs//ALsoA7j+0tc1H/j+g+zW/wBs/wBN/wBC/wCP/wD7fq2qTVgP3o/4N9dH1zQbX9rix1XVf7b8P2v/AAgf/CN3f/Pha/8AFXf6DXnzmr7Af0Qed++/1H6+9UdBWm/1x+opPZgLZzeTdQeo4rljuznP87f9vDwH4O+Ff7XP7QHgDwB4pufG3h/wv48urH/hIbuz/s3U7+6/5frL/twvPt1l/wBuFejD4UB8j1QFiGbyqAP1X/YP/aWHwx0HxR8JPi3pX/Cbfsz/ABa/4kvxI+Ht3ef8TP8A6/dD/wCfS7sP9B/8F9AH9AP/AATf+DPjn4P/ABk+JFjB4j/4T/4H+KPhXa618N/iEb3/AJD1r9t/0D/Qf+XS8+x3199uoA/Xm8/1o+p/kaAMb/lr/n1oArzTT+Vjtbf560Ac/NDPj/j4/H7HQBnz9v8APrQBXn7f59aAM+ft/n1oAz5v3vtQBjyzf88PpnNAGPN/qv8Al5+0f8/eKAMeab99/qO9AHP3nGfI/wBJ+nGKAM68/wBb5HSgDAm/5eP5C8oAz5+3+fWgDHm/fRZ5z0oAzwfJ/cT/APHx3FAGfPL/AMsMfUUAZ/8Ay2/6ea5wM+b/AJefwoAz5v8Apv8Ajn9aAM+aH/pv9KAMfmaH3P40AZ8/b/PrQB6gfP8ANuMY9q6ALNn/AKryOlAF+H9zxn/SPegDYg7/AOfSgDQh4/6dsdaANiH/AJ4YoA2Ipuvn/TOaDnOgs5u9AGhDj/Uf8e3/AF90AbFp/wBPP60AdBDN5tAHQQd/8+lAGxB3/wA+lAGx/wAsv8+lAGhB3/z6UHQWIZqAND2/8laANA/663oAsUAH+t/zjFAFjzuvn0AWKANCHz/K8j+tc50Fj91/nFAFf/llif8A5df+POgAH+tHn/8AHxzSlswLEMP/AB8faP8Al1rljuzsqdD/ADT/AIqeJNc+IXxB+IHj/wAY/af+Eo8ZeMNU8T+Jftdn/Zo/tS+vft9/Xow+FHmz+JnP6Ro/9sS/YYPp9kqiT2/wT8PbG8it54L7xJ4b1C64s7u0oA7L+3vFXg+7/wCJ4Lbxb4fx9i/ta0/4lmp/Zf8Ap+rlqTaWoH9F/wDwQ9+LPgCa/wDjB8MtKvrY+INe0a18aWek3dne/wDCTm1sL37Bf/6d/wAeX2T/AInljXDObbsgP6CP+Wv+fWu9bI6AolswOP8AHnirSvAfgPxx4/12f7No/gPwfqnjTWLv/p1sLL7ffVyx3Zzn+aP428beI/iT4y8Y/EDxVff2l4o8ZeJLrxP4ku/+f+6v737ffV6MPhQHP1QB5/t+lAH2f+yvrt9puqf2VfaVpupeH9evP+PTVrP+0v7PoA/qJ/YJ1LXPCvxB8L+DrGf7T4H8UeG7q++yWl7/AMSzQdU/4/8A/jx/+QP+nKgD9gJ+3+fWgDPoArzQ+dLz/wCAlAGfN2/49en/AC+detAGRN/qT9BQBWn7f59aAMebH/btQBn3mPNt/wB/9e9AGPN5GLj/AI9v+nygDHm/54YoA5+98j8fagDPu5vJl/19tbW9AGPN5HMH/Lv0/OgDn5ph1g/0n0+2UAZ84/x+yCgDHnn6if8AnQBnTD973z/z90AUJpvO/cT/AGb7OP8Al760AZ3f9xP9p+l5gVzgUP3Pm/5zQBny+Tz/AM/HtQBjzef5v+c+9AGfP2/z60AZ83H/AE7Y6UAekD/XXFdBzmhDNnp/o1x1HvQBsQ/88MUAaEP/AEw/DH6UAbEP/PfNB0GhB3/z6UAbEP8A1w9utAGxB3/z6UAbMP8AqR9DQc5vwd/8+lAHQQ/9cPbrQBsQd/8APpQBsQ/uvegDQ8797/nNAF+H/VQfT+tAGjB3/wA+lAGh/wBe/wDwH/P5UHQWIO/+fSgCxQBY/wBb/nGKALH/AKVUAWIO/wDn0oAsed/yw/Hb/wDWrnAsQd/8+lABn/pv+lB0Fjyf3v8AnNKWzAsf6n/jx/4+PWuWO7Oyp0P86/8Abe8Lf8IH+1f+0h4V8j7MdL+PHiiys/8Ar1/trUPsNejD4UebP4mfP/gi8gs9e0+fz/8AR/tn2Lr0qiT6g8Vefpstvqtj/pNva3lre2d3aXn9m6nQATeJNK8SS+fP/Zum3GqWf2K8+1/8S3H/AF41znQfrB/wRP8A9D/bS0/SoDbW1vqnwr16y+yd/wDlwv8A/wBsaVl2A/rQm8/mmc5XP778Ov2SlLZgfJ/7dWp3Gj/sUftYX0EBubj/AIZv8ZWXXp9v0XULCuWO7A/zn7OYeV2/lXow+FAbH7j/AEeqAgm/4+vxH/H39aAPqD4AXn9m+KNP/wCXn/TP+PT7ZXOB/V/+wfeT694o8DzwQfZvstldXt59ks/7M0y//wBCoA/Xi9n/AOWH5/1roAz/APp3/SgCvNMMfuP+Pkf9OfFAGfP2/wA+tAGfN2EE/tnNAGfP2/z60AZ03+qn+n9aAMib9zFcDt9KAM+ft/n1oA5+aafzfp+FAGPPnyv3GcZ7UAc/QBn3kPnfhQBgTf6k/QUAZ0/b/PrQBjzf9N/xz+tAGP8A9O/6UAV5v+uHt1oAzxP5P2f0Fc4GPP2/z60AZ83/ADwxQBnz9v8APrQBQm/1J+goOgxp+3+fWgD1Dzv+Pj9K6DzzQs/3PTv/AEoA0IO/+fSgDYg7/wCfSgDYg7/59KDoLEPkf8t5xg0AbEPn8UAdBaf9O360AbEHf/PpQc50Fn5H+o7fzoA2IO/+fSgDYg7/AOfSgDYhmoA2IO/+fSgCxQBoQd/8+lAGhB3/AM+lB0GhD+99qALEHf8Az6UATw/64fU0AWaANCDv/n0oAsQd/wDPpXOBYoAP3v8AnNB0B1/6ef0pS2YGh5Hv+tcsd2dlTofwL/8ABW7R/wDhG/8AgoT+0hY+R9mt7rxha+J//A/RdPv/AP2+r0YfCjzZ/Ez854ZvJ+zz/wDPr6mqJPpjQfEn9paPb/aP9J+y/wDH5aXfU0AULyGeztfPg/0nTrTt0+wVznQfqP8A8EcvGHk/t/8AwPg4+z6pZ69ZWnr/AMixr9AH9lH7iH0HH1xQc4QdvP8Ax+1UpbMD4/8A+Ch3/JjP7WHnwfaf+LD690/68q5Y7sD/ADprP/VH6D+Yr0YfCgNnR4Z5r+38j/j4tf8AIqgNC8+3TXVx5/8A+qgD6A+CcPk69b/uB/x+Vzgf1cf8Ex5p9Y8W/v8A7T/xK/hXdXtn/wCBthQB+zPM0PufxroAzpvI5oAz5v8Apv8Ajn9aAMebyOaAM+b/AKb/AI5/WgDPn7f59aAM+b/rh7daAMab/XH6igDIvO/4UAY832fzf+nj9KAOfvIZ4f3/APy8UAZ8/b/PrQBz95/02x9nx/WgDIm6fv8A/X0AY0x8nrODQBj/APLX/PrQBnz9v8+tAGfNN/k0AZ/k/vf+neucDHmm/wC3n075oAz5v+XegChP/ref+PjH/wCugDOnm/4+IKDoM+Y/8e/7/wDSgD0jz/3tx/z8+15XQeeaEOfK88/X7JQBsQd/8+lB0GhDLPMfTPWgDYhmoA0IO/8An0oA2IO/+fSg5zYg7/59KAOghEHH7/8AGgDYhmg/57/6TQB0FnMfN7/zoA2IO/8An0oA2IO/+fSgDQg7/wCfSgDQh/cf6/8AGg6DQgn6CD+dAGh/1x+zdOPSgDQoAsQ/88MUAWPP9v0oAsQd/wDPpXOBoQw0AX4f9cPqaDoFoAP/AEloA0PI9/1pS2YFiGGuWO7Oyp0P4h/+C9vhv+wf2/vFGuf8u/jL4b+F/E+B/wBeX9g/+2NejD4UebP4mfiv5/t+lUSe4eD5vOtbeeD7L9otf+fygDQs7yeH7R0+zfY/9MtLv/l/rnA/SH/gj/D/AMbCf2d/+5o/0Qdv+KL1+gD+3+aH/j4/z9K5zoCGH91+FAHxP/wUgm+x/sFftYz+fbf8kT1T6VnT6hV0vY/zn7OY+VcV6UPhRwz+Jmxpt4Ib+3n/AAqjY9I8n7ZFbeRPg/bPXrQB9MfDfTfJutI8j/j41T7V/wCAtc4H9QH/AASps4LzxJ4gP+k/8Sv4bfYsXf8A1+6fQB+yH/LL/PpXQBn+R7/rQBnzQ/vfxoAz5+3+fWgDHn7f59aAM+ft/n1oAx5+3+fWgDPm/fRZ5z0oAx7v/p5oAx5jB/qIPTmgDHmm87n1H/H5QBz8wgh/6+PyoAz7yYQ/uJ8H68UAc/Njyrj9x9l/6e/sdAGPe+R/183H/X5QBjzf60n/AEa5t/50AY83f/j27fWgCvN5E2Pp6YzQBkZnnlyP/As8iucDOm8jmgDPm/54YtuOvegDPn7f59aAM+b97Fjj7RQdBnzf8u9AHoH+t+057/rXQeeaFnN5P/XxQBsQzUHQbEHf/PpQBoQd/wDPpQBoQzDHb7PQBsQd/wDPpQc50EE/QQfzoA2IZvOlBoA2Yf8AUj6GgDfg7/59KANiGagDYg7/AOfSgDXh/wBcPqaANGDv/n0oOg0IO/8An0oA0P3Plf5xQBYh/wCeGKANCDv/AJ9KALMPn+b5EGOnfrQBfg7/AOfSucDQh+0ZPnfj60AWKDoLPM0PufxoAreT5X4+9AGx/wAsv8+lKWzAseT+6/ziuWO7OybTtY/j3/4OLdB+x/tQfBfXP+gp+z3a2X/gD4n1/wD+Tq9GHwo82fxM/nPmm/e/jVEnp/g/Up7OK34/cUAbNpqcE1/cDyLb7P197D/j/rnswP1I/wCCRepf8bFP2f8Azx/y+69Zf6J/0/eC9foA/uImh/e/jXOdBXoA/Pf/AIKuXn2L/gnR+1hPz/yIdrZen/H9rWn2FZ0+oVep/nkQjyYbgdcV6UPhRwz+Jk/n+36VRsekeA7yD+0BBOfrzQB+lHwl8H32s6XcX0EH/ICs/sX2q0s/+f8ArnA/pQ/4JjabY2eofEieCDP2Xwfpdl/6X/8AyDQB+pE037n/AFHaugCufP8AK/cenGaAM+b/AFv+o796AMebyOaAMeft/n1oAz5v+m/45/WgDHn7f59aAMebz+aAMeft/n1oAz5v3UuOfs9AHPzfuftE/JwKAM/3/wDJqgDHmzN+4/4+f1NAHPzfZ8Dyfw9KAM+aE57/AGigDn5of+mFzj9aAMfPTyD7/wDH5QBXm9PIuen4UAY84/x+yCucDPm/6b/jn9aAKE3+pP0FAFaft/n1oAxpuv7j/X0HQUPI9/1oA9Ag7/59K6DnNGH/AFI+hoAvwzf/AF/shoA2IO/+fSgDQhz/ANvNBzmxDx/07Y60AbEMwx2+z0AbEHf/AD6UAbEPb/j57/SgDYhmoA6CKbr5/wBM5oA2IO/+fSgDZh/1I+hoA14ZqANj2/8AJWg6DQoA0IfP69vX7H1oAsQzfuvwoAsUAX5v9cfqKANGDv8A59K5wLFAGhD/AMu3/PCg6Cxnn/j3/wBI+nNACw/6kfQ0ATw5/wC3mlLZgaH/ACy/z6Vyx3YH8n//AAcpab5PjL9lfxH5OTdeD/FGifa/+vC9sL//ANvq9GHwoD+Xe8m71RznceG/+PDz/I+0/XjFAGgJp4b/AM//AJ+j/wBxOtZJcoH68f8ABJ37PD+3/wDs/wB9BBz/AMJ5df8AqMX9cVXqB/chN+6965zoK9J7MD87/wDgrRZz3n/BNj9riCx/4+P+ED0u947/AGDxPoFc9L42FXqf531n/qj9B/MV71H4F8zhn8TF8/2/Ss3uyTqPCup+Tf2/U/yqXswP3A/Yz1j+2LA6F5H2a4tR/pnH9pf6LXDLdnoH78f8EwbOeD/heH/Hr9ntbzS7Kz5/7CFID9QJf30XkV0HOVz/AKr/AEie2/EUAZF5/rbb/n3xzQBjXkI8rt/KgDH8/wBv0roAx5vs+B5P4elAGfNN/k0AY82P+3agDHn7f59aAM+b9/8AuM0Ac/NN+9PS5uBQBnzf9N/xz+tAGPN3E9x+tBznP3f/AE7UAY800+fI5oOgx5+3+fWgDHm/54YoAz5+3+fWgDPm8/mgDPn7fZ/w+10AZ/ne3t9rzXOdBnzQ/wCTQBnzH90fP/4984+10AZ8/wDy7eR7YxQB3H/PzB+proOc2IZoPK8jvQBoQ8/9POetAGhB3/z6UAbEM1BzmhBP53B/496ANiKbr5/0zmgDYhm/69qANiGY57/aKAOghmoA0LPt9n5+1f8AL3igDoIf+Xb8aAOgs8eV/r/6UAbEM1AGhAf8PtZoOg2IZvK/59uPUUAWOf8Alv8A8e/agCxB3/z6UAaMP+pH0NAF+GagDQg7/wCfSucDQg7/AOfSgA/ceb3/ANGP4ig6CxjyZf3/ANOtAFiDv/n0oAsQd/8APpSezA0Yf9SPoa5Y7sD+bb/g5G8Bz6l8Jf2V/HEEH+j6F488UeC7y7/6etdstPv7H/0x31ejD4UB/Hdef63yOlUc5Z0fxJcaP/qOaAPSNN1iy8Sapp0H+k21x+tbT+FgfqR/wTl8YQeD/wBub9m+aee3tv7U+MGl6KB/2Hb3+wf/AG+rhq9QP70J+3+fWuc6DPg7/wCfSk9mB4f+1f8ADz/han7Kv7THw5+w/wBp6h4y/Z68ZaLo9pj/AJin9i6h9g/8nPsNc9L42FXqf5j0P+qx2tfzr3qPwL5nDP4mLND+6/Cs3uySvo955N/b/wA6l7MD9yP2CbyDzdYv4NVuebO1vbPSbQ4rhluz0D+mD/gmzZwTfDT4seI4P+PjVPjBdaL/ANutjZaf9g/9Lr6kB+hE3/Tf8c/rXQc5n/8ALP8Af468etAGPeTf9e1AGPN53+j+tAFCb/Un6CugDGvO/wCFAGPQBjzDzv8AUfZrkmgDHmmH/Tt6j7X3oAz5+3+fWgDn5v8AnhB9moAz5vI8oQQUAY8037238jra/pQc5z9508j/AJeP+nTigDHm/fcT/ZqDoMeab/JoAz5u/wDx7dvrQBkecP8Ap2/I0AZ003m/8+3PoKAM+gDPm8jmuc6Cv/qv85zQBjzfZ/K/6eP1oAz5s+bb/wDLtigDsD/y3/D+tdB55oQzUAbEM1AGxD5HFAGhBjzf3+M470HQaEOP+3agDYg7/wCfSg5zoIO/+fSgDYs/3P8Az7c0AbEP732oA2IO/wDn0oA2If8Arv7f8flAGxDNQB0EHf8Az6UAaEHf/PpQBoef7fpQBoQzUAWPNh9f1oA0IZqDoNDzv+PcT/TIoAsed18+gDQhm/6b/U4/OgDR4/6+bc/jigBPPP8Az2tfyNAFj/r3/wCA/wCfyrnOg0IZv+3b17YoA0IZp+5+zcUAflf/AMFsPhLP8Tv+Cc/xY1yxg+06x8EfEml/GjRv+3C9+wX/AP5SL6+oA/in8H/BPSvjZ4cuPGPhy+tdNNpeY1i0u/8Alwuq6DnOH174G32gy3HnwXP+i/8APpZ5zQAeA/BP9m3Vxqs/2n7Pa/av+obQB3Gg+MNc8B/Evwv440P/AEbWPC+s2vjTR7v/AKerD/T7GlLZgf6VFnqWla9pej+I9Dv7bUtH17R7XWtHu/8AmGX9rf8A/Hje1wvdnQWP+Wv+fWkBoaP5F5qlvYzf8e91/oV5WdPqFXqf5Z/iTwr/AMIrqniDSr/m40vWLrRvb/QL2vSh8KOGfxM5+GGDr3qiTHvIYPt/nwd+tAH7YfsxwwfCX4N2/iq+gH/CQePPsv2P/mJabp9r/wBeP/T/AF5uL3PQP6cP+CUem+T+xH8N77z/APSNe8SeKL28H/cz6hYf+2NGE1kr/wBbgffBm/5YT/QV1HOZ83/Lz+FAGfP2/wA+tAGfLN/zw+mc0AY8/wDy8T4roAz55v8Apv8AQ4/KgDn5vI5oAz7zHlf6/wDrQBjzf88P+PbNAGRN0/cf6igDGm8+aL9+OnNAGPP/AKrj/j4z/wDqoAz5v9b5H/gZQBz8/b/PrQBz80Pm/wDLfFAGfN/0w/DP6UAY83/PDFAGfP2/z60AZ80P+TQBn/8ApVQBnzd/+Pnt9K5wMeft/n1oAgm/1J+goOgxpj/x7/v/ANKAOo8791cYHFdB55oQ3g8q3/8A1UAaEM1AHQQ3lAFiG8oOg2IL3/nv+eaANiG8oOc6CGagC/Def9N/9Hz+FAHQwzf9N/qcfnQBsQzQdO9AHQWc3egDYhl/49zzcen+mUAbEM3/AEw9c0AaEM3m0AbEM1AFjzv+Pf8Af+mf60AWPO838PagCxDNQdBoQzQdz9p5oA0PP9v0oA0IZqALHnf9N/s2PegCx5/t+lAGh53m/h7VznQWPO6+fQBoQ+RxQAeJPDfhz4heEvGHw58Y2P8Aafg/4jeD9U+H3iS0u/8Al+0vXbL7BfUAf5m80Pjj9j/4+/Fj4Sa5P9p/4Q3x5qnw+8YWn/P/APYL37B9troOc+mPGHiqx17wvp8+hz23/E0/032+y0AeD/Ecar4V1C30ryLm50+10f8Atr/RP+X+1+xUAef6PqV9eaz5+rWNzolxc6P9t+yXdJ7MD/Q4/wCCePiT/hKv2FP2R9V/5eP+FD+F9F/8EVj/AGD/AO2NcLTuzoPsCab/ACaVmAWd5BZ3Qvp/9Gt7b/TbyognqFVrU/y3/iF4pt/FXi3xBrkH+jW+qaxdXp9/t17Xow+FHDP4mcPNeHyv3HPNUSfQHwZ+D/8AwlWqeH/Efj/+0/BPw3ur26/4qzVrP/iWa99h/wCYLof2v/Qru7oA/Qj9nvx54b+J1r8SP7cnuba38L/8SXwf4TtPsf8AaYtf+Jf/AO3lebi07noH9UH/AASp1K3vP2JPh/Y/aLb+0PC/jDxRousf9OF1/wAJPqF//wCkd9Y0YTSSv/W4H3heXnnf1PpXUc5jzTY/cf8AHz/SgDPmm/49/wCeKAM+ab/j48g/XigDHnm/6b/Q4/KugDHmm/7dvTtigDGmmnm/cfr1oAyL2b91z/x79+1AGfNec+ef9JH60AZ/n+36UAc/Nef89/8ARvtX5CgDPmmuP9RB0/5+80AY8037ryIPtPTm77UAY95NAP8Alv8A6R39qAMeaafp2oAx5phjt9noAz5pv8mgDPmm/wAmgDHmmn6dqAM+ab/r2oAz5+3+fWucDPmm/wAmgDPmm/yaDoMeft/n1oAsf2xB5txb+f8AlXoHnliHU++PwoA2IdYg878eMd65wNiHUoP+e/WgDYh1iAy/6/6Gg6DQh1KD/nv1oA0LPXuhuB/4F0AdRDrGYvP8gUAbFnrGZe9AGxDqf/Tc4/P+z6AOgs9S7efQc5sWepfQ2/SgDoIb2H/nv7fa8UAdBDd9vP8AbP2z86ANiGagDQhmoAsQ3lB0GhDNQBYhm/fY8/7LQBY87yvx9qANCGagDQhm/wCWE9AE/wBsP/PC5/SgDR8/2/SgA8/2/Sg6DQ8/2/SgA+2fvenP6UHOWP7Sm/570Af58/8AwVo8YeFfEn/BQ79pjVfCtvbW1vbeMbXRdY+yf9BSw0XT7DXf/JyxvqDnPjfwH4w8m/0bw5qviP8A4RLwfql5/wATjVvsf9pf2BQB+qHgnwf4O1jw5o99P4j8JeNtHtf+PP4haRZ/2l/x410AfJ/xC8KeHP7e1DxH/wATK51D/j9vNW1b/p/vaAP7cP8AglTrFjr3/BPH9mefSr621K3tfDeqaLeXdpef8vVh4n1+w/8AbGuayOg+8Jpv8miyA/Of/gqt+0tY/s0/sM/GjxV/pP8AwkHjzw3dfBfwf/2FNdsr+w/8kLP7de/9uFFkYXb3P87fzv3X+cUxFe816+htfIg0of8AX3aV0AfRPwT/AGwPH/wki/sO40rw342+G+p/8jJ8PfFmj/2l4Z161/8Akz/p9oA+3/hXpvgDxtr2j+P/ANnPxVpmiaf4ys/sXxI+DnjfV/7S8c+AvsP+n3//AAiv/Hp/atp9j/5/65Zpcp1Q+I/qI/4JU69Y6P8ABb4keB9K8VW3j/SNB+JH/CUeG/Flpo//AAjZv9L13RdP/wCXH7Zd/ZLv7ZY65Xmz6Hox2Z+kE14J5a7DzZbsz5rzEVx5Hb8M0CK/9pf9MP0oAx/PvfT9KAM+aafp2oAx7yafp2zQBjzXnrB9DXQBnzTf8e/88UAY8156wfQ0AZ803m0AY88080v+o+lAGfNMf+W/2nj3oAx5pv8AJoAx5pvK/cQf/WNAGPNN5P7j/SqAMeabzvtB/wCXf/rz60AZ/wBs/wCPb7P+WaAM+ab91jyP9I7mgDPm/wCm49uLOucDPm/6b/jn9aAM+ft/n1oOgz5v+uHt1oAx5pv3X4UAZ800/TtQB5Obz97+/wDtOPevQPPNiz1Lt59AGxDrEHEGR/4GVzgdBDqX/Tf2AFAGxZ3kH/Pf/j0/Wg6DoIbzzvb8qANiG8oA6CG8gz3+lAGxDefuvagDoLO8/wA//WoA6CzvPSf8DQc50EN5QBsQ3n733oA6izm/6b/570AbEN5++/1H59aANiGagDYhn7QXHtig6DYhm/6YeuaAD7Z7/wDjtAGhDN50oNAGxD5/FAFiH/rh7daANCGagCx0/wBR/pPrQBYhHk9IAaDoD/Vf5zmgCwf/AAG/6+6DnLGZv+fegD/Mg/a6s9W8K/tcftL6H4knOpa/oPx48UaNq92f+X+6sdavwT+lGpznj39sfbD9hsLHUrm5/wCfS0s/7SoA9J+H3gr48abrNveeCNK8V+Eri4/0q8/tT7X4b0u/5Pe66/Wui6ewH2fo8Piq80HWNK8R2Ntrdv8A8xj/AIR7WP7S1Ow/5/v+PugD9+P+CAP7Qn2O/wD2gP2SZ7651vQNB/4vr8ONWu7P+zfsH2/7BoOu2X/H5/2A73/wNrnOg/pImm/yaAPzA/4LDfAbxH+0J+wL8YPDnhWDUtS8UeA/svxb0fSbO8/4/wD+wv8Aj+/6+/8AiUfbv+32g5z/AD5odOg/5fvtNz9O9AHYeG/CsGvXX/Ej/tLTvf7H/aWmV0Ae4aboHgfyv7L8Y+HPhv42uLWz+xf8JD8MvHn9m+ObD/p9+w/8eV3QB9gfsl+A/gt4V8Y2/wARvFWq63pun+F/st74P+yXd5/an9qf9P1jaf8AHp9gxff+SX/H5XLL4Tqh8R/Ux/wTlm8K6loPxQvvh/4VGieF/tmg2P2u0s/7N0y/uvsV/f8A/Hj/ANed9Y3v/cQsq82onoehFqzP0QvceafIrsPOluzP/wDSqgRX8j3/AFoAz5vIh/1//HvQBnTQ8f6gfZ/0FAFCb/l5/CgDH87zv+nnH4f5/wDrV0AY83f/AI9u31oAz5of8mgDOm/1x+ooAozQwf8ALD7N9px/z+UAY00H/LAfyoAx5oZ/9fAMZ9aAOfvIfP8AtGYKAMeaHEX7+gDPmh/yaAM+aH/JoAz54f8Aph9Bn8qAK80P+TXOBjzQ/wCTQBnzQ/5NB0GfND/k0AY80P8Ak0AY/ke/60AfF8PiS+83/X+wGeldB55of8JVPCfP/wBJ/lj/ADxQB0Fn48nz/qLr2vKDoOgh8bT/APLc3PT04FAGxZ+PJ+PI+00AdRpvxDP/AD73P/b3QBsWfxCg6eR/h7UAdBZ/Eix6Tzm25oA6iH4g2Xlef59tntQB0Fn42sc28Hn23FAHY2fjCCbrP2/OgDr7PxVB/o37+3oA2IfEkGAIJ6AOws/EnrP/AJ6UAdBZ69B/z3oA2LPWDN/y3PTk0AdBDqX/AB7Qef7UAbEOpQf89+tAGhDeQZ/19tQB0MF5B5vvQBr/ANpQf8sP+Pc0AaEOpQf6jjp6UAaEN5Bnv9KANCaWeE+uOlABDewQ/v58f9uh5oOg0Ibzzv38EH2b+dAB53/LfyPxoOcsedPDL+4/nQB/JH/wU/8A+CO/xc8YftTfG79p7wdf+E9M+A/jHSD8T9Yuxd48TaFr39i/6fZGy6n7feWX237b0H28/wDPqa2qVEkYwg2z5U/ZR/4Jn+OfEl9q8sGueI9S8PWlpa+KfEfh7/hLrvwT4I/ss+GNP8W/bdd120s7s2v/AB+/YsGz4vc/8+hrgnUVzujT90/dj4Y/8Ehv2SfjnrOseFdV/ZJHwl0fSrPS73V/ixpH7Zd5410zUP8ATrD/AEKx+1f8/wD9hvrL/jz/AOf3/l8ohU1OJwld6H4bf8FFf+Cdeq/8E+Pjnb+ANE8O+LrY3Pg//hZvwr+IXhTWLPTtUGg3328f8Tz/AEP/AJC9heWN9Y/6B9j+22X+l/6F9r+xV3wqJrcXJI/bj/gj/wD8E8fiN+zrdax+1D8d9Vubb4kfFr4b2ui+G/h7eWf9m6n4T0u+vbC/+265/wBRe/8AsNj/AKD/AMuX/L5/pn+hWWIckj92PP8Ab9KA5JGfe3k/kzwQf6NQSfyb/wDBW7/gnx+yh8B9U8H/ABo+EljbeEtX+LPiS6Or/Bv7b/xK9P8AsP8Ax/63odj/AMulp9svrH/Qf9Msv9P/AND+x/8AHlQB83/sH+K/2evhj8RvD/8AwsbStS0PR9U1i1/tjxZ4e8YXngnU9B+wXv2+xvft1pXQB/Wh4b/be+BH7SHjfR/AGq65+xz+1Xb6p9lsv+ET+IXg/wANeJNT17/rxvrT7X/04/8ALnQBsfEj9j/9knUrrX7Gw/Zs+BWm2+vaxda14w+1/CrRh9v+3/8AH9ZWN99j+26VZ/8AHj9h+wXn+hf2f9kqZ/CdB2HhXwf4H+G3hzT/AAd8MvAHhvwB4Q0v/kD+HvCej/2dplhXDV6juyx9j48if/l65HHNAivND5//AE7A98cmgDPm/wCmH4Z/SugCvND5tAGfN/0w+zXPGRQBz82P+3agDPu4TPnE/wBmoAz5of3v40AZ/lTen6UAZ83+tt/896AMeft/n1oAz5v3P7//AI+f+vSgDPm7/wDLz/z6UAc/eRT8+fYd/wDPNAGPND50Xn4/0j8sUAZH/LXHkW31/SgDGmhOe/2igCCYT9J4Mg96AM6aHyf3/Hp60AZ80P8Ak0AZ80P+TXOdBjzQ+b/z88+hoAx5of3X4VzgZ80P+TQB8L/2lYzdILkV6B54TeR3g+zfSgDQh1IQS48j3oOgP7S/e2/H2k/lQBsQ6kPO/wBRc9aAND+0+P8Ap3/59M84oAsG886Lz5/9K98UAaEN5YwxfuJx+XSgDQh1iD/nhc5x/wAfdAGhZ+KoLPj/AEn/AEqgDYh8VQTS/wDH9/SgDoNO8bQQxf8AIVz+hoA6i0+IVvD/AK++trrP40AdhZ/FSCH7P+/tvx4oA7Cz+J0Al/4/u1AHQWfxUg/5/rb69qAOwsvidB5tv/p1AHUQ/Eixmi/19sT19aANiz8eW8svkT33SgDsLPxhBN/y/e3/AB+UAdhZ+JLGYGD7d783lAHQWevWOMef7/8AH5QBsWevWPXz7bpQBsQ6lB/o/wC/9f1oA2Ibyx80Hz/Wg6DQhmgz/r+P1oA0IbyDyf8AX/ac/wDLpQc5swzWPTNt9nx+NAHHeNofDniTw54g8Oa5oX9t+H9U0e6sdY0n7H/aX2+1vv8Aj+sq5alRpanVTppvQ/lX+LXjDwB8MfjJo8Hwr8K23wT1m11i10T+yfD2seJv+FmeErq+svsFh9u1zVbz7b/p9nY33+g/8eX/AF+159Sqr2O+FJ8rZ+6HgP8Abq+O/wAMPBHw/g0PVf8AhNre1+y2X/CEeLPgP/aWp2H/AC4WH/E88P8A2Oy+yf8AT99j/wDAOinUOB0Xe9j2nxh+058Ofjx4j8D33x+/Ze8N638UPgP48tfE/gO78Q+JP+Km+GmqX/8Ay+2N99j/ANE/48bH/Qftn2L/AECy/wCP37HZV6FOpdaMn2XkfT+j6x/b2l6drk9jqWm3Gq2f202mrfY/7T/O0rpug9l5GxB3/wA+lMTpabFeazgz3+tBxOLTtY/kv/4KifFS++Nn7RnijwrcWFzolv8ABu8uvh94b0nVrP8A58b3/Tr3/t/vP+X7/ny+xUEnxv8Asu6DfaP8S/C/jHwr8W/BPw3+IHg3xJ9t8H/8Jvo9nqXhk3X2L/l+vruzvPslp/z4/wCh/wCm3v8Az5f8ftdAH7Iax8cv2jLO68D+OP2vfA37PGuXGg/ZfGnw3/4SzwHZfDfTNe/58bK+vruz+xWl3/y/f23oWsfbdF/0L/Qb2zoA/YjwT+0Vofjbxb4H0rxF4V8SaJ4H+LVna+J/DfiHxDZ/8TP4aeMr6y0/7d8PvFV9/wBP/wDx/aJff6HZa19v/wBD+2/6FUSa5XqdB9EalptjZ6pb2MFj/wAev/H5d3d3XFV6gcfefZ4Zf+Xb7PQBnzQ/5NAFCb/nhPB/ow9e9dAGdPDOZfP8gfzoAz5of3X4UAY80P7r8KAM8/8ALf8AD+tAGfNCc9/tFAGfP2/z60AZ/wDy1/z60AY80P8Ak0AZ95D2oAz5Yf8Anh9cYoA5+b/W+v8Az+Wn2OgDHmhg696AM+aGx/H170AZ83kQ/wCv5/SgDHmh86LyB35oAz/Km9P0oAzzB5P2j0FAGfP2/wA+tc50GPMZ/wDR/wDR6AM+aHzosj/RvrXOBjz9v8+tAHm954Dhml/1H2nv9K9A88z/APhW9j5U8H2Edf8AlzoAP+FY2MMvkQWOfso+lB0BN8N4JrX/AI8R+AzmgAHw9gh/ceRn15oArzfDGCbMH4HtQAs3ws8igCv/AMK3P/PA/wDfNACQfDH/AJbwfmbKgA/4VtP/AKif/wBI6AMaH4bz/wDLC+9/9L4oAgvPh7fTf6gfXvQBX/4QPVfL/wBHn/rQBX/sfXPN8jyLmgCx/wATyz/5cbnr+Nc4GhZ6nrk32geRc9KALH/CYarZ5/f3Pt/pmKANCz+Ic8PPn3Pp6UAbEPxOvoYv510AdRZ/Fq+z/wAvP0oA6Cz+MF9/y3m4/PFc4HYWfxsvoT/x73Nz3+2fbKAOoh+PEEP2fz//AEs5oA7iH48WM2fP1XBz/wA/lAHUab8eNKm/cT6rbfzoA7jTfjZpY+zwQarbf9enTU6AOps/ifDeS3H7+2OLPOaDoN+H4hQQWpg/+saAeiueb/tFfGDXPht8AviR8RvDl9bab4g0HR7UaP8A9BP/AE69/wCXH/j7/wBL+x/bv+XO8/48K5K9Xnia4Ss5zsfhf8N/AfwIvD4P+NOuWPi3/heGl+JNL+Lfjz/hLfGF74k1P4tfb73/AI8vt2q2f2K7vPsd9Y/Yf9D/AOYhXz2IjJyumfXYXDwnTuz90PBPhSf4w/C//i1dj9p1DXtYtda8H2nh7xJZalqd/a2NlqF/YWV9Y/bP9Eu7+zsb69sbH/j9+26fW0G00jyKqVzwf4tab/whPwb+F+ufb7bUtO8eax4o1rw34htP+Qn9l+2/6D9u/wCfS7/4/vt1j/z+/ba9Km3qefU6H1R+xz8SL7x58ILn+1b77TceF/GF14Y+1/bP+XX/AIl9/wD+31dMG9TM+uPtnv8A+O16MPhQFf7Z+96c/pVF1EtND+Db9tL4kT6D+2R+1RpWqfadN8QaX8ePFB+yf8/+l32tahf2H/kn9hoPOl8TOA+EsN942FxfaVqv2bULW8+xH/Q7P/T/APwL/wCXugOSR/Tz/wAE6/jDofxU8OfD/wCEl9B4l8Sax4N8N3V78SNJ+2Xmm+Jr/wD5CH2H7Dof/H7/AKB9usf+fz/kH/8AgEnsw5JH6H/DGz+GXgnWfHHgeDS/hL4b+A+vf8UXrPiy78YXupfF/Xrqx/0CxvfsN3efYrS0sP8A+D/0OuKTd2bH0hqMOq2cv2HW/wDStftf9C1i7tPsX9mX/wD0+/6JUgY9dAFeaH/lvBQBnz9v8+tBzmPN/qv38/NAGfPF/wAt8/U10AZ953/CgDImmHmiDNt9fseKAM6ft/n1oAx5rPzvb8qAM+aH97/qD/ovqcUAZ80P+TQBnzQ/5NAGfN2gn/PFAHPzQf8ALAfyoAx5ofO/5YUAY80P+TQBnzQ/5NAGfNZwZ7/WgDPms65wM+bz4cQeR/pH1oAz7yzg/wCnm2uLqgDH8n97/wBO9AGfMYPK8jH+kf8AP3QBjzQ/9vPp3zQBof2P/wAfEH/Hsf8Ap0710HOWIfCn/Hv/AKR+dAFibw3BDFjFB0FiHQfIPv8AnQBYm0Gfyv8AUde1AB/YM/8Ay3h/+vQAHQfJwPItrmgCz/wjc/8Ar/8Aj57+tAE82jzzf6iC2oAr/wDCK33lXHnz/wDH1/y6fY6ANCbwf/pfn+R9poAz4PB//HvBBB73nNAEH/CBedN58EHXtQBPN4Pmm/1EFr/29mgDPm8Bj/R/3Ft5Fc4GfN8PfO/5cf8Aj296AMeb4Ywal/y49fWgDPPwfsYT58Fj+dAHL3nwf84/uPyNdAGPN8GLj/lhP9lzQBz+sfB/xV/yw1W2treucDl5vhL4ph/1Gq2tzQBj6n4I+I2jxefBB9p7/wCiXlAHl95N8VIbowTWF1/OgDHvNe8cQRfaJ/7StvagDPh8eeKtN/f/AG7Ura4tev8Apn1oA0LP45+P9NlNxBqupf8Ab50oOg9A8H/tCfFTXtUt7GDXNN03T/8Aj9vNW1b/AJBug2v/AD+31KWzGld2Ppjx7pvxw/aci0e++B/hzw3deF9B/wBC8N2nxC8eWem6nf8A/T7ff8ff+l3/ANhsft3/AC5f+AdeE5ybdj1KWA9jaZ7Ro/wG+NPjC60+f9sT9jTxbonh/S7211r/AITf4e/Ejwb42/tD7DZfYLD7dY6Vef8ACT/8ef8Ay/U3SurnfDGuiuVH7MfAfxt8K/EnhHUND0r/AIQD4tXGqaPdeGNYtNJvP+QD4X+xfYL/AEWxvrS8/wBEu/8AQbGy/wDAL/Qa54p81jnqST1P5h/+Cin7SHjjwF4p1ix8OaV/ZnhfXviRqnjS81a0/wCJl9g16+svsGu3v2H/AK/P+XH/AKh9elTT1PPqdD7A/wCCXfxggs/2fdRvvHF9c6b4o17xhda1eXfiGz/s7+3rX7Fp/wBgvbH/AKdP9Bropp66Gd0fpT/wvfwR/wBB3Tv/AAMr0Y/Cgujlte/ai8AeG7C4vp9ctrn7LVFza0P4n/25fGHwk/aE/aH+KHjmDxGfCXje78YXV4PEX/IyeGPF1r9t/wBB+3fZP9NtLz/ly/7cKDzpazseL/AfxJfaPr2n+B9V8VW3gC3F5dXuseN/sf8AaemWFr9i/wCP3/P/AEEKD0VDTc/ow/ZX+P37NkMtx4c0O++Mf7SHij7Zai80nwRZ6z420zQfsP8A0/f6JZaV/wBf32yzpNNp2G4WV7n6T/8ACztD17EHhX4LeG9E/wCEp1jS737Jd+JLzTNT/wBA/wCXK++yaPd2X/k5ef8AX9XHKMrvQ43o7H3D8MfFWuXl18P/AIc+I5/tOjaobXwX4O1e7/5Ceg6p/wAuGi2P/UIv7z/QrH/nyvfsX/Ln9tqbPsB6Rewz2cv7+D7N/wBOhrcDP/8ASWgDHmx/27UHOZ82YftH/Hzc/wDT3QBnzTQZ/f8AFx/06dK6AM+byOnf0+2dKAM+abzaAMf9x/qM/wCkfpQBnzf88IPzBoAz5vPm/ccHFAGf5UPp+lAGfew9D+H2vFAGPPD/ANMPoM/lQBnzQf8ALAfyoA5+aD/lgP5UAZ8/b/PrQBnzQ/uvwoAx5of8mgDPrnAz5vtH+oH1oAz5of8An4wLkj/Q6AMeaH/phc4/WgDHmhz1/wBGuOh96AM/yPf9aAPYIdN0r/SP3/8ApH1roAsQ+R5v+c+9AFj+zYPO/WgDQ+xQf8sP/wBdAFg6bP5v7+DH1vKALEOmwdfPoAsf2PD60AaH9jwed1/zmgCxDo/73/HrQBY/sfjEEFtc+tAFgaD/AMfH2iD7Nb9OtAFmHw3B5OLf/l668UAT/wDCN+TFcfuKALH/AAjZ8ryPs59PagCv/wAIr++/1Hv7/WgDQ/4Q/wA6L8OKAK//AAiuf9H8nH2XiucAHgmeb+VABD4Dz/ywtv6UAWJvhvBn9xB/jQBjzfDH/lvb/wA6DoM+8+EsE3+vgzj8qAKH/CmYJpf9Rc/jQBW/4Z7sbyX9/B+dAFeb9lfw5efafPsbbF3QB5v4k/YV8Aala3Gbe5tvx5oA+H/jB+yj4V+Hsv7jxHc21v8ASpqV+iKp0OrPSPh7+yv8JJvhLo9j4/1zUtS1jx5rH9tWdp4e8Sf2bi1/5gX/AG9/8f3/AIH1wTxDud8KFo3XQ/U/4Q/8EB/gjrEVv4j0H9ru4t7fVLP/AJF298C2fiPxLYD/AI/z9uvv7XtPtf8A4B0qdO+rMquZYte6kfpt8GP+CVerfBS3gtvBH7WuuXEGM3Wk6r8NrTU9L1D62X9r4Fd8KXutJHn1MyxTexX+JH/BMT/hYnim18Y+KZPBnhLxPpt1u0f4t/BLV7z4a/Eu+6cGwNpd2eTn/n77VwRoOMrs09u31P54v+Cw3wf+Enwr8R+F/hJBY+I/2ov2sNL0f+2fEniHxD9i/wCEZ8B/bvsH9hWWuf2VZ2dlqt3YWf8Apv8Ap9n/AMv9l/oP2O7/ANC9GCUbXQe18z8p/wBm/wCGPxU8H698QPGPxN+0/wBoeKLPSzZ5/wCJkf8AQf7Q/wCnP/j0/wCnGu68DC7PeNe1j7H+/wDP/WnzRC7PlD4tfEi+m0bUNKsb65/0ri8u/tlHPELs/D7x58PdV8N39xPBB9p0c/8AHndmjmiK9tT7Y/4J+axY6ja/EDwrPfalpvii11jS/Gmj3ek3n9m+Jh9g/wCfG+/6cP8A2/rnqP2SudVPG+0925/Qh8AbPwr8YNZ0fSvjh+1D8fvCX9l3mbPVv+Eb8M+NtN/8Afsdn/4HX/2yvOnm3spWZ6EaKqq6P6QPgD8N/g78K/C9v/Yfx3+JHxj0+6s/tln/AMJZrGjfDbTP/Lfs7SvQp5zCrpY86srNo+4Phj4O+B/jfxFB4p/4Vz4TufE/hi8tdZs/EN1rN7411QXX/Lj/AMfVehCSrRucMm+Y+T/2ltN/sH4v+KBBBbW+n6p9l1qz+ydvt/8Ax/f+Tn26vLluztPnfzoOn/pJ+VIAm/6b58j/AKdKDnMcQf8ALvbwf9edAGf9jghk8+D7NQBQmh86LB+y23NAGcbOeL/lh19a6AMeaH/j4/z9KAK//LPyP170AY83n+Vz/o39aAK82fN8iD19cUAZ4/ffuPIuf9F60AZ88PnfaP3P2a3oAwLyGD/nv9poAzpv+uB+0frQBz80P+TQBnzQ/wCTQBnz/wCtHT7R/wA/eaAMecf4/ZBXOBXm/de9AGPNBB/28Y59aDoMeY+d1nIoAz5v3XvQc5jzQ/8APDH2jFAHuHk+d/yw6V0AEP7/APcZoA0IYRNF5A+lAGhB3/z6UAWPJ87OP+Pfr70AaEMP/LCf8DQBYhx/27UAbENn/wBfNAGhDZwf896ANj7H/wA9/tPPtQBYhs/X7N9ntaANCGzgz3+tAHQw2cHlfv4BQBP5Njj/AEixuf8ASvzoAvwwwGX9xY3J4+xf6XeZNAFmGzxF+4saANDyYJv+WGMcetc4C+Tb/wDPA0AJDD537/8A49vWgDQ/s2CaL9BQBX+x+3/j1B0GhDpnbP40AWIdNg/54dKANCGzg/54UAWIbOD/AJ4UAeb+PNB8Ry6Xcf2V/otx34oSu7A3ZXPwP/bY17x/4btdQ/4SSC503/Q7o2ddk8CnG7OKGOknZH4T6x+2Z8RvBPijT9K1X7N4t8L6D/x56Tq15ef6BXDUwMea6PQp4921P2g/Yn/4LVfBz4S2FvYz+P8A4kfC65urz/TNJu/+Jn4Z+1f9un+hXf8A2/2dEIJM2nmeGtqj+ij4A/8ABbb9mXx5dafY6r+0L8HLm4z/AMfmrePfDPhv/wCQ676cI2scE8yw7ekdT9MPh7/wUI/Zl+IWs2/g34c/tRfszeP/AIgGz+22fh7wR8VPDXiXxNf2v/XjaXl3e06lCKVzDmm9UfD/AMQvg/4H1Lxv448Yz2NtqWv+PPEd14n8Sat/yEhf3V9Xn1G4uyC8zyfXvgn4VvIv3FjbfX7HVe18zU8H8Vfso+DvEkVx9u0P7Sc/8+dHtfMD5H+IX/BLvwf4qtbg+HJ9S8N6hdf9PnNHtfMLM/M/4tf8Envjv4Vi1C/8O/2b420//n0/5iVHtfMGm9D8j/i1+y78d/gPrNx4x0Pwd4/8Aaja/wDMW/se803TLD/t+raovaxM4YZ0nzIseEP29vjh4V+zweI9D8E+Lfsv/H5q3/IN1O//APAS8/8AbOvNqZUqru2d9PGyguWx90fDH/gsx8d/CsVvpWhf234b0cf8edraePLLFh/5R7yqp5b7FkVXe7P34/Yy/wCC6l/rEvhf4c/Dn4A/FHx/8SPFH2XRby78Q+MP+E28M2F1/wA/t9/ZXhuz+yWdejTmqascUk+Z6H6MeFdO13Rx4o1XxH4j1vxJ4g8ZeMLrxp4k1bVtY/tL7fdX/wD4B/ZLT/ly/wC4fWD1dztOh88+V/08f8+lACGfyftHqKDnM/zoP+WE/wDo5oAz5pv+Pjz8232WgDHmvP8Anhm274oAz5vP/wCPfyOv4V0AZ/nf9N/8/lQBX/1v/LDHbr0oAz7zyJorjz/s3HSgDPmh/ef8u32fp/x+UAZ/k/8ATx+lAGfeQ9qAOfl87n/n39qAMeaH/JoAz5ofP+0e1AGPND/k0AZ80P8A03+lAGPOf8PtYrnAzxD/AMsIP/JSgDHm8/mg6DPn7f59aAMeaGDr3oOcx5+3+fWgD3iH/VXH/Ht9n7/SugCxD5HFAGhDD/ywg+nFAGhCf+XjyfegCxDD/wBMPqM/nQBoeT/z3+0/6L+dAGh50Hlf8xLp/wA+dAGhDDcTRW/kfaf+vu7s+tAGxDDPDLb/APPx/wBOneucDQhh/e8wXOaANDyZ/b7T+vSgDQhs5/8AnhQBsWcM83H/AB88f8fdAFjyf3Nx+/uaANDyf+WE59cUAaEUP/TD7LnrQBYhh6+R9pubn7H3oAseTP8A6gwfZu1ABDB+9uPIPb6YoOg0PI9/1oAP/AigCxCZ+P3H4UAWIYf+mH1GfzoAsf6n7PPP/wAfHXGeKALHT/n5tuKAD995v+c0Acf4w+G/gH4kaWdD8f8Ag7wl420fGf7J8W6PZeJNM/8AJund9y/ZI+H/ABt/wSX/AOCfnxCuri+8R/s5+Era4uv+XvwnrGs+Cf8A0kvLOi7D2SPJ/wDhxL/wTShk8+f4H6lc/wDdVPGX/wAmVzXYeyR6j4I/4JDf8E4fAWswa5oX7L/gnUdY0wZtB4rvL3xtph/7cdVvLuyquaXcPYx3Puf4e/B/4SfCW1EHwr+Ffw3+G/8Aan/H5/whHg+z8Nm//wDASld9zSy7HpGYf+fekFl2K8376Q/uK6DAPJ/e/wDL1bUAZ/lTen6UG9kWPJ/6Yf5/OgdkV5oYP+eFt/npQd9l2Oe1Lwr4U1L/AJCvhzRNS97zR7PUqd33FJKz0KFn4P8AB1n/AMePhXw3bf8AXpo9nRdnFLdnUH/VW8H/AC70ibLsV8zf8+9AyuZh5XT/AI+qAK/k+T/y/Z/rQc5nzQ+T9ng+0W1AFeaHzaAMeaax8q48+e5ufsvN4LSz/tIUAV7z/t5/p2roOcz/ACfK/H3oAr1zgV54f+mH0GfyoAz54f8Aph9Bn8qDoM+bj/p2x0oAz5of8mgDIvPIyfPzj9aAM6aGfH+o5/SgDn5of3v/AE70AY83n80AZ83/AFw9utAGPN/03/0XP40AZ80H/LAfyoAx5v8Aph+Gf0oAx5//AAGuPTFAGfN+5ix/pPr6UHOY4/ffh0+10Ae4QzQQ9P8Aj3PIzzmugBftnP2f7Rc/1oAv/wDXee5yO+aANCz/AHPPHP8A0+UAbEEM458/7T/2+dKANiA+T/y3uTQBoQ+f/o/n31z/AIUAaM0PnD/X/acH/j7zmgDXhhg8ryJ57n1rnA0ILP8Adc/6NQBoQwwde9AFjyf33+v/AE96ANjE3/PxQAQ//cfWgDYh/de9AFiHH/btQBY8791/r7nGKAD/AF2f39z9o/nQBoQHyf8Alvcmg6CxD/139v8Aj8oAsed5P/LfrQATXn/Tf9aADzv3XkQT5zQBYh/67n7R+tAFj/ln+4x159aAD/W/5xiga1dgoPSUNNw8+Djz6B+z8wg7/wCfSucPZ+ZY/wCvf/gP+fyoBwsr3LE3/LvQcb0dixNN/k0AE03/AF810HOV/wB7/nNAB53/AE7/AK0HQV5rygDPmm/yaD0Cv5/t+lApbMPP9v0oOGW7Cab91+FAiv53/LD8dv8A9agCv5sPr+tAFfz/AG/Sg5yvP2/z60AV/P8Ab9KAK/nf8sPx2/8A1qAK/nD/AJYQXP2iug5yvNDP5onnn5/59KAM+ft/n1rnAoTd/I+1Z7etAGNN5GP+Xnpx60HQE+PK/wBf/o/vQBkTf9d7n/RecUAZ0037r8KAOfvJrjzf9fQBj3mPK/1/9aAKE15n1+0fqKAOe86D/j4/0nHr3oAoTf6k/QUAY03/AF39+lAGfMIOf3/40AZ83/Xf36UAY800H+k+R/15XhoOc5+Yd/8ASf8ASjQB/9k=;" vertex="1" parent="1">
          <mxGeometry x="100" y="525" width="260" height="260" as="geometry" />
        </mxCell>
        <mxCell id="xMQF3Xm1KzFrfOHQRXqz-181" style="edgeStyle=orthogonalEdgeStyle;rounded=0;orthogonalLoop=1;jettySize=auto;html=1;exitX=1;exitY=0.5;exitDx=0;exitDy=0;entryX=0;entryY=0.5;entryDx=0;entryDy=0;" edge="1" parent="1" source="xMQF3Xm1KzFrfOHQRXqz-2" target="xMQF3Xm1KzFrfOHQRXqz-6">
          <mxGeometry relative="1" as="geometry" />
        </mxCell>
        <mxCell id="xMQF3Xm1KzFrfOHQRXqz-182" style="edgeStyle=orthogonalEdgeStyle;rounded=0;orthogonalLoop=1;jettySize=auto;html=1;exitX=1;exitY=0.5;exitDx=0;exitDy=0;entryX=0;entryY=0.5;entryDx=0;entryDy=0;" edge="1" parent="1" source="xMQF3Xm1KzFrfOHQRXqz-2" target="xMQF3Xm1KzFrfOHQRXqz-98">
          <mxGeometry relative="1" as="geometry" />
        </mxCell>
        <mxCell id="xMQF3Xm1KzFrfOHQRXqz-2" value="" style="shape=image;verticalLabelPosition=bottom;labelBackgroundColor=default;verticalAlign=top;aspect=fixed;imageAspect=0;image=data:image/png,iVBORw0KGgoAAAANSUhEUgAAA2gAAAHfCAYAAAAlRvvZAAAABHNCSVQICAgIfAhkiAAAABl0RVh0U29mdHdhcmUAZ25vbWUtc2NyZWVuc2hvdO8Dvz4AAAApdEVYdENyZWF0aW9uIFRpbWUAU3VuIDI5IFNlcCAyMDI0IDAyOjMzOjQyIFBN1MuMaAAAIABJREFUeJzs3XmUXWWZL/7vHs9clRpSFVKZoBKSEOYgNBglQDSCUdBWQRm79erqwZ+/Xstl9/Jnd2v3VW+rt1crtogiIi02cKGbawgtKnYjQyOzQBKEjGSuVGo80z57+v1Rvjv7DDWds0+dfU59P2tlpeqM+9Q59dbz7Pd5n1dyXdcFERERERERNZzc6AMgIiIiIiKiCUzQiIiIiIiIQoIJGhERERERUUgwQSMiIiIiIgoJJmhEREREREQhwQSNiIiIiIgoJJigERERERERhQQTNCIiIiIiopBggkZERERERBQSTNCIiIiIiIhCggkaERERERFRSDBBIyIiIiIiCgkmaERERERERCHBBI2IiIiIiCgkmKARERERERGFBBM0IiIiIiKikGCCRkREREREFBJM0IiIiIiIiEKCCRoREREREVFIMEEjIiIiIiIKCSZoREREREREIcEEjYiIiIiIKCSYoBEREREREYUEEzQiIiIiIqKQYIJGREREREQUEkzQiIiIiIiIQoIJGhERERERUUgwQSMiIiIiIgoJJmhEREREREQhwQSNiIiIiIgoJJigERERERERhYTa6AOg+nAcB4ZhwDAMOI5T9eO4rgtJkoouK/0+bOp1fK7rTvq1eE7/5f7vJ7t8qsuqvW/p1+L4XNdFPB5HJBJBKpWq8AqJiIiIqNEkt1K0R01v79696OzshCRJSKfTSCQSgTxu2JMzYG4StErfV7p8siRrppdNl6RZljXtbWRZ9v6XJAmJRAK2baOjo6Pi8RMRERFR43AGzadVclVJkjAyMoJUKoVIJIJoNArTNAN53GYQ9HGK2SegPjNh/scvvV01s2qlX5um6SVpYjY1l8uhra3Ne37/ayUioubSKvELhVuzxwjNdPwtk6BVMzjNZAakGUmSBMdxkEqlMDo6ClVVvQB9tvw/i/kayJe+7kqfD//lU90GKE/MJEma9P7TPVbpY1ZK3CRJgq7rMAwDiqLAsiw4jgPLsooeZ76+v9Scmn2cJgoafycoCM3w93+2x1jp9mF/nU2doE0VuM5E2N+cWti2jQMHDsBxHLiu6yVotQzgzfLzqudxzrTMcbLbVPq6UhI20xm1mdzGdV0oiuJ9DsbHx7FgwQLouj7lcTfL+90IDISIiIjm1kziElE5VOl+4mR06UnuMGqqNWj+gFZ8PzY2BgBQVRWFQgGqqmJ0dBSmacK2be92/jdhutmJZlf6ektfeyu+Zpq9ZmwAQ0TzC/9eETVemGKD0jFBHJuiKFAUBYlEApqmwbZtr6IsFotB1/WixmliXX5pBVFYhDpBq1ReZ9s2stksBgcHoSgK+vr6vNkh27a9H7h4E8S/akv8mpH4UALh+qWi8ODngoiIiJpNpbRFURQAE/Fv6deiL8PBgwfR0dGB3t7eotzAn6SFKTYKbYJWmpwNDg5C13VIkoRIJFK0bkeWZRiGUdYIwf9YYfqhz6XSTn40/4T0V5yIiIhoVirFNI7jQFVVKIoC0zShaRpM00QsFoNlWd4yD8dxkM/nkc/nYZoment7Jy1/bLTQJWj+8kPbtmFZFk6cOIHFixd7TQ1EgwMAMAwDkiR5b0w+n/cyYvE489VkDT5ofpnsV5yfCSIiImomk82gWZZVNBkhy7I3UyZm0sT/IpcYHh6GpmmIx+PQNA1AedO0RglVguY/FMMwkE6n0d7eDlmWvYSsUCggEol4CwAlSUKhUEA8HofjOCgUCt705nw1n2cMqRwTNCIiImoFk8U0IkkT689EciYSLzGDBpzcF1ZVVUiShLGxMZimiYULF8JxHG+NWiOFLkFzXRfZbBaqqkLXddi2Ddu2vW6EREREREREtVJVFY7jwLZt5HI5JJNJb0lVI2fTQtFmXyRetm1jaGgIXV1dME3T68TIxIyIiIiIiIIiZtVc10U8HoeiKMjlcgCASCRS1j1+LjW8c4T/xefzeXR0dHiNP5icERERERFR0CRJ8pZQjY2NQVVVr/xxdHTUu10jcpGGJmjiBZumidHRUcTjca9FvGEY3vVM0oiIiIiIKEhi7VoikUA2m0U0GvUmioaHh4u27JpLDUvQ/C80m82ira0NmUwGrutiZGTEW5xXup9Zs/EfczMePxERERFRJf74vBnj3Hw+D13XYRiG1/tCVVVYloVUKoVCodCQPKQhTUL8ZY3pdBqxWAyu68KyLNi2PdeHU1eO40CWZciy7HWPKd2njYiIiIgorCqtw/LHtoqieFVwzUx0Qhfr04aHh7F48eKyTa3rbc4TNP/T5fN5ACffVLFQr9nf3FKVWnsSERERETUrkaCJksBmnEErJSaM4vG41zDEMAx0d3d7OcpctOBvaII2MDCAnp4er2NjI7ul1INIysQ+C2JjvFb4ABMRERFRcMIa/84kbhX7hzU7sT/a2NgYUqkU0uk0VFWFoiiIRqNeglbv1zqnCZr/qdLpNBKJBBzHQTab9bLRVnhzBdd1oaoq8vk8stksHMdheSMRERERFWnknlszUZouSJIERVEQi8Wg63rLJGgAUCgUkEwmkclkoOs6crkcbNtGe3s7ZFmGoigAUNeZtIbsg+Y4jvfic7kcVFUte+NbodTRdV3Yto10Og3DMJDP5703lYiIiIjmJ7HOCYC3rVSY497SYxOdD13XhaIoc1L2Nxccx0EqlcLY2BiSyaTX2VHE8bFYDLZtQ1GUur5nc5ag+Tu87NmzB/39/cjlct5+Z6VvbJg/pDMlSRIikQgMw8Dw8DB+8pOfVHytRERERDR/iBkzy7Lw1ltvYXBwsCmqrERi2d7ejq9//evQdR2KokBRFBQKhaaPcWVZhmEYiEQiME0TmqbBtm1Eo1EcOHAA/f39XjOUepY7zkmC5k/ObNvGwoULYZqml6w0+5s5GUmSYJqm9yaapull3EREREQ0P4mSQEVRYJomcrlcqKusRJt50U8hk8kgkUh4Gz23Whf2UpZlYdGiRTh69Ci6urrKOjoGnaTN+QyabdtIpVLI5/Pe7FLY625rIdrsiwQNqG/NKhERERGFl79xnGVZXgO5sCc5pfudiY6H0WgUY2NjUNWGrJyqO13Xvdcn3iNR5ijifCGofGbOfpLigEdGRtDd3Q1JkpDL5aDrOoDW3BtMTH1aluXNnvlrjomIiIhofhElcpqmFe2XG2YifhX/i2PWdd0rbdR13ZuMaCUiCfVvVu1Ppusx0TSnM2j5fB4LFy70XqCqqigUCi2bcfunr3Vd95qhtOpsIREREc09ETT696IS8UZpzOEPMkVS4N/mSFwvZgf8jzUTYmbIcRzouj7trJD/xLX/BLa4XFVVWJZV9FqmO9HtTyLEXrT++/pnsEQvBFFe6N+31n99pQTKv1GzeF7xv3+dUunxirhXNAcR/8KapFX6ebuuC9M0vdeiqioMwwjta6iFqIQzDAPJZBJ79+7F8uXLi95jAGX/1/ScNT/CNPwDwdDQkPcLIbRqcgYUv0GlAwQRERFREBRF8cqvLMuC67rQNM1b35TNZpHP5731/4JYS6QoCiKRiLeeSJTbicRoNvyPn8lkEIlEKt5O7C1lmiYMw4CqqkgkEkX/2trakMlkEI1Gi5LF6YjYM51OlyWq4mR5oVDwfm7iZ1coFKBpmjeBIBI0cZ/Sf/l8vijRy+fzsCyraPlOpQoxf0zYLMt8/D/3Sok00LpLeMR7JXIW0zRhWRZs2/b+ife00smGatQ1O/IfnCzL6OjoQKFQ8K6b7MwCEREREc2MSKxENz3btpHL5RCNRtHT04NUKoVYLAZN07y4q1AowDAMZLNZjIyMIJPJeImICLSraVoh7rtu3Tq89dZbSKfTZYG7WLvkOA7i8TgMw8CqVatwxRVXeLeRJAnZbBb//M//jFwu5yVBM53Ns20b8Xi87H7+tvAiCRVLUCKRiJeYicRSlO9Vek6x/5eYPdI0rWj2UZQBMs5tbqVbIqxduxbHjx9HLBYrmjXzz6jWmnTP6fSVbdvQNK3ojAw/tERERETVEwmQSNSSySQWLlyItrY2xGIxLxnxB4+RSASpVAqKosCyLAwPD2NgYACZTAaWZUFVVW8d/WxmRizLwrnnnot3vOMduOOOO6Cqatkskmgvn0gkcOWVVwIAYrFY2cyMpmm49tproes6fve73+HZZ58tu53/9v6qLVFeKZJMkRSWBtTiPqIsU7xusZZKPM5k8aq4r5gRFLOP/tmzVp1Zmi/8SbeqqhgcHPQuF++1+IxU6tZeTbI2JwmaJElIp9NIJpPI5/NFrTqB1tiUmoiIiKgRRKCoaRp6e3uxePFib/8mx3Fg23bZuieRPIgSra6uLixcuBBHjhzB4OAg0uk0AMy62um8887Dpk2bkMlkIMsyMpmM1xCulCzLWL58uVcu5n8Ox3GgKAr6+vpg2zYWLVrkNWooVWmdXTab9ZpwACdLKkU5pa7rXiKay+W8mTxRoum6LmKxGLLZLDo7OzE2NlbxNYheA2Jv30gk4s1Q+mftqPm5rgtd15HJZJDP55FMJr3ttITSEwDV5jdzNoO2e/durF27FpqmeWWORERERFQ7SZKwZMkS9PX1eeWL/nVlYn2MmCHyzyiJ5M2yLPT29iIWi2HXrl1ecwwxS1DKX8Zn2zbOPPNMvOMd70Aul/MSxHg87h2D4C+jFAmgKA8sfU2i3HC62FGSJBQKBUSjUfT29uLCCy/EwoULcc899xQlm2eddRY2bdqEZcuWwXEcHD58GL/4xS+wfft2r8QTgJew6bqOW265BR0dHd6WSZqmAQAeeOAB/Pa3v4UkSbjyyitx8cUXI5VKIZ1O480338TWrVsxOjrq/Xz9zVioeZQ2sonFYhgfH4dpmmU9JvxltKUzwrNR9wRNzJatXr0aiqJgfHzcq4EW+EElIiIiqo5IcsbGxtDR0YFIJOKV9tm2jWg0inw+7yUgotuemFXyN8RwHAfHjx+HaZpTJmcAoGma1yhj3bp12LBhAzRNg2EY3rquydqu+x97snU7IvgVMxGTJTgi+TzzzDNxzTXXYNGiRd46PJHYied4//vfj8WLF2Pfvn2QZRkrVqzARz7yEdx+++3Yv38/EokEbNvG+Pg4IpEIIpEIuru7kUwmceLECe/nJQJwSZKwfv16vOtd74LjODhw4ADa29tx0UUXYXx8HA899FCV7yqFjb8kNhqNIpPJIBaLFTV8ESc1SrcjEGaa89QtQfPXAYtfTtFylVO9RERERMGRZRmDg4NQVRUrVqzw1lGpqoqFCxeiu7sbHR0d0DQNsixjZGQEAwMDOHz4cNEs2pEjR3D8+PGiGYDJlqKIRGXdunXYvHkzFEXBk08+if7+fnR0dHgNSyqtQQMmyg57enq8wLe0KYmY5ZNlGQcPHizaKLiUbdu44oor0NXVhf3792Pp0qVF7ett28ZZZ52FJUuWYN++ffjWt74Fy7LwF3/xF+jv78eqVaswMDCABQsWYP369XjxxRdx5MgRpFIp6LqOkZERfPnLX/aSWDGLEo/Hcdlll0FVVWzduhWPPvooVq9ejU996lP4gz/4Azz++OMYHx/nZEQLkWUZsVgMJ06c8DqMlr6/pWscxWUzXdY1JyWOmUwGnZ2d3hkafkiJiIiIgiECQFVVcfz4cUSjUfT19aG/vx+nnnoqFixYANM0ixpmxONx9PX14fTTT8f+/fvx1ltvYWBgAIcOHfLKDUXSNFlSpOs6li5dik2bNiGfz+PVV1/Fs88+izVr1nj3qTQD529JLmb7/C3KBVH6KMuy18xEXO4nErf/+I//wIkTJ+A4Dr7whS+UBcann346XNfFkSNHvNf3+uuvo7+/H8uXL8djjz2G9773vTj//PNx6qmn4vbbb/dmRjKZDBYtWoREIoFCoYA333zTO3aRjL7yyiuIRqMYHBxENBqFJEno7e3F6OhoVR0xKXzEmkNZlr1SV+BkK37/bHBpiaN/Zm26XKjuCZokSUgmk95ZkKnOfhARERHR7PjXvRQKBQwMDOCyyy7DueeeixMnTsA0zbJuhKI5SDwex/nnn48FCxbg+9//flHyNF2J47Jly3D99dfj2LFjePPNN/HrX/8aALx91UzT9Jp9lB6vKK8svbyUv03+ZLfJ5XKIRCJ44403oCgKenp6yja2liQJuq57Gw6LxiniZxaNRiHLMl5//XWsXLkSTzzxBAqFAhYvXgwAOOWUU/CZz3wG8Xgcpmni9ddfx3e/+11EIhE4juNNQvjXH4mZltLEk5VkzUskaGJ9InCyoY1I0kSe4y9t9G98PpMkra4Jmr8mur293duQkO1GiYiIiIIl2soXCgU8/PDD6Ovr82bPgOImFaLVvmVZGBkZwc9//nOvZFEkZaWt4v1VUKtXr8bGjRuRyWSwfft2PPHEE15jELHHmZg1KOVvbe/f6LkSfzA72Z5iIkkStxGbdZcSSarYiFqsHxKJm2maeOaZZ/Dcc895HfuOHTuG3bt3Q5ZlvPzyy9A0DVu2bMEZZ5yB8847D2+88Yb3mkTwLRI1sccaE7LmV9p9XjTbETO74j32r+UEUPF3aCZJWl0TNP9ZD/EB5YeUiIiIKFilgd7Q0BAefPBB3HDDDd56NJF0iRmjQqGARCKBhx9+GDt27PAu83cdFImTf0ZtxYoVuPzyy6EoCl566SU8+eSTRfvcTrehtD/QFY8509dYaamMiC39bc39/4uvxWszTdNLTkWgXCgUvJJFRVGQz+cRiURw4sQJ3HrrrV5ZaD6fR09PDy699FKsWrUKu3bt8l6HaZpeZz/TNBGLxYr2XqPWISad/EqTNP9stLjev4n5VEnanExliW4+omsQEREREdXX7t278atf/QqRSMQ722/btte2XtM0PPfcc3jiiSe8WSiRnJUSpYH9/f244YYbIEkSXn31VTzyyCOIxWJNUSGVyWSQy+UQi8WKthsQMxymacK2beTzeSiKgnQ6jVgshmXLlqGrqwvZbBa6rmN0dBQA0NbWhkwm43WsjMViiMViXvlbLpdDOp2u2ECCmpdI+hVFwdjYWNHn3j8R5U/QJvu/9D5CXX6T/FPo6XQaixYtwvj4uNfphIiIiIjqR8xMPfnkk3j22WeL1sgAQCwWw+HDh7F161YUCgXv9pMlWZZl4YwzzsB73/teHD9+HDt27MDjjz+OSCQCwzCaYkPmHTt2IBKJYPny5YhGo9A0DWeffTYkScLrr7+ORCKBrq4uvPOd78SCBQsQjUZx8cUX43Of+xyuv/56xONxAMDatWthWRaOHDkCSZIwMDAARVGwfv16pNNprFmzBpIkwbIsHDt2LPSJK82Mf6ZW13WYponh4eGiLRfE7fz//EmZ+Oe/3v/YQl3b7APA0aNHsXz5ciQSCYyNjXlnaIiIiIioPlzX9fYp+/nPf47ly5d7/QBs28bIyAgefvhhb1bItu2yfWr9+vv7cdVVVyGTyeDw4cN47LHHvG524vlE0BpWu3btwu7du7Fy5Up89rOfhSRJ6OzsxNGjR/HGG2/AMAxs2bIFF1xwAbZv347vfOc7ePXVV3HZZZdh9erV+Nu//VvYto329naMj4/jxRdfhCzLeOSRR3DzzTfj3e9+N8444wz09vZCkiQ8/fTTGBkZQTQaBTD5dgXUXPxNeTRN8/Ka0iTNf9Jisi72k3V3rHtK39nZ6dU7T7UIlIiIiIiCIYJGRVEwPj6Ou+++G47jwDAMpFIpbN26FXv27ClqYuA4jtdEQ7Tlz+VyWLt2LbZs2QJJkvDmm2/iZz/7GaLRKHRdRyQSgaZpiMViAIBUKoV0Ol203qYS/9qzyWbe/PedanZONGoQnSOj0SiOHTuGgwcPeo1ANE2Dqqr48Y9/jF//+tfo7OxEMpnESy+9hFtvvRUjIyMwTRO/+93vMDY2hpdeegmapmFgYAD/+I//iOeeew6JRALxeByvvfYavvWtb+Ho0aNQFAU7d+7E3XffjaNHj2Lp0qVIp9O477778Oijj3rJGcDSxlYiutRns9mi5Ku0xNGvdFZtqpk0yQ14Prr0CYaHh9He3u7V84oNB+cLWZZx9OhRDA8P44c//OG8eu1ERETUOKqqIp/PIxqNIpPJ4JJLLsEHP/hB/OIXv8ATTzwBwzAmXXMmgsa1a9fi8ssvh6qqcF23qIV4pRDSNE1vr7Dvfe97AODtX+Z/bABIJBL4yle+4gW4lRIYMavw+OOP4/777y/ae0oQbc5Fcw5xrGJGTzTxEB0eRZt/WZZRKBS80k4Rp4oEVdf1otes67rXDESsMxOPbRgGNE3zZlREU5bJ4j5xP9d1sXv3bhw9ejS0MWLpfl6O4yCZTOKOO+6Apmno6emZd40ATdNENpv1Op+K2WcxG1bapMb/T3wWK33tbeJe7xfg79AjPvzz6Q0kIiIimmsiqRD7zyaTSTz11FMwTRO//e1vvZisEtHwo6+vDxdccAEGBweLujOWbsrrJ8syhoeHvXVtuVxu0udxHAf79u3zehSUJouiEYNt28hkMt4G2pPNRImkSiQ6/mTLn4yJph4imRM/C9HMThyv2DdOzMz5u0CKgFzsexWJRLwyNX8vBn/LdWod4rOYSqUwMjJSdOJAfEYrlTuK/0vb8Ze24K9rgiY2QBSdgqZafEpEREREwRCdGlVV9fYli0ajePnll4tOlldKeMQM0+HDh/HjH//Yi+H8+6NNVhEl1rOJBGiyk/KKoiCTyeDb3/62FydWKgkTs3/+LpSlRJIktgkQjy9uL2bOZFku2kLA/7WYWRPbBfi3iMrn897PyD9z5t/surQjpK7rXskoSxtbj1izmU6nZ5SAl65JA8rb8fuTtLo2CRFTvCKrFLNpPJNAREREVD/+TadVVS06Uy8um6wsTcy6iTVkYpmKKCUUiU6lxMOyLC/2m2zmzGuE8PtZLVVVvS2Z/PylgiLhm6wUUtxelBiKbQFEEukvHxOvWSR7/uPJ5XJe2ZlIrsTPyp/giUBazM6JBNC/QXHp66XWIT4johnPTN5jf5JWmhP5kzPXdeuToIkDEAcszjKIsyrziVgAKKbTOYtIRERE9eYvQSyNvUQ8MtP7i8TJX/oHTN64QyQ0U/EnRyIZLCUSIKC4C16lxy4tuRSxl//7yY7Jf3lpmaX/fqU/M/9G3qX/T/b4gkh4S9fnUXMQiZQsy8jn84jH417MX1ra6Ocvf/TPYpd+XbcZNLEvRFdXlze1Ph+JBae2bXu10FyDR0RERDQ/+YN7UQrJ2LC5iPWR4kSAqqpeee10/GsU/V0d/TNqdV+D5j+jMd8+fGLBq1iwmkgkOM1NRERENI+JhEyUXcZisUnLQSmcLMuCruuQJMkrAa5ksqY2pUkagPqXOAq5XM7LDEs3YJsPxP5vruuir68Pf/3Xfz2vXj8RERERTe3xxx/Hl770JcaITUSU34qlS9VOQpXmRnUpcSzdnE0kJ0DxhoTzhX+B6fj4OLq7u/nLR0RERESeZDKJQqGASCTS6EOhGRJbK6RSKciyjKGhISQSCe/62UxKVepeGni3Cv9CylWrVlXs/T9fiBauokEKEREREZHffKswawWapnkbvUuShNHR0RnlOVM1qilaj1aPg3ZdF8PDw0UNMeZTYkZERERERK1JrEETbfb93TtrKXcU6tbv3d8alckZERERERG1AtEqX2xGDlRu/DFb3h5pgR1pCVGHKTrV+A+aiIiIiIioGVXaOH0mVYPTdXQU6pagiZ3Yp9oYkIiIiIiIqJnIsgxVVaEoCiRJQnd3d9l+dpXyn8k2WS+9ri4JmizLiEQiRR0cOXNGRERERETNznVdWJYFx3EgSdK0neqnmrCqdHldujhKkoSRkZGgH5qIiIiIiCgURIMQ/2TUbEscK10WWII21ZQdERERERFRK7BtG5qmwbIsb0stsSZtKjNZ9hV4kxAxe2bbNjo7O5HP54N8eCIiIiIioobyNwQRDUMMw5jytrNRlzVoY2NjUFUVqqrW4+GJiIiIiIgaQlEUGIaBaDTqfW/bdmB9N+qSoJmmCdd1Yds2OzgSEREREVHLkCQJqqp6M2i6riOdTkNRFDiOM+V9Z5IbBZKglT5RPp/32k8SERERERG1itISR7Fptfi61m3G6tLFcWRkBJIkoVAoBP3wREREREREDSVKGcX/PT09Zf03pkrSptrYOvAETZIk9PT0wHGcaaf4iIiIiIiImok/ufKvO8vlcrOaPZvsdoEnaLZto729HaZpIhaLBf3wREREREREoSCSs3g8Pm314EwTt8Db7FuWBQBQVRWmaQb58ERERERERKEg1pyJLo6KohRdP1lCNl2iFvhG1WI3bZY3EhERERFRqyrNfwqFwoxyoOla8Qde4uhP0Nhin4iIiIiIWplojihm1IDKs2RTXecXeILmOA5s2/b2BiAiIiIiImoV/hkwSZIgyxMpVTweL9tmzJ8PTZcbeTNyQR2oOEDHcSDLMizL4j5oRERERETUkkTHRkmSYJomXNeFpmllidh0nR1Lr6s5QfM/oCRJGBoa8g6U69CIiIiIiKjViGVdIu/RdR2maZY1CqlG4FNcg4ODWLhwIRRFgWEYgRwkERERERGF23TNL1pF6QSV+F8kaf4Zs2p+JjXPoEmSVHSQqqpC07TAMkgiIiIiIqKwKE3QZFmGqqqwbRv5fN5bk1btY9Y8g+Z/MMdxsGzZMhiG4e0JMJ/LHNkkhYiIiIjmi/kyg1Y6QSWSNMuyYFkWZFme9mchSiMrCazE0XVdFAoFbwYtl8t5dZlERERERNTa5lvcX9pWP5FIIJPJIBKJeLeZKhGb7PpAuzg6jgPDMGCaJjerJiIiIiKiluNfdyYSLEVR4LouxsfHAUyerM4kia0pQSt9Atu2kUqlvJkzJmhERERERNTqRNKWTqfL1qDNdmYx0Bm0XC7ntdcXmSQREREREVErE0mZfx/o0v3PKu2PVvGxgjggkTHmcrmi7zmDRkRERERBgIk7AAAgAElEQVRE88WiRYtg23bV6/Fc1w0mQRMHIDJG0blkvi0UJCIiIiKi+cGf64j8JxqNwrKssutnkxcFVuIoyzK6u7sBAJZlwTRN6Loe1MMTERERERGFjujmKFrtT1dFOF2pY2AzaJIkwTRNr72+qqowTTOIhyciIiIiIgotkQ+JtWjVzJ6J2wXaJMQ0Taiq6m1UTURERERE1OpE7qMoSlV5UFG5ZK0H438wsXN2PB6HbdtsEkJERERERC1PdK+XJMlbg+Yncqa674MGoKjPfywW8zaqliSpqM0kERERERFRK3Jdt+LsmUjIJmugWOmywGfQ/I1BbNuu9eGJiIiIiIhCTZZlKIri7Qc9WaImvp5qJi3QfdBEz39R6khERERERNTqbNuGJElwHMdrGDKbska/QGbQxJOK2TOx9oxJGhERERERtTrXdSHLMmzbRj6fh6IoVe8JHdgM2sjICJLJJGzbhizL3vQeERERERFRKxMJmaqqyOfzFdvtl34/WQIX2BTX4OCg90RMzIiIiIiIaL4QCZpI0qrlui4Ca7OYTqe9qb1q6y2JiIiIiIiajW3bUBQFpmlC1/VpmyVONalV0wyaPwEzDKOWhyIiIiIiImpKjuN4bfb9zUKm69gIlE9qVZ2glT7QkiVLqn0oIiIiIiKipiXLMizLQjweh2maXldHwZ+oVao29F8f2D5oyWSy1ociIiIiIiJqOrIse7NnYuuxmSz38m9k7T1WEAfkOA7y+fyUT0RERERERNSKxDZjiqKgq6sLhUJhVvf3J3M1J2hiEzZVVadsI0lERERERNSKZFkuWoMmJq9K16HNJD8KrM2+v7UkwNkzIiIiIiKaH0RZIzCRhNXSQDGQNWi2bSOZTHpTe0zOiIiIiIhovpAkydv/zHVdmKZZdXVhIDNopml6rSRnewBERERERETNzHVdOI5T1m5fXDdVslb6dWAJmqIoFQ+UiIiIiIiC45+pyeVykCQJpmkikUgUrXny/xNNK8T3lmUBmJj5URQFlmWxCq4GiqLAcRxomgbDMNDT0wOgcj402WXicjWIAxJljkREREREVB9iry1Rudbd3Y0vfvGLWLRoEWKxmLfcqFICIMsyTNOEpmk4cuQI/v3f/x0PP/wwVFVFoVBAJBJhPF8Dy7Kgqqq39sxxHK+Z4lRc1y1LjAOZQdN1nbNlRERERER15LquN9tl2zauueYarF692kuyDMPwyuxK/5mmiWg0CsuysHTpUvz5n/85Fi1aBGAiebNtmwlaDcQ+aJZlQZZnlmJNlj/VPIMmSRIikYg3nUdERERERPUhZmYAoKurC5Ik4c4778S2bdu824gSyEr3TSQSuPvuu9Hd3Y3u7m4cOXIEsVgMhmFA13UmaVUSs5qRSASGYSCbzSIajZatL/OvS5uspLSmBM11XciyzMSMiIiIiGgOiDJHwzCQSCS8GZtcLueVOVaKzSVJgm3b3lqpQqEA27ah6zoKhQKXLNVI/FzFzzmRSBRdP1VCViqQEsd8Pl9UYykWuXGhIRERERFRMPz7DUuS5CUE/v/91/v/ld5XURQvqVAUBbIsc8lSjcTPX1VVbyJrtq32A+viKLrAEBERERERzTeO40BV1YqJ8mxVlaCVZn6KojDjJiIiIiKieUtUEPq3LaimsjCQGbRKe6ARERERERHNF2KzakVRvPV+/uv8y8EqXS4EkqBlMhlvKo+IiIiIiGg+cRzHW3Nm2zYikUjZMrCpZtH8SVrVCZr/QWzb9lpLiidngxAiIiIiouD5W7WLPbf8e29VahLibyzChiDBE/ugua7rbVdgGEZZI0W/yb4PZAbNNE3EYrEgHoqIiIiIiCrwB/Qi4bIsC47jwLZtr+V+pY2q/ffP5/MNOf5WVrrWTJZlZLPZokmrOW2zv2DBApimGcRDERERERHRJMrWK8kyZFmGpmnQdR2maU46cybuH4vF2IW9DkoTtFwuV3TdTGcta9qoGpjIwLu7u5HL5VjWSERERERUR/7OgAC8crpMJgNd16Hr+qTJl5hpUxQF8Xh8Lg+75fkTM/G/yI9Km4KIyybLnWpO0NLpNKLRKGtZiYiIiIjqqDSgd10X6XQaa9euxQc+8AFomjZl4z4xk6aqKgqFQr0Pd17x9+AQCbRt20W3mWm7/ZoTtGw2y8SMiIiIiKjO/LMxuq7j+eefx6WXXootW7bgfe97HxzHmTQBcBwHmqYhn89DVVXs3bsXhw8fRqFQQCQSgeM43mwczZ5oviLa7ANAe3s7gJknZkLNCVqhUCjaiI2IiIiIiIJnmiZUVYXrulBVFdu2bUNXVxcuvPBC9PT0QNf1ssYUguM4SCaTyGQy2LdvH7785S9jdHQUuq4DmEj+mJzVrtJM2lT8XfDF97NO0EqfRFEUKIriLUgkIiIiIqLgRSIRmKYJ13W9zZB/9KMf4Z577vFKG2OxGAzDKLuvWH+mqiosy4LruohEIgAmEj//pso0eyIxK92KrJoJrJq7OLa3t0OWZXaCISIiIiKqI1HCqKqql4SJRE2WZdi2jdHRUViWVfYPmCiLFLNviqJ416mq6t2fauPvnOlP0Pz/T7cvWk0JmviAWJbFfdCIiIiIiOrItm0v8Nc0DQBgWRZ0XYdhGNA0DZqmea33/f8kSfKSOjGTJhIz13VRKBS8ckeavUqVhA2ZQXNd19shmxk3EREREVH9+Fu4i8BfLDUSHRwnW3IkZs7E/W3bLur4qKoq4/kaidkxkRD39vbOeP8z/6xazSWOiqJAkiTvA0NERERERDSflCZhkiQhmUzOOOkVibUkSbUnaIZhwHXdKfdcICIiIiIimg/8a9D8CdpUM2n+62pqsy9JEtra2qZ9QiIiIiIiolZXNBP2+33RZqvqGTSRkIkuMmKhIhERERER0Xzk39fMcZyyTveTdXD0X19zk5BCoVB1dkhERERERNTs/BtNC6KD5mxVlaD5n1hkhUzQiIiIiIhoPvOXOIotEPwbWJd22azU5bHmGTTbtqEoCrs4EhERERHRvCeahOTzeaiqOmU5Y6WvA8mqTNPkvglERERERDTviQRNkiSYplk0a+ZPxPyX+7+uKUGTZRmJRAK6rrOLIxERERERzXuu60KSJG/zb5GsASgqdyy9j1B1giZ6+4tdy4mIiIiIiOYrf6MQsQZNVBlO173Rr6YELZ/PT5oFEhERERERzQf+Zh+le6HNNl+qqcTRMAzvgIiIiIiIiOhkcqaqalnnxsmInKqmBK100RsREREREdF8I2bQ/BNXYhmY6HY/00mtWSVopQ/q79zIRI2IiIiIiOarSl0ZLcsq6uroN1nCVtMMWqXOJERERERERPOJyIfEbJnIjWzbru8Mmp/oTuI/ACIiIiIiIgJ0XfeWhM1Zk5Dx8XEAEwkaW+0TERERERFNUBQFlmXN+n41JWj5fN5bDMcEjYiIiIiIaIJt29B1vWj2bCYzaepsn8j/oKK00XEcr7aSiIiIiIhaW6WGGPNdaZ4kyzLi8ThM0yy6fDo1ZVW5XK5sIRwREREREc0PzAEmVPo5yLIMRVGKEjSRxE01k1bztJdI0Pwt94mIiIiIiOYbf3d713UhyzIKhcKsHmPWJY7iySRJQltbm5eYKYrCDLrEbLq1EBERERE1K+YBxcTPQ8ygRaPRoi74U6kqQRNPetpppxV1cOQb0/peO2Di+JiNoXEbQ2kHJ9IORjMOHDAZJWo0VZbQkZDRmZTRmVLQmZSxaIGC00/RGn1odcexiSi85vPYNN/M91ygNAErnUHzz6yV3s5/XdUJWqFQQCQSgWEYRQ9IxZp9E++9AxZe2lvAS3sNvHaggMLsO4USUYMloxLOWaHj/FMjOP+0CHramr+p077jE2PTi3s4NhE1KzE2nbcigvX9rTE2zXfzPRcQr1/E/yIHmJMSRwCwLAuRSMTL+BzHaepEpF5mupn36OgoHn30UezYsWPK261btw6bN29GW1tbYMdYyY6DJr79H2PYP8ioh6jZpfMunnrdwFOvGwCAt/VH8D82pdDXqTT4yGZvx0ETtz06hj0DHJuIml3p2HRBv45PbmpryrGJqBKxD9pkM2eTqTpBY1OQYF1++eV48cUXZ3Tbiy++GE8//XRdjuPIsI3vPzaO37xp1OXxiajxnttt4LndBt57fgw3vDOFtlj4T64dGbZxx2PjeIZjE1HLen53Ac/vHsRV58dwY5OMTURTUVUVuVwOkUhkVverei7Ztu15P40ZlMHBwRknZwDw3//93xgdHQ38OP5zex6f+O4gkzOieWLbizl88vbj2HnQnP7GDSTGJiZnRPPDI00yNhFNR6xBU9Xp58T8eRVn0ELgjTfemPV9Xn/9dVx00UWBHcOdvxrHg7/JTnmb7pSMd54RxfrTImiLy0hGZMQjEpJRnuEiCovxnIuM4SCddzGcsfGbNw08sTOPdL7yCbXxnIvP/ssQPnNVG959TmyOj3Z6sxmbLuiPIBXj2EQURq02NhHNhGVZkGV51nlT1QkaAJimWdWTUnjkCi7+10MjeH735IsX339BHBvXRbF6MbstEYVdKiYhFRPrN1S8rT+CP39PG17aV8AvfpvD4zvyFe/3zUfGsO+4hU9uSs3dwU5hurFJU4Arz4vjsjOj7ARH1ARaZWwimgmx1kxRFBQKhSnXnVVal1ZTkxBN02AYBhzHgaIoLHmsUqU37S//8i/xnve8BwCwbds2fOMb3yi6Poif9eC4gy/86xAOnKicYG85P45r355AZ5JdlYia3XkrdJy3QsdHNyTxL78e9xbl+/3f57J467iF/+8PFyCmN272aSZj03UbEuhIcGwianbNNDYRTccf0/u7OM52Mqvqv26advKMpSRJkGX+oaxWpWRrzZo12LhxIzZu3Ig1a9aUXV9rx8y86eKv7x2uGACtXqzh7k8vxJ9sTjE5I2oxS7sUfP4DC3Drx7uwsEJL65f2FfC1/xv8GteZmunYxOSMqLWEfWwiqlZptaE/7p9swqXqv3CJRAK2bUNRFEiSxNmzJvM/HxjBWxVa6F+4MoL/dX0nupiYEbW003pUfPOPunBaT3khxbO7DNz5n+kGHBXHJqL5LqxjE1E1xCyaP0GbySRL1X/pLGviD6jrukzOmswPfjWOl/aVr+vYfG4Mf/vhBdBrWplIRM2iPS7jGzd1Yv1petl1Dz6Twa9eq7wmpF44NhEREL6xiahW/u73k+VN/sStplORYt2Z67psFNIk/mt7Hv9WoSPaprNj+H+urO/m10QUPhFNwt9d24Gzl5UHQv976yjeODI3ba45NhGRX1jGJqJaiBxJ7INW2hCkdDZNJG9VJ2iO41R7V2qQsZyLf9pWXr995jINf/FeBkBE89lff2gBetuVssvnYs0HxyYimkwjxyaiWokSx0QiMW2/Dn/yxgRtHvnXJ9MwSyY6e9oV/O2HOhpzQEQUGvGIhL+/rqOsQ9qRYRu/eCVX1+euNDYt7uDYRESNHZuIaqUoChzHQSwWq1ja6L8ssBJHah7DGQc/fb68fOgvr25HPMKWtUQE9HUq+MQV5XsN3fNE/RblTzY2/dUHFnBsIiIAjRmbiIIgy/KstiObdYlj6YNyBq25/OTJ8kFsw5oI1vRxg1ciOuk958bQ11lcTnR8zMF/vFSfM9WVxqZ3rImiv5cdQYjopLkem4iCYNu2V+YoZsgmmzXzX171DJqiKN4Ti68pvB55sXwA+/jlXNtBROU+ual8bHjkpfJZriBUGpv++PLyM+VERHM5NhEFxZ+clQpsHzR/W32RFbLNfri9sKe8bfU1b4ujp50VrkRU7oJ+vaxz2p5jFkazwVZOVBqbPnAhxyYiqmyuxiaiIIlcqVK+NFniVtVfQVmWEY1Gi+opZ7LpGjXG87uNssuuOj/egCMhomax5YLyMeKZN8vHklpwbCKi2ZqLsYkoaFPNolVSdYJmWRZM04SiKN4COAqn35QMXF0puayOm4jI75zl5XsPVUqoalFpbFrcwbGJiCY3F2MTUZDEDNpk680qqbqOxLIs74ksy4KmsdlEGGUNF8dGi/tXX3BapEFHQ0TNIhmVsHpx8bi+K8CNYSuOTf0cm4hoavUem4iCJBKxmSwHC6TNvmmakCQJjuN4M2oUPoPjdtllp7I7GhHNwGklY8XAWHCVEpXGptN6ODYR0fTqOTYRBUnTNMiyXJagTVfuOKsEzf/gLGlsDoPj5e9TV5IlREQ0vc4KY8VwJpixv+LYlOLYRETTq+fYRBQk0RzEtu2yy6dSU4mjvyMJm4SE04kKZ6m7UuyQRkTTqzRWnKiQWFWDYxMRVaueYxNR0ES+5M+VKu2J5lf1X0PbtpmgNYHBCtP+PEtNRDPRXWGsqFSaWI2KYxNn94loBuo5NhEFTZIkqKpaMVcKfKNqljg2h+FM+YDVzbPURDQDHYn6naWuNDZxBo2IZqKeYxNR0CRJgqIoZWWOU6n6r2HpzBkTtnByuIc4EVVJqfAXwg5oUOHYRETVqufYRBQk0UzRMIq3gphu02rOoBEREREREdWJf1lY6eWVvq55Bo2IiIiIiIjKiQYhpY1CplL1pjNM0IimduzYMdx99904fvx42XVLlizBTTfd1ICjmhld1xGPx6u+/+uvv457770X2Wy27Lrzzz8f73nPe2o5vLqKxWKIRILZMPmxxx7Do48+Wna5oii46qqrcNZZZwXyPPWQSqUafQhUJ/N9bLrvvvuQyWTKruPYxLGJKGiTNQGpdL0fZ9CI6uDYsWP47ne/WzEAAoCDBw9WTF7CYjYLWUvt2LEDd95556Svb9euXVU/9lyo5bX7bdu2rWIAJJ5j3759gTxPvQT1c6Bw4dh0Z8XkDODYJJ6DYxNRcEQCJklS2fKwycoegRpm0Nrb272uJI7jsM0+0e+JACiTySAaT2DN2RegkM9hx8vPFt0uTCc5/NPukiQhkUhU9Tg7duzAXXfdBQDo6jkFS087HaNDx7H3jR3ebcK8flVRlJrOzgtbt27FE088AQBYsWotFnT14NC+XTh+9JB3m7AFGf7PQCQSga7rAKzGHhQFimPTXQA4NnFsIppbIleajapn0FKpFHK5HFzXheM4UBTuX0PkD4BiiSS2XPvHOGv9xTh26K1GH9qkiroGyTLa2togy7MfGvwBUHfvYlz14VvQv+YsHDmwL6AjrS9VVQMpndm2bZsXAK0+az2ueN+16OzuLQqAgPDtHSmOJxqNIhaLNfhoKGgcm+4CwLGJYxPR3PL/Pk2XpAXSxVGSJESjUbiuC1VVkcvlqn0oopZw7Ngx3HbbbUUBUCyewNZ7f4ATx48CAE45dU2Dj7KcODupKApSqVRVf5x37txZdHb6yg/djFw2jYfv/QHyuSxUTcfCvtO85wsbTdOQTCZrfpyHHnoIjz/+OADg9HXnYcO73of9u3biVw/fDwCIpRagrbMHQDh+DqXvdTweRzQabdDRUL1wbLoLAMcmjk1EjSE+z7NpEjLrBE3UULqu6/X1lyQpsIWrRM3o2LFj+M53voNsNusFQNFYHFvv/QFGTkys9eg/6yKkOnoafKQn+QeJWgOgH/7whwAmAqCrPnwLctk0tv7rHTDyOaiajpXnvh3RRHgWdvsDEF3Xqy6b8nvooYfw9NNPA5gIgN6x+Wrs37UTv/zpfQAmAqCV51wMWa26sjxw/rN5iUTi96VD1Eo4NnFs4thE1Hiii2PpurPJmohUNYNmWRZUVYXruohGo94mbETzkQiAcrkcorH45AFQZ3gCIODkQKBpWtXlMzMOgOK1nwEOkr9kJoh1HTMNgBQlPAGQ/0xeMpmEpmkNPiIKGscmjk0cm4jCY7p90Pyq+o0szf4cx2GjEJqXSgOg91YIgE4788LQBUCCpmlVn6FttgBIzP6LcSqoltXNGAABJwPBVCrFNcQtiGMTxyaOTUThIHKm2TQKqWraKwz1yUSNVikAiieSZQFQW1dvg4/0pKDKZ/wBUEd3T1kApKhaqAOgeDweeADUv+as8gAo2R6qAMh/Ek2SJAZALYpjE8cmjk1E4eG6LhRFgSRJ9d2oejaL3Iha0ZEjR/Dd734XuVwOkWjMC4Aeuf+uKQOg7PhwIw7X4y+fqXbB9WuvvYa7774bANC1cBGu/PDNyKbHsO3+H3oB0KoKAVBmbKjoGOaSPwBKJBKBlMz89Kc/9QKgVevOxTs3X4O9v9uOX237PwBEAHRJUQDkOjaMbLrm566GqH8XX6dSKZamtyCOTRybODYRhYf4bMuyPKvPdVUJmhhQmKTRfHT06FHcdtttyOfzE2enP/JHiMUTePi+OzE8OAAAOHXd28oCoKFjB3HwzVcBTJRuBLH4eyb8f/yAiTO01S643r59e1kAlMuk8fB9d/rOTl9Stuj+0K7tGDp6AADQ2zt3Z+3Fa/evZ1ADWAi/detWPPnkkwCAlWecg3duvgZ7frcd/1kaAPmey7Ft7H7lv5FLjwEATjnllJqPYzbEuC3LctVNFyjcODZxbOLYRBQuok/HbKsPq55BA8oHV6JWJ9pVewHQDEuHhgcO4a3XXwIw8Yf4pptumrNj9v+O1nKGdufOnfjRj34EYKJ06MoP34x8LlsUAK2q0BHt4K7XMHhoLwBg0aJF+MAHPlDlK5kdf+mQJElIJpOBlMyUlg5d+p4PYP+unVMGQK4zEQBlxiZmKc455xxcdNFFNR/LbDAAam0cmzg2cWwiCifxOz+bNWhVz6CJJxTt9me7QzZRs6l2XcfwwCHs3/kigIkA6Oabb0Z7e3vdj7d0bUOtAZB/Xcd7P/JHyOeyRes6pguA+vr68NGPfnTO2iWLs9NBlsyUBkAbr/rDCus6ygOgXb89GQCtX78emzdvrvlYZku0K6fWw7GJYxPHJqJwUlUVhUJh1pNbgXRxJGp1/gBIj0RDHwABxWsballwHVQAdP311wdSwjOd0rPTDIAm/kAEsdkthQ/HJo5NHJuIwk38zvsns6br58EEjWgapQHQlgoB0Ioz1ocqAAIQSPlMpQCodF1HmAIg4OSgF2TJTKUAaM/vXsN/bnsAQPgCIP/AX0u7cgo3jk0cmzg2EYVbtY0V2cWRaAqVAqBEqq0sAFqwcHHR/UaOH2546VCtZ2j9AVB7R5cXAG299wcoGHkoqhqqAMhfNqAoCpLJZOAB0IpVa8sCoGgiFaoACDjZjU7X9UA2u6Xw4djEsYljE1FzEJ/72Uxu1dQkpNKTU2WccWw+tQRA+3a8AABoa2vDjTfeOOcBUK1naP3tqts7urDluo+XBUArzynviNbos9NAsOsZSgOgK9537QwCICcUpUORSASxWGzOn5fqj2MTxyaOTRQm1SQg803p2tvp1Dw6idaRTNColVQKgGIVSoemC4BuvvnmOVv8HFT5TKUAKJ/NlAVAsWRxYHd4z86GBUBCkCUzDzzwAJ599lkAUwdAqnaysYDrONj9yjNzHgCVLjqOxWKBbHZL4cOxiWMTxyYKg9LNxQFW2FVS7bKwcGwhTxQikwVAD9/7A4wOnwAQvgBIqLV8ppYAaODALgBzGwDVaz1DLQFQenTiMzKXZ6f9Z+Vq2UuKwo1jE8cmjk1EzUecoKpriSOnL6mVHT58GLfffntTBkC1dsNqtgAIqM96hmYLgPyBYC3tyincODZxbOLYRNS8xO/CnJU4ErWKw4cP47bbboNhGNAjkaYKgGo9Q9tMAVBpHXc0GkU0Gg3ksZstAAJODvbJZHLOy7ZobnBs4tjEsYmoOfn3P6v7RtX+WTRRWznbqTuiMCkNgK768C1lAdDyteeHMgCq9QxtMwdAQZbMNFMAVLquo5a9pCjcODZxbOLYRNS8xJgwm+QMqGEGbaY7YROFXaUAKJFqLwuAOnr6iu43duJYwwOgWrth+QOgVHtHWQAky0poAiCgeD1DkCUz/gBo2WmrywKgSCwRmgAIKD4jV8teUhRuHJs4NnFsImpu1Xa4rHoLeyZn1ApqCYD2vDbxR3OuAqDSuuVoNBpoAPS+igHQxWUB0NH9bzTk7LT//3oGQO+65qNlAdCq8zYUBUAAQhEA8ex06+LYxLGJYxNRa7Ftu/5r0NhGk5pdMwVAQPFJkVrLZyoFQEY+VxYAxds6iu43cGAXju77HYDGnZ0O8g9/1QHQq79p6LqOWtuVU7hxbOLYxLGJqDXNdIKLqzZpXmqmAKh0bUOtZ2hrCYAO79kJoDEd0YIumaklABofGgDQmI1ea21XTuHGsYljE8cmotY1JzNo/CWkZtRMARBQfIa21m5YzRQA+YM/UTIjy1VXZRdp5gBortcS0dzh2MSxiWMTUeuq6z5okz0J16RRM/AHQKqmhToAEo14giqfaaYACDi5h07QJTPNFAD53/9a95KicOPYxLGJYxNR65ptc8Wa2+wTNYuyAOhDN5cFQMtWnxuqAEh8XWv5TBAB0LJly3DdddfNydlp8drDGABdeOGF2LRpUyDHMx3xumvdS4rCjWMTxyaOTUTkxzVoNC9UCoBSCzrLAqDORUuL7jc+NNDQ0qEgymf8AVCybQHed93Hkcumse3+u1Aw8pBmGADdcMMN1b+gWRABUNAlM/4AaMmKlXjXNR/Frh2/xeM/+3cAgB6NhyoAEmrdS4rCjWMTxyaOTURUigkatbxaAqDdr/4GwNzvJRRU+UxpALTluj9GLpvGw/fdCbNQgCQr6D/7D0ITAAlBl8yUBkCbP3hDWQB0eggCoNISiGg0img0WtfnpMbh2MSxiWMTEVUS2EbV/nrkRhPHJv6V1suH5Tip/poxAAKCKZ95+eWX8ZOf/ATAyQDIyGXLAqBke2fR/Y4f3DPnAZD/9zPokpkZB0B6pOh+jQiA/E0XYrEYIpHINPeiZsWxiWMTxyaqp9I4fbZroKixAplBC9ub7q+PF//EZf7ELaiuSxROQQRACxYswI033jin6zqCKJ+pJQA6tHs7gMYEQEGXzEhzyXEAACAASURBVNx333144YUXAMwuANrz2rNzXjoUZLtyCjeOTRybODZRvfnft0rfU7i1ZImjLMtwXReO4wConLD5L6fWUykASrYtmHUAdPPNN8/JAmjxWQyifKZZA6BIJIJYLBbYY9cSAI2dOAZgbkuHGADNDxybODZxbKK5FLZJFJqZlkzQRGLmT8j8yZo/YaPW4w+AFPVkALT13h9gfHQYQLgCICGI8plmCYBKS2aCXs/QTAFQkHtJUbhxbOLYxLGJ5op/uY/4nppHy/62OY4D27Zh27Y3yMiyDEVRoCiKN8tGreXAgQP43ve+5wVA7/nDG8sCoCWrzgpdABRE+UyzBEBAcalFPB6HruvT3GPmmiUAAk6epQ+iXTmFG8cmjk0cm2iu2bbtvZdMsJtL1e+W4zjeL6xYz9WIhEc8p6ZpkGUZ4+PjMAwDlmXBdV2oqgpFUbxETVEU5HI5dHd3w3VdaJqGQqEAWZYhyzLPMDSxAwcO4Pbbb0ehUPACoPYFnWUBUPfiFUX3Gx8ZnNMAqB7dsPwBUCLZViEAkkMRANW7ZMYfAJ2ydEWFACgWygCo1nblFG4cmzg2cWyioDiO48Wsrut6kxGxWMyLZ9PpNNrb23HmmWcikUhgbGwMr7zyCmzbRjwehyzL3v34/tbfbJdWua5bXYLmX8fVaOJYcrkcstmsd7bANE1EIhEMDQ1hcHAQnZ2dSKVSGBsbQyqVwsjICGKxmHdWQSRx1JxqCYD2zPHZ6aC7Yc0kADrtrIsaHgABqGvJzEwCoFXnhiMAAk62K08mk/wD2cI4NnFs4thEQRKTI/7ZMV3XYRgGdF3Hli1bsGnTJixZsgSxWMxLxnK5HHbv3o2HHnoITz31FGzbhqZp3hIgqr+Z5k6SJLVGiaNhGDBN0/uQDQwM4NixY1i8eDEURUE2m0UymUQ+n8euXbuQTCZx6qmnegldNBoNTcJJsydKhwqFAgDg3As3wLGtogCob+WZZQFQ+vcBkOs46OjowI033lj3AMh/hjaI8pkXX3wR9957r/f9+rdfjhMDR/DrRx+aCICkiQAotaC76H6Dh/Z6AdDy5ctx3XXX1XQcMyVeeyqVCrRk5oEHHvACoHgihbPftgE7X34Ov3n8UQCAFpkIgLRI8WzAvh3PewHQJZdcgo0bNwZ2TNMJol05hRvHJo5NHJsoaOJkgqIoRR1WY7EY/v7v/x5nnXUWAGB0dBQHDx70ru/o6MD69evxtre9Ddu2bcNtt92GoaGhQMt4aWqz+Z1q+gRNnBUwDAPZbNZbZ9bV1eWdOejv7/emgvv6+rykLZ/Po62trWgxMGfRms8dd9wBwzC87194+j+Lru9beSYW9p1adFn696VD/gAoyM1HJxNk+czQ0FBRAAQAv370oZPPJVcOgI4f2otDu14DcDIAquf6Av9i83qsZ3j++ee9vYQAIJsZx6P/9mPvez0ax6pz314WAO3d/jxGB48AAN7+9rfj0ksvDeyYpqMoCpLJJAOgFsex6SSOTRybKFilvRYefPBBLF++HGNjY/iXf/kX3H///cjn897ynVgsho9//OP4yEc+gne/+93o7e3FX/3VX8GyrEa/lHljNjPSVSdoYWmwMT4+DgDIZDLYs2cPenp60NXV5Z0RyOVyOHbsGLq7u5FIJKDrOqLRKDKZDPbv349ly5Z57XObqX3sCy+8gFwuN+3tDh9eBKCj/gfUQFP9HDoXLSsLgMZHBrHnld/AdR10dnbW/ex06bqOoMpnpnv/+/rXhSIAqvd6hmw2O+X1/WdfFKoAKIh25dQcODZVxrFpAscmqoY4seC6LhRFQTQaxVe/+lUsXLgQu3btwt/8zd9g7969kGW56Pc5l8vh1ltvxX/913/hS1/6Es455xzcdNNNuPPOOxv4auYXf1fN6VQ9Ejfi7IpoRiJKGUWJouM40DQNPT09SCaTsG0bb7zxBrq7u9He3u7df3R0FIcOHcJpp52GWCyGpUuXIhaLwXEcGIaBWCxW1PhErEsL45mkP/uzP5vR7c685mtYduFNdT6axkmn097Xl265Dn2nng4AePT+H+DEsUPQSqbuxboO13W8jV7nKgAK8gyt67rIZDLe99f80f+LeLINAPCTW/8OAKCVrGcYPLzPC4CWLVuG66+/vubjmIr/tderZMa2bW+GItnegfff9GkAwODRg/j5/5n4o6NqxT8HfwB04YUX1j0A8peOBdGunJoDx6YJHJs4NlHwRFWYLMs488wzcfbZZ0OSJPzDP/wD3nrrrYpN78TnfseOHfj+97+Pz372s7j++uvxy1/+Evv27YOu6ygUCqHqM9FqZtOMsOrTRY2eQRNZqCRJGB4eRjqdxqJFi6CqKiRJQm9vr7e55NKlS9HW1oZoNIquri5EIhFYloWOjg64rot9+/ZBkiSMj483/HXRzI2Pj89qan7ct65jLhfdA/DO0AYRADmOg7GxsVkt7B08vA8H33wVwNx2RAPqFwCZpunNoM9UaQA0F4vuWyUAGtz1BB75/CJc/bZE0R6T1f779JXteOTzi/DI5xfhxN6nG/3yAsWxiWMTx6bw+NGPfoQtW7ags7MTF1xwAT7/+c/jxIkTU97npz/9KT70oQ+hp6cHZ555Jj7zmc/g8OHDU97nqaeewg033IAlS5Zg5cqV+OQnP4kdO3YE+VIAwJs9k2UZmUwGGzduhOu6eOSRR/DKK69411UiyzJM08TPf/5z7NixA5ZlYcOGDXAcB7lcDqqqsjFMwKrNK6p6FxqVXftLEkTdbaFQwP79+2EYBkZHR7Fv3z4MDw+jt7cXHR0dXmOQ48ePI5lMYsmSJV455OjoKAqFAoaHhzE8PAxd14s6OYU5WXvmmWe8JHWqf5/61KcafaiBc10XY2Njs1ovmB4dmvMACDj5uxJU+Yxt296JhJl+Pv0B0IoVK+akI5p/4bJ/nWdQTNMsOks/E/4AaMOGDXUNgEpLxyKRSEsHQDSBYxPHJo5N4ZFOp7Fhwwbccsst2LZtG4aHh/HCCy/gq1/9Kvr7+/HLX/6y4v3e//734+qrr8aDDz6I48ePY/v27fjWt76FlStX4p577ql4n09/+tPYsGED7rnnHhw6dAi7d+/G97//faxbtw5f//rXA31dpml6bfZ1XcfKlSuhqiqefnriRFc0Gp30BJHjOIjFYrAsCz/72c/gOA7WrFmDQqGASCQCx3HY1bEO/NUKdS9xbBRxZkAkaJIkYdWqVd4G1KlUCqqqYmRkBOl0Gp2dnejq6kJbWxsOHToE27axcOFCdHV1efX2iUQCqqp6Cy5Fza5/+p/CwXVdjI+Pz2oASY8OYfcrz8x5AAQEe4ZWBEDCTB6zNAD62Mc+VvNxTMX/O1Ov9QyFQsFb2zGTgc51naIA6IorrsBFF10U+HEJ/sYDQDB7SYVBe99ZuOgT/4b3XRDD21fX/nr+/dkMfvPmRHfDtkXran68RuPYxLGJY1O4fOELX8BTTz0FAPjgBz+Im266Ca+99hq+8IUvYHR0FLfccgveeOONoo3Y/+mf/glbt24FAPzJn/wJNm/ejL179+JLX/oSRkZG8MlPfhIbN25EX1+fd5+HHnoI3/72twEA119/Pa6++mqcOHECX/nKV3DgwAF87nOfw6ZNm3DeeecF8rpEvwTDMJBKpdDb2wtgomuspmmwLGvKGXHR9fzIkSNe8zwxblmWNWWCR7PnHwvmRRdH13XhOA4ymYy3Z0c+n0d7ezui0SgOHz6MTCaDU045xTvbIGrC4/E4JEnyNvLL5/MwTRMLFiwI9azZfOc4TlEZaumZCP8H38XE5enRIQwc3AvXsedk0b1fkN2wLMvy1rSIkxTTPe7g4f0YHz4OAOjv78e1115b83FMZS7WM+TzeeTzee/5RB1+Kf/PZv/Ol7yfw8aNG+saAAHF+ykF0a48LLTYAnSddgnOWp/Cxgvi099hGq/lx7DLnr7RUTPg2MSxiWNTuIyMjOCb3/wmAOBjH/uYN/N19dVX45JLLsHll1+OQ4cO4a677sKf/umfevf74he/CAD4/Oc/jy9/+cve5Zs3b8YZZ5yBbDaLb37zm/ja177mXfd3fzextvKjH/0ofvzjk106r776apx99tkYHBzEV7/6Vdx///2BvDbRH0FV1Yn9FX+fjIm2+6IEstLvoZg5F+vNRLKnKIq3jxqTs+CJygJVVWecZ1Rd4tho4hgGBgbw1ltvAQAOHjyIAwcOwHVd9PT0YPny5SgUCjhw4ACGhoawePFiLF++HIZh4NixYzhy5AhM08TQ0BAOHz7sLY4Uu7RTeJSWz1SaJi4KiDDx+ciMDsF17DlZdO9/fjGbG8TvimmaRQ0HxB/+6X7JxR/+FStWzGkApOt6XX7OYmsM//NN9kfI/7MRP4crrrgCl1xySeDHJYjj8Lcrb+UAiCZwbOLYxLEpfHbu3Ol9/Y1vfKPoussuu8wrI3311Ve9y48cOYLR0VEAKNt/b+3atfjEJz5Rdp//n707D5OiPNfHf1dVV28zw2yAMzDssiNEETdQUOOWqMeg0ZjgduJOfnrMdr5GjyZqcjwnMUZjTE5M4q6JAq6JG0aJIAZNQBBcQPadYYaZnum9qn5/kCqqu6pneqnq7pm+P9fFBVR3V1X3zLxTTz3P+7zmY1144YUp25ubm3HjjTcCANauXZv3e0mnqqoRpCmKgr179yKRSGDw4MFIJBLG91imqS/62sF65mzfvn1QVRV+v58lji7QY4pc44q8MmilzjKZv/kaGhqQTCYhCAKam5uNgTEUCqG9vR1Dhw7FiBEj4PP5sGPHDqiqihEjRhgdHlVVxeDBg1FbWwtJkti9pgyZ79ACmWt4V737Jj5euRwA0Nm2z9je2NiIefPmuX532o07tOklM+md13Tv/OVZSDbtsd2+O12skpnu7m4kEomU4+r0zyPcFcLiRY8CABKmtacA9+9Op38OTrUrp/LGsYljE8em8qTfuPf7/WhubrY8Pm7cOKN7YfprAKClpcXymrFjxwJAymt2795tBOfmskfd+PHjAcDRZiF6lszn86GtrQ2bNm1CS0sLpk2bhhUrViCRSGRcNkoQDi5wLYoiZs6ciUQigU8++QSyLCMajSIQCCAejzt2rgSj+3wu88+APAO0Ugcw5k5geu2w/s3a3d0NSZKQTCahKAokSUJXVxc8Hg9kWUYikUA4HEY4HEZtbS0CgQBCoZARoOkRbqmDUDrIPOE60x1Jj8eDZDKJDtOFj66hoaEoF0A6Jy+A0ktm0t+7eQDev2eH5fXFKB0y/+IPBALw+Xy9vCJ3XV1dRsmF3eeg3wlWlST27thief2cOXNcvTudfl5OdcSj8saxiWMTx6byNWLECAAHv1cjkYix3q3u888/T3le+r/37NmD+vrUNWQ3btwIABg9erSxrampCX6/H9FoFBs3bsSMGTNSXtPa2goAmDRpUqFvySBJElRVNeaLLV++HGeddRbOO+88vPHGG1i/fj38fn+PzYpmzJiBmTNnQpIkrFixwmgQoic8yHnmKots9MkMmj7nTG8HunnzZvh8PjQ2NmLv3r0IBoMYNmwYBg0ahO7ubuzatQuDBg3C0KFDjTVadu7cadTcbt68GaNHj0Z9fb0R+OX6QZLz0rthZarpP+ecc/CPf/zDsr2mpgannXZaygRgJ9l1w0r/JZCvSCRirKED2L/3hoYGzJ49G5s2bbK8vqmpqSidwNyezxAKhVJ+ydj9PE6cOBHbt2/HgQMHLI9NnToVU6dOdfy8zOejXwgKgnNrSVF549jEsYljU3mbMmWK8e8XXnghpWTx008/xWuvvWZ5XlNTE6qrq9HV1YXnn38e/+///T/jsba2NmN+WXqwNWHCBKxatQo///nPLTceFi5caPuaQujJB03TUFVVhaVLl2LDhg0YOnQobrnlFtxyyy3Yvn277c98JBLB4YcfbpRevvHGG1i7dq0xb1Ivnyz1dX5/Yi5tzKV8tM8GaJIkwePxwO/3QxAE+P1+yLKMoUOHwuPxoKurC5qmobq62liYOpFIoL29HQ0NDRg3bpwxSVLv6JjLAnLkrlgshkjkYAOBTPM6dBMnTsTEiROLeXoA4Fr5THrJDJD5Z27mzJmYOXOmI8fNhfm9V1VVZSynyFcuHfF8Ph/OPvtsR4+fLf1708l25VTeODZxbOLYVP6qq6txySWX4PHHH8e1116LQCCAU089FR9++CEuv/xyAAdLjNPnmt1000248847cfPNN2PgwIG48MILsXHjRlx99dXo7u6G3+/HVVddlfKab33rW7jyyiuxYsUKXH311bjrrrsQiURw77334s033wQAzJ8/37H3pgdSmqYZ1WI/+MEPcP/992PUqFG4//778cADD2DJkiWW186dOxfXXXcdZFnGzp07ce+996Y02gsGg4jFYhVRBltM5qlZ2eqTXwFFUYwMmqqqGD16tFEP7/P5IIoiNm3aZEyE7ezsNDJiu3fvNlrshkIhBINBtLS0YMCAAcYi13Z19FQ82XbDKiW37tDaXQCVIzfnM+TTrrzYzOOEW4vdUvnh2MSxiWNT3/HAAw9gzZo1WLVqFc4777yUx/x+P5544gkMHDgwZfsdd9yB5cuXY/HixbjqqqsswdiDDz6IcePGpWz75je/ib/97W947LHH8NBDD+Ghhx6y7HPOnDnOvTEcmuqjj0Otra24/fbbccstt2Dw4MG47bbbsHnzZmzYsAHd3d2oqanBhAkT0NLSAo/Hg9WrV+Oee+5Bd3e30VnQ5/OlLDVFzsnnZzDvr0IpfimZSw/1AC0ej8Pr9SIcDmPjxo1oamrCYYcdhmHDhhkTKdvb26GqKoYMGYJhw4ahpqYG4XAYW7duxWGHHYYxY8ZAFEWjrpfys2bNGixYsMC4u1wqRx11FM4880xX9p1ePqPfoX377bfxl7/8xZVj5uK0006z1MA7JZuSmT/96U+2JV3F5PV6cdFFF2HYsGGuHYMXQH1LJY9NS5YswZ///GdXjpkLjk0cm4ptwIABWLlyJW688UY88sgj6OzsBHAwu/vQQw9lzG6/8cYbuOOOO/DLX/7SmEM2bdo0PPjggxnnDD766KM47rjj8OMf/xg7dhycdzl27Fj87Gc/w7nnnuvCu0sViUSwdu1aXHXVVZg/fz5mz56N8ePH4/DDDzfmSYqiiO7ubixcuBALFixAKBSCz+cru5tM/Zk5w98TTdPyD9BK8UOfPidMX2Q6Eomgrq4Ow4YNg9frNe5y6o0/Ro8enbLwXkdHB2pqajBixAg0NjbC5/MZaz9UWhmAU95//308++yzpT4NAMCGDRtc2W+mblh//vOfbUsJSsFukrITzBd/diUziUQCDz/8sGuffS7i8Ti2bNni6kUQcKhdOZU3jk0cmzg2Vbb77rsP9913H1atWoUxY8Zk9dncdtttuO222/DRRx+hubkZjY2Nvb7muuuuw3XXXYfPPvsM1dXVGDJkiBOnnxVRFOH3+xEKhXD33Xfj17/+NYYPH44JEyagrq4O7e3tWLduHbZt24aOjg4Eg0FmysqYIAh9q8TRHKDpEb8sy0ZKtqWlBeFwGO3t7di5c6cRwO3ZsweBQACDBg3Crl274Pf7UV9fj5aWFgSDQWbNCrRs2TK88MILAICBhw1By6ixRT1+6+4d2L750C9ft76edt2wFixYgBUrVgAAWkaNxcDDijcgA8C2jZ9h/95dxv/deO/pZb/pF0DRaBS///3vsWXLwS5lM078IgY1WVsUu2nFO2+gdfehbnFufA7mr79eJk3ljWMTxyaOTaT7whe+kPNrzE1EspVeAlkMsiwjEonA5/MhmUwiEong448/xurVqxGLxeDz+eDxeCBJEvx+v7HANbNnxeV6k5BSMafu9TeZSCQQCAQQiUQgiiLq6urg8XiMrFg8HkckEjG6ZR1++OGoqqpCIBAwFvrz+/2IRCK8m5CHlStXGhdAANC6Zyda9+ws4Rm5w3yHVi+fefXVV40LIADYvmk9tm9aX8KzdF428xkefvhh4wIIAN5/Z3FRz7FY3FhLitxTyWPTK6+8wrEJHJuocuiNPmKxGAKBAJLJpNGRccCAAVAUxXhOMpk0ro8BVFR3z1LLNkDLu8QxvdQwvbzCLeY1yvRjCYIARVHg9Xrh8XiQSCRQU1OD6upqY5X1xsZGYxVv/Q6CeVXvZDLpeKenSqHXWpeD+sNa0L5nuyv7tiufKZf3LnlkVA2oR2fbXsf3rV8ASZKE6upq25/xXbt2WbaVQrCmDslkAvFId+9PzoF5vPF6va61RidnlcvPJwA0NA1D2+5truzbbmzaubM8AlGOTQdxbCK3qapqXNfq03n0wEvv2wDACNT0Vv1UPPpYne1z+3zKyPxmJUkysmKapkGWZWMQT8+OMa3rrNrGwTh6tjuT33vStmcnVi47eFe0akC9awGa3R1a/Xto6KhxmHDkca4ctyebP/0In6/9JzyyD16/e7+YeyuZ0T+HyUfPQtPw0Rmf55bVy9/Cvl3b4K+qQaSr07H9pt94cnItKSqeUo1N+3fvwKp3D7bYDtbUuRagcWzi2MSxiahvyCWR1W8CNPPC0nZ/9LQiAzN3eH1+HDZ0ZNGPqyYPLRSKf31pnf4aZyqfMVpZVw8oyXvfb5RraUDa3MxCmO/K5lIyU9s4uCSfgy/gzgWg+QIoEAjA5/O5chxyV6nGJuVfd7EBcGwCxyYncWwi6v/6fIBmlv4LwLwwnHkicXqjEaJMKrEbVqXPZ0hvV+7kWlJETuHYxLGJYxNR32KOO3rLpjkWoJVqrQ3zJGGdni2zq/dMD9aIMqmkblgsmTnE/Dnoa0kRlROOTRybODYR9Q3pPTt06f080hUcoJU6yLE7vt1aZuamIkS9qbQ7tOaBwu/3w+/3l/iMSid9LSmicsKxiWMTxyYqJ+ZkCNcStmeecmXe1hN+klTxzO2agYPdsCrlAih9gAgGgxV5AZT+PVBTU8MLICo5jk2HcGw6iGMTUd+X/nNthz/lVNEqvXyGJTMH2a0lRVRKHJs4NgEcm4j6I/PSB5kyaQzQqKKZLwIqsXym0ktmzHex0teSIioljk0cmzg2EfVf+s2XTHPR8hr1zPO5zO3tifqKSu6GlX5nvqampiLvypovgDK1KycqNo5NHJs4NhH1P+YmhUARuzgS9RXpFwGVVD5jfu+VXjKjD5SSJKG6upoXQFRyHJs4NgEcm4iIARpVIPPd6UornzHPZ6jUkhnz178S15Ki8sWxiWMTxyai/st808k85tmpnNGfCKm/ACupfIYlMweZv/6VtJYUlT+OTRybODYR9W9208IcnYOm75Cor6nU8hleAKUOgpW2lhSVP45NHJsAjk1EdFDeAVolDqJk1RcCdbe6YfWF925WqSUz6fN6vF4vgsFgic+K3NYXfj45Nh3EsYljE1El0H/Ws2muyAwa5U1VVcTj8VKfRq/cuEObTCaRTCYL3o+bilEyE41Gy34sqPR25ZWIYxPHJo5NRFQOzDfhdNmM9QW12afKpSgKurq6yv4XoM7JC6BEIoHu7m4HzspdbpfMRCIRxGIxx/frlPR25YFAAD6fr8RnRW7j2MSxiWMTEZUjvUKCC1WTKxRFQSgUKvVp9MitbljxeBzhcNiRfbkh/Re/WyUz3d3dSCQSju/XSZXarryScWzi2MSxiYjKSS5rn5kxg0Y5SSaT6OrqKvVp9MqN8ploNIpoNAogu/rhUjCfl8/nQyAQcPwYfeECCAAvgCoMxyaOTRybiKgcmbs3pld3mMdG89idV4DWV0pHyFnm8hlzerZcOVk+k14yY/dDVk7cms8QCoWgKIrj+3VLpa0lVak4NnFs4thEROXIvNaZ3c0zR0sce1pYjfqn9PIZURTL+iLAyfKZcDhsNBzQL/7K+b0Hg0F4vV5H96lpGrq6uvrUBVAlrSVVyTg2cWzi2ERE5UqPmdJLHXurdmAXR+qVXflMOX/9BUFw7AIovWSm3N+7JEmuXACFQiGoquroft3k8/l4AVQBODZxbOLYRETlzDw221V3mAO1lA63+R6MGbTKkH6Hti983Z06x66uLqNddV95706XdqmqilAoVNYXfnb6wteKCsOxiWMTxyYi6gvMrfbN89H0bXZyDtAEQSj7+n5yRvod2nIvn3FKeslMX7kAclpfa1dOlYNjE8cmjk1E1Bf0lkHLpKASx/SIsBJ/UfRX5ju0urL/Zfivb79Cvg/tSmYy7a98Pg8BsFkIsRDmduVZz20p0edRPl8HKgaOTRybODYRUV+hjwPm8cq1hapFUUwJyjgI9S/5dMMqh+B858aPASDvOR6qqqKrq8u4AMr2e1tAad67/pnHo2G07twMIP/3bmZuV57NBVA5fO0BoKN1N5TkwayKU+3Lqbz0pbHJPC5wbOLYxLGJqDKpqpoSNwGp3YYdbbNfLoMeOauQCdflEKSrShKBQADz5s3L/bVp8xmyuQAyJnWitHdnNe3g12vw4ME477zzCtqnuV05kN3nYDxeqgvhfx1XvwCaPHkyTjjhhJKcC7mjL45N5nGBYxPHJoBjE1ElEgTBCNLM23qTdwaN+pdCu2Ht27kVT/3yDofPKjd+vx/XXnstBg8enNPr7OYzZHNRpz9n/ZoPsH7NB7mdrMMGDhyIa6+9tqC71OZ25bmULOvPe/e1RXj3tUV5H98JkyZNwmWXXVbScyBncWzi2MSxiYj6KlEUoShKxm6N5vHMvD2vSIsZtP5FVVV0dnamlM9kq6Wlxa3TyonP58PVV1+N5ubmnF6XTCaNu9O5zqMcNmxYrqfpivr6elxzzTUFlc5Eo1HLWlLZGjp0aN7HddK4ceNw+eWXl/o0yEH9ZWy65pprODbliWMTEfVlmqZBkiRommYJ1PTHdY6WOEqSlNJNi/qWfO/Q6iZMmIBrr73WmLTtNlEUbe/ENjQ0oL6+Pqd96i+nbAAAIABJREFU5VMyYzZr1iyMGTPGaPXtNkmSEAgELNubmppQVVWV934jkQhisRiA/NaS+trXvoatW7e6VkqWfj5er9d2PaUxY8a4cnwqDY5NHJs4NhFRX6ePEbnOn84rQJMkyTiQqqopk92o7zB3wwLyX+i0oaEBDQ0NTp6awXynQZIkVFdXO5LBTS+ZybdNd653xbOV/rWQZbmgC51MzO3KC/kchg8f7vSpGczfA8Fg0PHFbqn8cGzi2MSxiYj6m1xKHPOeg6aXnOgBGtvslycxw5ck/QKoHJp82DG+UT0ex7pfmS+AdOX2/tPvyjrRAS1dOBy2ZL/L7XMADn0PVFVVQZblEp9NZVFsvh0yjSm54thkxbHpII5N1Bs3xyYiJ5mXJdOTWZmCMkEQ8g/QzLWUeiaNgVn5qg1aM5vt3Sr8YmrpSzl/DZ2+Q5te9lPO793v98Pv97uy7770OVRXV8PjyXvZRspTZ9jamMNuTMkHxyarvvQzybHpII5NpeHm2ERUDvIeVRRFgcfjMaI9ZtDKU12VZNnW3q1i1CB/3iUjxSQIAnw+n6P7DAQCfWLepCRJrt6Vra6utiz4W45kWYYkWb+PyX3t3daLoHqbMSUfHJusODYdxLGJeuPm2ETkJPPvMrvpYJlip7wDtNbWVgwePBiCIBgtJKn81FVZvxk6ulUIgz2OX1z0FZIk8ZcqDpZm8c4v9eSA3UVQtTN3qTk2WXFsOohjE/XGzbGJyEl6ACbLslEdkCmpVXCbfQApnZX0bBqVn3qbiyC7O09EROnau6w33uzGlHxwbCKifLk5NhE5LX0Omt1jQGo2Le/vZkEQjBLH9ANQ+bC7S71+V/mX0BBR6X22y1pmFvQ5U8rOsYmI8uXm2ETkhkydGzOVOBYUoCmKAlVV4fF4GKCVqSH1EmoCqV/8dz6OluhsiKivCEU0rNma2qxhynDn5h1xbCKifLg9NhE5TdM0qKraawbNrOAMmj6ZW2+7T+Xn+HGpnbbau1V8soN3qokos6WfWIOlmeOd7drHsYmIclWMsYnIKekZsvSAzJUMWqa6SSovJ4y3Trh/8YOwzTOJiA56bkW3ZduJE529COLYRES5KsbYROQURVEgimJWDaBSOj7me0C7NB2VpxljfAh4UwPoJeui2LafnTeJyGrJuih2tKWOD+OaZccn4XNsIqJcFGtsInKK3uk+mUymBGnmZcpsX5fvAdkKuG/50lFBy7ZH3g6V4EyIqNw9+naXZdu5M6xjiBM4NhFRtoo5NhE5wWibL4op1YZ6YKYHaubnCoLAAK1SXHRClaXD0XufxfDpTs73IKJDXvswgj0dqXeoRwz04OTJ7pQQcWwiomwUe2wicoKmadA0DbIsZ5waZpdFY4BWIap8Ai46ocqy/Z6XOhCOsQMnEQF7OhT84a/W7NUVp1S7dkyOTUTUm1KMTURO0LveA8jYUNGuj0feAZreWp/dG/uOc4+uQl0w9Uu+o03BnQsOlOiMiKhchGMabn26HV3R1KBo4lAZM8ZYm3k4iWMTEWVSyrGJqFCZ2uv3RNO0wgI0vdW+qqrMqPUBXg/w3X+rtWxfvTWO+//SWYIzIqJy8aMF7djZnlo+5JcFfPdc65jhNI5NRJRJKccmIqfk0u0+7zloei2l3n2EmbS+48iRXvz7KTWW7a99GMG9f+aFEFGlCcc03PJ0Oz7aap3zdfNX6tBUV5ybbxybiMisXMYmIidk6taYSV4BmqqqB6M7UTRSd7kemErn/GODtusPLV4dwX8+2WYpIyCi/mlPh4IbHt6PVZvjlscuOakaR4/xFvV8ODYREVB+YxNRITRNyymDlnOJo75zTdMQiURyOzsqK989pxYjBnks2z/amsD/94f9lnICIupf1mxN4IY/7Mcum5/16aO9+NpMa+OOYuDYRFTZynVsIsqXnsTKNpklCAKsvwVz5PF4kEwmuXB1Bub1DcqJTxZwx0X1uO2P7djSmkx5bG+HgusfasWXjwriqydYJ+8TUd+1fb+Cp5Z2Ycm6qO3jXxjpxc1fqSvyWR3CsYmoMpX72ESp9ClO5vW8cs0UVQJJkozPqaeFqdPlHaAxIOv7BtaIuOeyBvzvCx1YsSGW8lhCAZ5/P4w//zOMM78QxLFjfZg8zAtvwSE9ERVbJK5h5aY4ln4SzXjxAwD/NiOIq79onQdWbNmOTWcdGcQxY304ciTLnYj6or42NhHlSp8KZo6bsgli877cZoTcPwS8Am7/ah3+8NcQFv49bHk8oQAv/SOMl/5x8LGpI7w4YrgXTXUSBg+QMLhWwuBaButE5WJnu4I9HQr2dijY3a5g1eY4PtvV+6LP//HlAThtaqAIZ5idbMamFz8I48UPDj42bYQXUzg2EZWtHW0K9nYeHJt2tSv4sI+OTUS50AO0ZDLZ63PNGcicAzSmMIvjiiuuwBVXXFG04/37KTWYcbgfD77Wia2tmb+JVm+JY/UW66RdIuqbpo3w4rozBmBYY3l2RMt2bPpwSxwfcmwi6jfKfWwiyoZe0qgoSo/ljelxVV4ZNAZn/dMRw2X8+qpGvLIygsf+FkJnmB3TiPqrIfUSvnlqDY4bW/4LvXJsIqocfWlsIuqNOUDLRUEljuZokFm1/A0ZMiTn1zQ3N7twJgeddWQAcyb78eQ7XXhuhbW0iIj6rqBPwNdmVuP8Y4OlPpWccWwi6r/68thE1BNRFNHW1oaGhgbnm4Skdx6RJAmqqh7s1S+KOXUmoVQjR47ElClT8NFHH2X1/KOOOgrDhw939ZwCXgFXnlqDi06oxvufx7BifQwfbIwhEufXmKivqa8SMeNwH4453IejRnnhk/vuzTSOTUT9R38am4js6Amt3koc9efq8s6gaZoGWZahKApUVYWiKOzsWIClS5fi1Vdfxccff9zj8yZPnowzzjijSGcF1AQEnDLFj1Om+AEA67Yn0BlREYlriMY1hOMaYgmNwTlRGRAEAQFv6p+GagmHN/W/9qscm4j6jkoam4jSiaIISep9LmVBTUJ0kUgEPp/P2BmDs8LU1tbioosuKvVp9GpSi1zqUyAisuDYRERE5Uafe5ZrnJR3VKUvTi2KIjRNg6qq+e6KiIiIiIio3zBPA8u1T0feAZoeCSaTSWbQiIiIiIio4unBmDmBpW/LNlArKEBj10YiIiIiIiIrURShKErKHDRz/JQplio4g0ZERERERESpVFU1OjnmIu8oy+Nh5x0iIiIiIiI7+jy0WCxmeaynJcryjrL0AI1ljkREREREVOnSAy5VVaGqKpLJJIAizEEzZ9AURTEOTEREREREVKnMjUIkSSpem31JktDe3g5RFOHxeFjySEREREREZKKqKmQ5u7U69cCuoE4fW7ZsgSAISCQSheyGiIiIiIio31FVFV6vt9fnmcsfCwrQ9M4k2UaFRERERERElUSW5YwNQewUFKDJsgxFUYwe/0RERERERJVMD8b0xaq9Xq9tgxDH10HTD6ppGqLRaMoCbERERERERJVKj5NisZglg5YemKX/v6AAzev1QhRFyLLMdvtERERERET/omkaIpFIj80U7WKovAI0fUfV1dVQFCWvFbKJiIiIiIj6K73EURCEjMksu7lpBWXQ9L7+iqKwUQgREREREdG/CIIAURShqmrGJiGOZdB0evZMEAQuVE1ERERERBVLEASoqgrg0Bw0SZJy6uAI5BGgmaM8c7ou1xWyiYiIiIiI+iM9QBNF0TZAy1TyKAhC4SWORERERERElEqfDtbbPDQzTdMKC9B8Pl8hLyciIiIiIuq39EyaWU+BWsEZtEyLrhEREREREVUyVVWhKIr7c9DMAoFATik7IiIiIiKi/iY9CFNV1ejR4WqAZg7C9ANFIhFomsZ10IiIiIiIqKLp8ZJe2mhepDrbhFZBGTR9dWwARktJIiIiIiKiSqdXGuqJLU3TsgrSCg7QJEmCx+NhiSMREREREdG/mPt15DIlrKAATRAEeDweljcSERERERGZmBeuziWZVXCApqqq8YeIiIiIiMqPPicq14YVlDtN06CqKnw+H+LxeM6fu6f3p2QmCAKCwSBEUWSJIxERERFRmTJ3FNSDBV6/O8s83ww4OAfNLjAzf+52X4OCMmjm3v6SJBWyKyIiIiIicole8cYMWnHpgbFZT1+DgheqBoDu7m7IsoxoNFroroiIiIiIyCV6owpRFG0DB3KWJEk9JrEyZTDzKnHU03fmlpGyLOezKyIiIiIicpn5+l3Ppnm93lKfVr8Wj8dzqjLUA7aC56DpLfaTyWTKQmxERERERFRc5gSKzjz/rL6+HmeffTZCoRBee+01xONxAAev66PRKIO2POnNEyVJMj7TeDxum6m0y5yZt+UdUelRuNfrhaIo8Pl8bLdPRERERFRCeqDg9XoRiUTg8/kQDofR0NCAiy++GGeffTaqq6uhaRrmzJmD+fPnG9fxPp+Pc9QctHv3btTV1aV8ptk0Zik45dXV1QW/3882+0RERERERWbXkVGSJEQiEXi9Xmiahi9/+cu4/PLLMWzYMEQiEaxbtw4jR47E4YcfjpEjR2LHjh1GYMfOjs7Sk1o9fa7pjxUcoHV0dKCxsRHJZJKdHImIiIiIiij94l7TNIiiiPb2dsyaNQu33norWlpaIEkSkskkbr/9dqxatQqPPPIIhg4dipqaGgAwyvPIOfpSZOlBWnrAlv7/ggM0fd6ZLMvMohERERERFZEoiinNPzRNw7Bhw/DDH/4Q06ZNQ11dHVpbW7Fo0SK88MIL6OjogCzLCAaDiMfjCAaDxpJZvWV6KDeSJBkBWvraZz2thVZwgOb3+yGKIpLJZKG7IiIiIiKiDJLJZMrcMk3TEI/HjXlmtbW1uOCCCzBv3jx4PB7EYjG88847uP/++7Fr1y54PJ6U1u+CIEBRFCPDowd7lDtFUeDxeIwOmclkEolEIq99FRygBQIBAAcjRDYJISIiIiJyh9frRSwWQ21tLTo7OxEIBJBIJNDV1YULLrgAV199NXw+H2RZxqeffor7778fa9eutWRs9GwbOU//XAVBQGdnJwYOHGg8lm12suAArbq62ogUiYiIiIjIPR6PB9FoFIFAAMlkEieddBIuvvhiTJ48GaqqYuvWrViwYIHRQl+WZaN00bwWGjNlzkpfZ04QBKNstKfX2Mk5QNMPDhyMvj0eD7Zs2YLhw4ezzJGIiIiIyEX6fLFIJIJzzjkHt9xyC6LRKOLxOJ5++mk8++yz6OzshN/vh9/vRzweh9/vz7vcjnKjx0qqqqKqqiqvQNiRlaX1haqJiIiIiMgd8XjcmOckCALOOussxGIxLF68GH/4wx+wf/9+JBIJyLIMAIjFYpBlGbFYzJKtYTMQ55lLSVVVNRqwpD+nN44EaB6Ph5MKM+A3PxERERE5Qc/O6EFaOByGIAgYOnQoRo8ejf3790MURYiiCEVRIEkSEokEPB6PK9fp5oAkfZ5bpfF6vYjH48Z6cpIkGY1cMrXUz9Q1U3TihCr5i0FEREREVAx6oJVMJhGPx7Fw4UJomobJkyfjhz/8IX7xi19gxIgRCIVCEATB6PBoFwgwseIs8xQwWZZTOm3qzMGs+e/0fxcUoOk78vl8DNKIiIiIiFykKIqRHQsGg3j//fdxxRVX4LnnnoOiKJg4cSLuvfde/OAHP0BdXR18Pp9RDknu0tvsA/aLfpuDskxlj/rfjmTQEokEo3AiIiIiIheJomjMbYpEIvD7/di4cSPuueceXH/99Vi7di18Ph/mzp2LJ598EhdddBEAGB3X9et1QRAgio6EAfQv+merl5Xq8wAz6Sloduwrw8iciIiIiMg9oihCkiSEQiEMGDAAkUgEXq8XPp8PW7duxTXXXIMf/OAH2LRpE6qqqnDZZZdh0aJFOPnkky2ldrx2d5YoikgmkymBr3lNtJz2le9JmA8kyzK/yERERERELtKzYD6fD7FYDJIkGdkwQRAQCASwevVqXHXVVfjFL36BXbt2oaamBrfccgv+53/+BxMnTjTW6tJfpygKFEVhV/YCqaoKWZYRj8ehaZqR7bSLkezKHM2POdLFUV9bgalSIqLyc99992HdunUp22644QZMnjy5RGfUu7vvvhubNm1K2faf//mfGD16dInOiIioPKVnxvQ1uJ555hm8/PLLuOGGG3DKKafgqKOOwpw5c/DUU0/hySefRCQSQSAQQCwWg8/nQzKZhCzLRtaHcqMHu3pAFolE8k5gFRxRqaoKn88Hr9db6K6IiKgfCofDePfdd/HGG29g/fr1pT4dIqJ+TRAEdHd3IxgMIplM4u6778Y111yDpUuXIplM4pxzzsHvf/97DBgwAPF4HK2trVBV1SjRo/zpmTMg+7JGu+fllUEzp+U0TUMkEoEkSb1OhiMiyteDDz6IDz/80Paxm2++GSNHjnT1+K+++iqee+4528e+8pWv4Mwzz3T1+H1VR0cHfvzjH6Ojo8PY9uUvfxnnnntuCc/KWXbfm0OGDMGtt95q6eKVr8ceewzLli1L2XbaaafhggsucGT/RNR3mRt/6H/r89NkWYbH48H27dtx55134tVXX8Xll1+OUaNGAQBef/117Ny5E7W1tayGK5BeNqqXNeoZNV0u2TRHShzj8Thqa2vZyZGISuKdd95xPUBLvzim7Pz1r39NCc4A4JVXXsEXv/hFBIPBEp2V+3bu3IlXXnkFZ599dqlPhYgqUDwehyzLRuv3eDwOr9eLVatW4corr8Tw4cMhiiI2bNiA5uZmtLe3Q5ZlJJNJx24sVRo9gaVnIfMNzgCHujhKksTgjIhK5v3330csFnNt/59++in27t3r2v77s7a2Nss2VVXR3t5egrMprldeeQW7du0q9WkQUT+X3pFRz+SYG1XoC1wrigKfz4ddu3Zh+/btqK6uRigUMh5ncJY/Yw0zUYQoiojFYrbxUTbBmiMBmsfjSZkUR0RUTLFYDO+//75r+1+6dKlr++7vWlpaLNt8Ph8GDRpUgrMprmQyiccff7wib2B2dHTgpZdeSvmzZMmSUp8WUUXTuzcCh9r1k3PMn68gCMYNSnN8lOnf6QoqcdR37PF44PV6ja4veuRORFQs77zzDmbNmuX4fru7u/HPf/7T8f1WipNPPhkfffQRPvvsMwCA1+vFJZdcUjGNpT7//HMsWbIEc+bMKfWpFFVnZydefvnllG0tLS2YPXt2ic6IiHS8RneXXlaaSCR6fW569tOIrZw4EUmSsG/fPgwcODCleYj5QEREbtq8eTO2b99um7EpxHvvvceuVgXwer349re/jb179yIcDqOpqQmBQKDUp1VUixYtwrRp01BfX1/qUyEiAnDo+rwSM/xu0jther3erOZZZ4qXHGvVUmm/cImo/LzzzjuO75PljYUTBAGHHXYYRo0aVZG/K2KxGJ566qlSnwYRVbj0eWoMzpxlnvuXTCaz+n2XnkHTORKg6SuPm9vv6yuaExG5JX2MWbFiRVYlBdnauHEjdu7cmbLN43Gk8IAqzOrVq/HBBx+U+jSIqIIxIHOXJEnGYt+JRMJYfiyfeKjgAE3v889gjIiKbcqUKSn/D4fDjs4Xs8vITZ061bH9U2X54x//iO7u7lKfBhERuUBPVCmKYnTGTH+8p9eaH3esxJEtqImo2I4//njLNqfKHKPRqCXj4fV6cdRRRzmyf+rf9EVgzUKhEJ599tkSnA0REblNX0NOXyDcXFloXkTc/HcmjtXqdHZ2OrUrIqKsjB8/HvX19Slraq1fvx67d+9GU1NTQftesWIF4vF4yrYZM2a4VuK4f/9+bNu2De3t7YhEIpAkCdXV1Rg8eDBGjBhRlK6HXV1d2LRpEzo6OhAKhRAMBlFbW4uWlhYMHDjQ9eO7LRQKYdOmTWhtbUUsFkMgEEBNTQ2ampowdOhQR481btw4NDc34913303Zvnz5chx33HGYMGGCo8fL1969e7FlyxZ0dHQgkUigpqYGNTU1GDZsGBoaGkp9ehnt2bMH27ZtQ1dXFyKRiDEh/7DDDsPw4cNZikxERaeqqrF8gaIoRsmjHX2NukwKHsH0CXF+vz9lchzrXInIbclkErNmzcJLL72Usn3p0qW44IILCtq3XSbuxBNPxL59+wrar1kkEsHbb7+N9957D7t37874PEmSMHnyZMyePdtS1umElStX4q9//SvWr1+fceweMWIEZs2ahRNPPDGnkva1a9fi/vvvT9k2adIk3HjjjQWdc7Y0TcP777+PJUuWYMOGDRmfV1dXhyOPPBJnnXUWamtrHTn2V7/6VaxZswahUChl++OPP47bb7+9ZEsNxGIxvPXWW1i2bFmP1S9Dhw7Fsccei1NOOcWYS2HnpZdesrTUt7N9+3Zcc801lu3/8R//gYkTJ/b6+tbWVrz99ttYvnw5urq6Mj7P4/Fg0qRJmDNnDiZNmsQpGERUFPqi4F6vF+Fw2Mii2XE1g2ZO3dXV1RnbzYEaB0YicksymcTMmTPx8ssvpwQWy5cvx3nnnZf3XfStW7di69atKdtaWlowatQo7Nq1q6Bz1i1ZsgTPP/88wuFwr89VFAWrV6/G6tWrMXbsWFx66aUYPHhwwefQ0dGBRx99FGvXru31uVu2bMGWLVuwfPlyXHHFFY4c323btm3DI488gu3bt/f63AMHDhhBy9lnn40zzjij4OMHg0FcfPHF+O1vf5uyvbW1FS+++GLBNxHy8f777+NPf/qTJWi0s2PHDixatAhvv/02vv71r+OII44owhlaKYqC119/HS+//HJWS14kk0nj52XChAm47LLLyjobSET9g6ZpUFUVsVgM0WgUVVVVts/JJjYqaA6aORAzr4GmH1hRlEJ2T0TUo0Qigfr6ektWqaurCx9++GHe+7VrrX/iiScaxyxEMpnE//3f/+Gpp57KKjhLt379evz4xz/OKqjqSUdHB37+85/nvJ+NGzfiZz/7WdnPO16+fDnuvvvurIIzs3g8jkWLFuGJJ55wpBJk+vTpto1lFi9ejC1bthS8/2xpmoannnoKv/vd77IKzsza2trwq1/9CsuXL3fp7DJLJpP4zW9+g+effz6v9Qg/+eQT3Hnnndi2bZsLZ0dEdIgoikaJI2A/7yyb4EwQhPwDtPS1FAKBADo7O42ujgCMEyQicoMeLJ100kmWx/Jdvywej2PFihUp27xeL4499lgAKGjRakVR8OCDD2bsNOnz+TB69GgceeSRmDRpUsYsVTQaxa9+9auCgrSnn37aUlbp9XoxZMgQjBgxAg0NDRl/kXR0dODee+8t246Ey5YtwyOPPGL7tQoEAhg/fjymT5+OiRMnYsCAAbb7eOeddxxr6PGNb3wDfr8/ZZumaXjssceKdiPz0UcfxZIlS2wfa2howKRJkzB9+nSMHTvWtvRS0zQ88sgjWLVqleUxn89nzF3T/9jdORZF0fK8mpqaHjPdjz76KFavXp3xvCdPnoyjjz4aU6ZMyZglC4fDuPfee7F///6MxyEickIikYCmafD5fMYSZEBq3JRNkOZYiSNwcHKceWVyVVUZpBGRa/QL8ClTpqCurg4HDhwwHlu3bh3279+PxsbGnPb5j3/8A5FIJGXb0UcfbSw4WUiAtnDhQtugqqGhAeeffz6mTZtmmeuza9cuvP7665ZmE4qi4Pe//z1uu+22lBLzbJkboBxxxBE47bTTMHbs2JRJy11dXfjggw/w0ksvWeb8tLW1YdGiRbjkkktyPrabNm7ciCeffNKyvbGxEXPnzsWRRx6Z8ntJ0zR8+umnWLBggSXL8uabb+LII4/E2LFjCzqnuro6zJ0717JY9fbt2/HGG2/gzDPPLGj/vXnjjTdss19jx47F3LlzMXr06JTtyWQSK1aswKJFiyzZtieeeAKHH344qqurjW2nn346Tj/99JTnbdu2DXfddVfKtiFDhuC//uu/sj7v1atXW26WAMDEiRMxd+5cDB8+3PLY5s2bsXDhQnz22Wcp27u7u/Hkk0/ihhtuyPr4RES50DNogiBAlmWoqtrrazIFa4612QcOTsxND9iIiNyiZ9BEUcSsWbMsj+eTRbNrDmLO0OVb4rhhwwa8+eablu2TJk3CD3/4Qxx99NG2jRiam5tx2WWX4frrr7fc8Oru7sbvfve7vEvxBEHApZdeim9961sYP368paNUdXU15syZgx/96Ee2F8NLly7F5s2b8zq2G5LJJP7whz9YslJjx47FrbfeiqOPPtryGQqCgAkTJuD73/++bQOWJ554wpFzO+mkk3D44Ydbtr/00kuulovu3r0bzz33nGX7qaeeiu985zuW4Aw4+Lv8hBNOwM0332zp3hkKhfDCCy+4dr5mdj8v06dPx4033mj7/QgAI0eOxLe//W3brPratWtZ6khErkokEkYpY65xkOProOk79Hg8EEURsVjMKHskInKLOViaOXOm5U7Uu+++m9MAuWvXLnz++ecp24YOHZqyplW+GbRnnnnGsm3UqFG47rrr4PP5en39tGnTcOWVV1q2r1+/HmvWrMnrnL7+9a9j5syZvT6vuroaN9xwg213w7feeiuvY7vhrbfesnTZHDRoEObPn49gMNjja71eL6688kpLxnX37t349NNPCz43QRBwySWXWMr5kskkHn/8cdc6Hy9cuNASsE6fPh0XXnhhr2U2jY2NuOaaayxB7d///ndEo1HHz9UskUhYPndBEHDRRRf1et6CIOBrX/saWlpaLI85uZA9EZFZMpmEKIrw+XxGqWM2zNWHOkczaOFwGKqqwu/3QxAE1wdwIqps5gCtoaHBkgE5cOAAPvroo6z311v2LP2Y2Vq/fr2lIYQkSbj00ktzarV+1FFHGXPhzF5//fWcz2ny5Mm2WYZMampq8JWvfMWy/Z///CdisVjOx3eaqqpYvHixZfu8efOyvlkYCARw9tlnW7b/7W9/K/j8AKCpqQlf/vKXLds/++ykLmlcAAAgAElEQVQzLFu2zJFjmO3evdsyf8vv9+Mb3/hG1vsYPnw4jjnmmJRtsVjMtvTQSQcOHLBc3AwaNCjrJRAkSTIa+5j1tJwFEVEhFEUxShz1v4Hs5pylKzhAMx/U6/VCVVVjUhznnxGRm9KDJbsLMrugy04ymcR7772Xss3cHMT8vFzZncMxxxyDIUOG5Lyv888/31KKuH79+pzb/8+ZMyfnYx933HGWC+R4PI5169blvC+nffTRRylzEIGDGcpcF4Q+5phjLEHzJ598UvD56c444wzbRbEXLFiAjo4Ox44D2Jf4zpkzx7aBR0/sfq6c/Ezs2DVPSV84vjfjx4/HnDlzUv7YlZkSETlBlmUkEgl4PB5Ln470IC292WL6NkczaLIsQ5Iko+6ypxWyiYgKlR4sHXHEEZaGGWvWrLFcuNtZuXKlpSvh9OnTLdmXXAM0TdNsG4Mcf/zxOe1HV1tba9u2Pb0pQm/yuYEmCAKOOuooy/ZitovPxK7MMz3zkw2Px2NpCtLV1eVYB0A9c5r+yzoSieDpp5925Bg6u89kxowZOe9n5MiRljJct+ceNjY2Wr5HDxw4gPXr12e9j+bmZlx88cUpf0499VSnT5WICMChQEtRFCiKktJW367csaf2+45FUHoHR30VbSIit6Vn0ERRtMyp0jTN0gHRjl22wa4EMNcSx507d1o6IHq9XowbNy6n/ZjZBWi5XLgWwi4DUQ4Bml2AOn78+Lz21dTUZNmWvnB5IUaOHIlTTjnFsn3lypVYuXKlI8fo7Oy0lPNVV1fbzsvqjSRJliUf9u/fb/m+dpIsy5g4caJl+29+85uC1jgkInJLIpGAJEnGjVy7rFk2c2iBAtvsA4ciQlVVsXfvXgwbNixlAWsiIrfYZbNmzZqFv/zlLynjz9KlS3HWWWdlHBj37dtnKdkaMmSIbYe7XDNodqWHLS0tedWk68xNS3TF6k5nV56X3pij2BRFsXRC1BcLzadDol03TafLD8877zysWrXKkpl7+umnMWHChIKbbO3cudOybeDAgXl3jLRrshIKhVLa7TvtnHPOwbp161Ju+nZ1deHBBx9Ec3Mzjj32WEydOtX2e5KIqNgkSUI8Hred5pXr7/yCAzRzIKaXN3q93qItvklElcsum6UvumsuK9y/fz8+/vhjTJo0yXY/dtkzu3k3mY7Zk7a2Nss2uwxNLtJbnwNwNZthZtekIX3duGJra2uzVG6oqorbb7/dsWM4/R69Xi/mzZuH++67L2V7R0cHFi5ciHnz5hW0/9bWVsu2zZs357QOWW/c/rqPHDkS8+bNs+1yuWvXLjz//PN4/vnnUV1djbFjx2Ls2LGYMGECAzYiKhlN07B//35UVVWlrA+dK0cniQWDQeOXJMscichtmbJZdqWJmdZEUxTFsoivLMs47rjjMj4/F3bdbAvNjni9Xku79u7u7qJULfj9fsu2UgdoxTh+OBx2fJ+TJk2ynYv4zjvv5DynMF0xuii78ZmkmzlzJm644QbU19dnfE5XVxdWrlyJZ555BnfccQduvvlmLFy4kB0biaio9Hlne/bs6TEwy6bM0bF10ARBgM/ngyRJRokjm4QQkZsyBSRTp061ZHpWrVqFUChkee6aNWss5WtHH310xnWzcg2C7DJuTqwRmR6gaZpWlHb3oihaxnZFUfJeH84JuXb3y4db7++rX/0qampqLNsff/zxvBdFB/r2Z5Ju0qRJuOOOO/DVr37VNnucrq2tDa+//jpuv/12/OpXv8q5wykRUT4EQTBa7ev/1//OFJRl2u5oBCUIAiKRiLE4G+egEVEp2DULscuUAfYt8DOVN+bDLhgr9MI2UzCWHrS5IZFIWCokBEEoyrEz6ctLulRVVeGiiy6ybN+7dy9efvnlvPfb326Qer1efPGLX8Rdd92F73//+zj99NOzmsu5evVq3HnnnXjzzTeLdKZEVIn0ZcZkWUZ1dXXBMZCjv1FlWYaqqsZcNHMUSURUTLNmzcIrr7xiaRZy+umnG/9vb2+3tMBvbm7GmDFjHDsPuzWnCi3Ji0ajlsFfkqSiBEl2gaETGcFC2H3GLS0tjs63ctOMGTPw97//3dIW//XXX8eMGTPy6rxo95mceuqpuPDCC/M+z3IgCALGjBmDMWPG4Pzzz0c4HMbnn3+ODRs2YO3atbbNchRFwTPPPINEIoEzzzyzBGdNRP2dpmkQRRHhcBh+v9+4kdlb5kyvOkxXUPSUvkNZltHd3W1EkaW8o0pEla2xsdHSFGTPnj0p7eiXLVtmCXTs5q8Vwq7LXaFratnNrWloaChon9myaz6RqRy0WOyCEae7LrrtG9/4hmWtMVVV8dhjj+U1p9vu+66vfSbZCAaDOOKII/CVr3wFt956K+666y6ceuqpttcfzz//vKPLJRARpTPHP9k0CHGlxNEufbdt2zaIoghZlotSA09ElIldqaJe0qhpGpYtW5bymMfjydgcJF/Dhg2zbCt0kV+7LEFzc3NB+8yWXfv2QYMGFeXYmQSDQXi93pRtoVCoTwUk9fX1mDt3rmX7li1b8irPS1+wHSjeUgylNGjQIFx44YW4+eabLXP7NE3D4sWLS3RmRNTfKYoCr9ebslRLLl0czc91NIMGHCx10TQNiUSCGTQiKim7ZiH//Oc/EQ6HsW7dOksL/OnTpzueDRo8eDAGDBiQsq2rq6ugO/nppXAAMHbs2Lz3lwu7BbFHjBhRlGNnIgiC7QLa69atK8HZ5G/27Nm25bUvvviibeayJ8OHD7dk5Pbs2VNw9ravaGlpsS3nTF/vkIjIKYIgIBqNwu/3Zyxd7ClgMye+HJ8g1tjYCI/HA4/HU1AHKiKiQkmShBNOOCFlWyKRwN///nfb5iBOlzfqxo8fb9mWqe1/b0KhkGXeHABMnjw5p/3k06hEURSsWrXKst1u4exis/uMlyxZUoIzyZ8gCLj00kstNzfj8Tg+/fTTnPYlSZJt0NoXPpO9e/di/vz5KX9uvfXWnPfzhS98wbKto6OD67QSkWPMJeiKokBVVXg8npQOjpn09BzHAjS9KciAAQOgKAoSiYTtejlERMV04oknWga/N998E6tXr07Z1tzcbHtB6wS7wG/ZsmXYt29fzvt64YUXLBeYI0aMyHlx3nzK5pYuXWpZ+8rv92dcALyYpk+fbvk6b9q0yTagzEYsFsP27dudOLWcNDU14Utf+pIj+5oxY4Zl29tvv227eHo29uzZY7tUhR27C45su5rV1tYaSzfof/bt24f29vaczleWZUujMkmS2LyMiBynaRpUVYXP57PcABVF0bbVfvqY6FiJo90OzSdY6sVLiYgaGxsxceLElG379u2zBDlOttZPN27cOEsZYDKZxKOPPppTJuuTTz6xzbyddtppOZ/Tp59+ildffTXr5x84cAAvvviiZfuMGTMs879KYdCgQbYByaOPPppzeWA8HscDDzyA//7v/y5JxunMM8/EkCFDCt7PMcccY2keE4vF8Nvf/jbnDOq+fftwzz334M4777Qtc01nnoOhyza48/l8GD58uGX766+/ntXrdZs3b7Y0WKmtrc1pTggRkR09uDJ3Y5RlGYlEIuvx1TwWpY9Ljt9G0u9MKYrCOWhEVBZ6K130eDw4/vjjXT0HuwYQ69evx0MPPZRVOfiGDRvw4IMPWu64jRw5EkcffXRe5/Tcc89lddHb0dGBX/ziF+jq6krZLooiTj755LyO7YYvfelLlt874XAY//u//5t1Nmzfvn34+c9/js8++wzJZBJPPfVU1l8jp0iShEsvvbTgQEKSJJx99tmW7Zs2bcK9996L7u7urPbzySef4Kc//Sk6OjrQ0dGBe+65p9fvG7sukp2dnVkHy3Y3TN566y289957Wb0+Fovhj3/8o2V7rqXARETZUFUVgiAgHA4jmUz2uDh1NhwP0PS7VQzQiKhcTJ061dKow8yN5iDpJkyYgDPOOMOyfdWqVfjRj36EVatW2c6NaW9vx4IFC/Czn/3MsgaZ1+vF5ZdfXtAvgYULF+KnP/0p1qxZY7nrFwqF8Oabb+L222/Hrl27LK895ZRTci6tdFNzc7Ptos8dHR34yU9+gmeffTZjeV9XVxdee+013Hnnndi0aVPKY9FotOi/z0aNGuVI8Dtz5kzbAH7Dhg24/fbb8fbbb2esdtm7dy+eeOIJ3HvvvSkdMTVN67VcsaqqCvX19ZbtTz31VEpgqGma7d3mE044wdKZVNM0PPzww3j44Ydtvx+BQ/Mkf/KTn1i6pQqC4GqmnIgqjyAIxpiorwWdqUFItvsDHFioWj8x806Bg3ekFUVhKQERlZzeLCRTSV+xLtr+7d/+DZs3b7Y0fNi3bx9+/etfIxgMYvjw4aitrUUsFkNbW1vGbo+iKOLf//3f826vX1dXhwMHDgA4eLH+wAMPQJIkDBo0CF6vF6FQCAcOHMh4Id7U1IRzzz03r2O76aSTTsLWrVstTWAURcHixYuxePFiDBkyBAMHDkRVVRXi8Tj27t2L7du3277X5uZmXHHFFSX5XXbeeedh1apVec8Z01166aXYs2ePpc1+KBTC008/jWeeeQbDhw9HfX09fD4fwuEwdu7cmXGO5DHHHJOy4HsmU6dOtZSIrl27Ft/73vcwePBgAEBbWxvOP/98zJ49O+V5kiTh6quvxt133225MfHee+/hvffew8CBAzFkyBBUVVVBURR0dHRg69atGQPOL37xiyXvOEpE/YP++0JVVaN60OPxGNv1havtZPP7xPFbgh6Px1io2m6iHBFRKZx44om2AVpTU1PRWtRLkoRvfetbeOihhyxNSoCD5XjZtAH3+Xz45je/iWnTpuV9LjfddBMeeOCBlItwRVFsF8FO19jYiJtuusnSxr1czJs3D7W1tXj55ZdtH9+5c6ftem7pRowYgfnz59uW6xWDz+fDvHnzcP/99xe8n+9973t46KGHbJdoUBQFmzZtsmQO7Rx//PG45JJLsrrAOPnkk7F06VJLZlhRlIwZMLMhQ4bgpptuwi9/+UvbcszW1tasSyZPOOEE2zJjIqJ86CWMehCmqiri8biRnCr0pp4rrYy2bdsGr9fLhaqJqGwMHDjQ0iwEKF72TOf1enH99dfjggsuyKu5xrhx4/Bf//VfBQVnkiShqakJ3/nOd3LuwDh+/Hh897vftV0IuZycc845uP76641MTS4kScJpp52G733ve5Z19Ipt8uTJOPbYYwvej8/nw/z58zF37ty8ynmrqqpw6aWX4vLLL4ckSVm9prm5Geeff37OxzIbNWoUbrvtNkydOjWv1wcCAVx88cW47LLL2L2RiBwniqJR3ijLsqVBUm+BWqbHXSmq1wMzvQ6TiKgcnHTSSfj444+N/xejOYgdQRBw2mmn4bjjjjMaH/S0gLDH48GUKVMwe/ZsR1ra6xfo9fX1uPHGG/GPf/wDb7/9NtavX59xzB45ciRmz55tWVeunE2bNg1TpkzB8uXLsWLFCmzYsKHHNbDq6uowffp0nHzyyRg0aFARz7RnF154IdauXWtp0pIrQRBwxhln4MQTT8Rf//pXrFy5stfmKUOHDsVxxx2HWbNm5RXYnXrqqaipqcHChQuNktp0vQVOdXV1mD9/PjZu3IglS5bgww8/7LVLdFNTE44//njMnDkTNTU1OZ83EVFP9ClegiAY/TdCoRACgYDl90xPC1ZnXNBacyCCMtdhAgcnFg8cODBlflqlEgQB27ZtgyzLGDp0KOfkEZGtffv2Ydu2bWhvb0c0GoUsywgGg2hubsawYcOK0so+FAph8+bN6OjoMH7R1NbWYvjw4WhsbHT9+G6LRqPYtGmT8f4SiQR8Ph/q6+sxZMgQNDU1lfoUi+7AgQPYunUrQqEQQqEQNE1DIBDAwIED0dLS4limVFEUbNy4ETt27EA4HIbP5zO+t3LNcmqahh07dmDXrl04cOAA4vE4ZFlGIBBAfX09RowYwaCM+pS33noLN910U1ksWWLHfC2vByTV1dX43e9+B6/XaywLoncyrBT6/LNEIoFEIoFNmzahpaUF8XjcKH80l0GaF6ZOX6Q6/W9HM2h6QKbPQzNPliMioswGDRpU8qxNTU0NjjjiiJKeg5v8fr9tmWslq6urK0q5qiRJGDt2rCPzPQVBQEtLC1paWhw4MyKi3OmBqizLiMfjxs0tPVmlB2HpgVe2XCnI9nq98Hg8FRVFExERERFR/6coCrxeLxKJBARBgKIokCQJiqI4kpxyJUCrqalBJBKxtMYlIiIiIiLqy/S5Y6IoGt3re1oDzW5Jsp64EqCJooj9+/eXbS0tERERERFRPmRZhqIoUBQFyWQSgUAAXq83JRAzB2O5VBUKguBMgGZ30KqqKq6BRkRERERE/Yoe4+hZtGg0aplvlqnUMVNjEDNXMmiqqiIYDEKSJM5DIyIiIiKifkNvjKi31JckydLFMtcsmvn5rgVoei0mERERERFRf6F3rJdl2WgUYm6nn0+CypxxczRAM58M2+sTEREREVF/k0wmjeXEBEFAW1sbgEOZNbOeFqo2/9+8zfEMmr7zWCxmrAVARERERETUH+iBWTQaTcmiAT0HZEXv4pheY+n1eo1UHxERERERUX+gr30miqKRlOpp/lkulYWCIMDj6NmaVFdX48CBA6itrU3JpGVaH4CIiIiIiPqOlMYWFZSYEQQBiUQCwKH5aHqMkymDlk2po861T1IURezcudOt3RMRERERERWdKIrQNA3hcBiCIKC2ttbynN6ahZjLHl2fg2ZWV1fn5u6JiIiIiIiKKplMQhRFCIKAAwcOYMCAARmrBHNdpBpwOUDLt80kERERERFROdI7OMqyDEmSUoIzu/gnl/XQAJcCNP3APp/Pjd0TERERERGVRDweh6ZpkCQJiqIYC1YDuWXMMnGtzb6qqhgwYAC6u7tTtlfi+mjMJBIRERFRfyJJElRVhSiKFbe0liRJkCQJoVAIHo8HiqL0mjnL5v861xaqBg4GY5FIJGVl7Urq8EJERERERP2LqqpQFAUDBgwAcCgB1VOZo1lPjwuC4N4cND0YCwaDAA52O1EUpSIzaERERERE1D9IkoREIoFYLIZoNOr4MmKuNwmJRqMAgFgsBq/XW3EpUCIiIiIi6j+SyaTRXr+36kBzVs38d6bHAZcDNOBQlxNJkhCPx+H1et0+JBERERERUcE0TTP+6PTKwP3798Pn81m6NBaaTXO1i6OmaThw4ICx0rb+ZoiIiIiIiPoCPUDTY5xEIgGPx4NIJAJJkgD03L0xUxYtU1bNtQDN/EeWZWiaxuCMiIiIiIj6DHNMY86kaZqGcDhsLFhtfm4hxwJcCtDMKcCmpiZEo1GIoghJktjFkYiIiIiI+iQ9zlEUBclk0thuN7fMboHqTFkzM9ejJVmW0dnZaZxIJBJx+5BERERERESu0AOzxsZGqKpqZNcA+8Ar16yaawtVA4ciTL17YzKZhM/nc/qQRERERERErrALsKLRKAKBgBHvmEsdM7022+DN9Tb7+t/6gtUscSQiIiIior5IbxZSVVVlLB+mZ9AylS/mug60x5lTTWXu4qiqKnw+H3w+n5FFY5BGRERERETlzhx46U0Po9EoFEWBJEk9zinLZe0zM9ebhGiahlgsBo/HYzQKISIiIiIi6kv0AM3r9SIajRrBWz7Bmb4/u9e5ug6aLhgMorOzE/F4vOCF24iIiIiIiEpB0zR4PB5Eo9GU7b3FOL0FcebHXa011CfL6Qu5+Xw+roVGRERERER9hnkNNEVR0N3djQEDBmR8br7bdK4GaOZ2k/v370cikXDzcERERERERI7Ts1zJZBKRSASBQCBlu/5v87aeyhszHQMowjpoesQ5duzYlMXciIiIiIiIypkgCFAUxeiroVcDps8fyzS3LJ910YrWTlGWZaOrIxERERERUblLL2+sqqqCz+dDMplMyZSZs2e9dazvLYBzLUBLP1nzotVERERERETlTtM0I+BKJBIQRTFlGpdZts0Qe3ueK+ug2Z1EMplELBZDVVWVsV1RlKyizL5K/+Ixc0hEREREdvSSuXK/VtQDFT2TJAgCJEnq91OY9Fb68Xgcqqpi+/btaGhogKqqtvPPzMzbcil1dD1A04MUURRRU1OD7u5u+P1+43FJkow32N+Iomh0siQiIiIiSqdpGiRJKvu1gs2ZJI/nYAihKApEUUQymSz788+XOZZRFAUejydl8er0ZiCFBmqCILgfoOkHVFUVXq8XHR0dCAaDiMfj8Pv96OrqQlVVVdnfNciHpmlGtC3LcqlPh4iIiIjKjCiKfaLTuR6UaJqGRCJhLNisZ9NUVe2XVXGiKCIajSIUCgEABg0ahEgk0ut7zWddNF1RShz1k0gmk6itrU1JkZq/sP2RKIqQZRnxeBydnZ1QVbVfBqNERERE1Du9uioajUKWZQwcOBBXXHFF2WagzNkiPZukZ5FUVYXH40E8HjcaAvY3eiAqSRISiQSi0ahtYxDz32a9Zc/sCJrLn6Te9UT/IwgCduzYgaamJiM9mkwm+2XErd9J6OzsRFtbm/H+++N7JSIiIqLe6eWAsiwjmUwaLdzLOVmhX7vqJY2iKMLv90OWZTQ2NhrTlfpjgJZMJhGNRhGJRBCLxRAMBo3r+fTrertAze7fvT1etCYhOk3TMGDAACPqjsViCAQC/TKrpEfWNTU1xrw7PVAlIiIiospjzkaVc1DWG0mSjHlZeoljX34/wKF5dqqqQpIkI1vW0dEBVVVRW1traa/vBtczaMChdKiqqsYb7+joQFVVFSRJMtKiREREREREpaAvSq3/GwBaW1vh9/sRj8cBpDYBzBSo9VT62FNrfv3fRam101Oe+kH1N64HZQzOiIiIiIiolPTGfqIoIh6PIxwOQxRFbN++HZIk9dpW36yQ7FpRAjRzW079ZGtra9Ha2sqmGUREREREVHKCICAWi0HTNHg8HrS1tQEAhgwZktLUsKcW+z0FZtkubF2UEkcgddFmff6ZXtNZU1PDxhlERERERFQyegYtEolg//79RiMXr9cLwFreCBTeEMTu30WLiuwiRk3T4PP5IMsyYrGYkUnTazzNDTXYXIOIiIiIiJySSCRS1mwWRRFdXV3o7u5GIBBAZ2cn/H6/MVUr6wxYgc1DipZBA6xZNP3/XV1d8Pv9xsQ8n89npBHT113o691hiIiIiIio9PRFws3dKDs7O5FMJhGLxVBTU4NEImF0rMzUGCTTvLTemodk+ndR6wrt6jU1TUN1dTXa29uNuWr6+hButq8kIiIiIqLKZF6jWQ/AYrEYwuEwotGoEZzpgRmQf6Io15imqBk0wD6Lpm87cOAA6urqEAqFUFNTk9JchBk0IiIiIiJygt4TQ5ZldHV1GYGZqqqoqalJWZTbvCB1puxZPv/O9FjRAzTAPkjT6z5DoZDR3lL/MMyRKxERERERUSE0TUM0GoWmaWhtbUUgEEAikUAwGDQWozZX9KU3Bsk26Er/fzavK0mABvScSfN4PNizZw9qa2uRSCTg9Xohy7IRxOkrfAuCgGQyCY/Hg2QyaXRZSZ+3lv5vIiIiIqL/v72z63FTh6LongLTJA+tNGr//7/rU9uHdlIavnIfqsN1iAEDJkMya0lVwDYGHDpiZ/scw33hM2xME3Tr6rrW8/OziqJoxZarH+q6Vp7nen191cvLi37+/KlPnz6pKIqLeDPXKHKzzk91xUK3pQ0INNu2DI72aar29+/f+vLli/I81263U9M0bapLywTZNI2SJFGSJKqqyns+HDgAAAAAgPvFJ1s+fPhwle09SRKVZam6rpWm6cXxx+NRZVnqdDopTVPlea79fq8kSS5i0vqcM/fTeBiBZvQ5aTZAkvTjxw99/PhRTdPocDioKAplWXYxgJZ9xb4kw+emAQAAAADAfeEzXFxxZmKqqqp21l1ZliqKQmVZqixLNU2jsiyVpqnO53M7tdHnmoVMaQwVXW7ZmPu2GYFm274pj7aa9/F41Ldv3/Ty8tJOefz8+XMb0GfrFNi8Uen/AcVBAwAAAAC4X3yyxUwdN69FURQqikJN0+h8PivLMtV1re/fvyvLMn39+lVlWbZ9uMJM0lXmxlWnM25RoBmuGLPPrkiT/g1YURQ6nU46n8/tWgX7/V51XWu327VWJuIMAAAAAOBxsfCouq5bt8xyVLy+vupwOLTTF3e7XXuMqxF8a5yFrlm2Rt1mBJrkd9PGtk2M/fr1S3/+/FGe58rzXMfjUX///lVVVRcxbhu6XQAAAADoQHjKegyZFksMjbn9TlobzHkubDtJEknSbrdTlmXa7/d6fn5WmqY6HA7Kskyn06nVAb5pi74U+ktizrr7c7I9bkqgSf7Mi32fZls2TaO6rtuMLKagbb9pmrZt9xwAAAAAsB0sWzeEEyp0huKiprSZ09dY+1gOlO89vyu8hgRZaJxYyP7c41JtDJ869rU5n88X6TJdrM6XcAQnDQAAYPu4Qf/wj6F3o0eim5EPxhn7/zLFlfT11VfmewfvazP2/Fq9G09m++77vttPV5C5x7j33ifCpi4+7WPOcWNidXMCzRi7cPviTIhZvdmU7pdh6ffNbeM/PgAAAMA2cRM0wDhLhMDUOp/ImuKMhewb7ppj7nZfH33n9PXjE3BTr3VunXQtVrv1mxVoLj678upG0lR1XbcCzf1na6OZ+nZdNIQaAAAAwHawdzne0cLpE09W13fMWJ/d/TnTIWMKuilTCftE2Nixt2DsnHch0KQwRZ8kSbsemuugmVCz+DRi0gAAAAC2icWg4aKNEzJGUwXalPK5MVZ9ZbEdK1+btd2yLnPG6G4Emo++Oa3d1b9tXTSzzE3A4aQBAAAAbAsctGlMFQgh9WsKkLH+Y+2PCbKp1xxKjB8W7lqgGe7Au+uldZ0011HDSQMAAADYHjho0wkdqyXuWOyyOcJwjqsVU6dBf/4AAALiSURBVABOub4l+w8h0FzcObjdIFPffFTp2kFzt32Df8vMUmPX4mvbbTeUQWdK/0Pn7eu/r2zK9Yecd8653Gu2866ZIWvqWC8Zj+65Qvtacv8hz1+scy0h1nmH7stYcp6517nGuE7JwhWb7nMV8/tz+3XLYz8fYzHUY9c01Lbbfu3vammfY/cYUv9IL+0xxmOo/l7wJUwYuqfQbIBLr8mu5R6Z4hYNlS91ndYUMb79JW2H2o89B3PGYnBst7YOWiy6a6WZY2Zro1VV1e53szs+6JAAAAAAbB5bRon3sTBCfohdU7CFCo/YYm1Nobf2ucbKHs5BM+wGzSa3lcbTNG3rqqpq/whIulhlnD8KAAAAAG/HvbpXb8GY69htG1oeU2wtKVvihK3lqg0dM1Y/1sfDCjTj6eky0NQeYHe/aZqLxCGIMwAAAIC3YYrYgGtCxm6qo/YWZTGF1y2O7yub0+bhBZp06aYZ5qQ9Pf3L6uhigalMdwQAAAC4Ld0f0yGMECdnKD4vtoPmK5szBdPXZo6AnzPNc2qbWP2+C4EmXYq0voA/E2vmpAEAAADAbQlNzACXhAi0uSJliXibI+bm9h3D9Zpz/bFdwncj0KTLQTA3zY1J6/5ag5MGAAAAcHtw0MKJ4f5sccrjUP0Sty72MXPbDPGuBJp07aS5vyaYa+aun9bN7MgfCwAAAID1IAZtGjFjzqZMgZwqtIaOXytOLWab0ON8TB2rdyfQJL+T5mZ5dGGqIwAAAMDtYIrjPGy8QtaBGxJhc+LE1hRBS8rWnooYs8wtf5cCTfKLNItBs23L7tg0zYVQw0UDAAAAWA+mOI5jY7Q0EcecuLQlMWl95TGduyXi/hZTGMd4twJN8v9C49u2XxPcmDQJoQYAAAAQG6Y4hrN0mmFo3VB9bAH2VmVzYuPmHBvS9l0LNOk6Jq2u63aao0/AIcoAAAAA1oMpjvOJ4f7EFHixhUtf+ZrTDd+iz/8AuuK+aqOjFCwAAAAASUVORK5CYII=;" vertex="1" parent="1">
          <mxGeometry x="410" y="550" width="382.3" height="210" as="geometry" />
        </mxCell>
        <mxCell id="xMQF3Xm1KzFrfOHQRXqz-4" value="257 x 257" style="text;html=1;align=center;verticalAlign=middle;resizable=0;points=[];autosize=1;strokeColor=none;fillColor=none;" vertex="1" parent="1">
          <mxGeometry x="190" y="785" width="80" height="30" as="geometry" />
        </mxCell>
        <mxCell id="xMQF3Xm1KzFrfOHQRXqz-386" style="edgeStyle=orthogonalEdgeStyle;rounded=0;orthogonalLoop=1;jettySize=auto;html=1;exitX=1;exitY=0.5;exitDx=0;exitDy=0;entryX=0;entryY=0.5;entryDx=0;entryDy=0;" edge="1" parent="1" source="xMQF3Xm1KzFrfOHQRXqz-6" target="xMQF3Xm1KzFrfOHQRXqz-385">
          <mxGeometry relative="1" as="geometry" />
        </mxCell>
        <mxCell id="xMQF3Xm1KzFrfOHQRXqz-6" value="Keypoint heatmap" style="swimlane;whiteSpace=wrap;html=1;" vertex="1" parent="1">
          <mxGeometry x="840" y="460" width="200" height="200" as="geometry" />
        </mxCell>
        <mxCell id="xMQF3Xm1KzFrfOHQRXqz-7" value="" style="ellipse;strokeColor=#BFBFBF;" vertex="1" parent="xMQF3Xm1KzFrfOHQRXqz-6">
          <mxGeometry x="15" y="26" width="10" height="10" as="geometry" />
        </mxCell>
        <mxCell id="xMQF3Xm1KzFrfOHQRXqz-8" value="" style="ellipse;strokeColor=#BFBFBF;" vertex="1" parent="xMQF3Xm1KzFrfOHQRXqz-6">
          <mxGeometry x="35" y="26" width="10" height="10" as="geometry" />
        </mxCell>
        <mxCell id="xMQF3Xm1KzFrfOHQRXqz-10" value="" style="ellipse;strokeColor=#BFBFBF;" vertex="1" parent="xMQF3Xm1KzFrfOHQRXqz-6">
          <mxGeometry x="55" y="26" width="10" height="10" as="geometry" />
        </mxCell>
        <mxCell id="xMQF3Xm1KzFrfOHQRXqz-11" value="" style="ellipse;strokeColor=#BFBFBF;" vertex="1" parent="xMQF3Xm1KzFrfOHQRXqz-6">
          <mxGeometry x="75" y="26" width="10" height="10" as="geometry" />
        </mxCell>
        <mxCell id="xMQF3Xm1KzFrfOHQRXqz-12" value="" style="ellipse;strokeColor=#d6b656;fillColor=#fff2cc;" vertex="1" parent="xMQF3Xm1KzFrfOHQRXqz-6">
          <mxGeometry x="95" y="26" width="10" height="10" as="geometry" />
        </mxCell>
        <mxCell id="xMQF3Xm1KzFrfOHQRXqz-13" value="" style="ellipse;strokeColor=#BFBFBF;" vertex="1" parent="xMQF3Xm1KzFrfOHQRXqz-6">
          <mxGeometry x="115" y="26" width="10" height="10" as="geometry" />
        </mxCell>
        <mxCell id="xMQF3Xm1KzFrfOHQRXqz-14" value="" style="ellipse;strokeColor=#BFBFBF;" vertex="1" parent="xMQF3Xm1KzFrfOHQRXqz-6">
          <mxGeometry x="135" y="26" width="10" height="10" as="geometry" />
        </mxCell>
        <mxCell id="xMQF3Xm1KzFrfOHQRXqz-15" value="" style="ellipse;strokeColor=#BFBFBF;" vertex="1" parent="xMQF3Xm1KzFrfOHQRXqz-6">
          <mxGeometry x="155" y="26" width="10" height="10" as="geometry" />
        </mxCell>
        <mxCell id="xMQF3Xm1KzFrfOHQRXqz-16" value="" style="ellipse;strokeColor=#BFBFBF;" vertex="1" parent="xMQF3Xm1KzFrfOHQRXqz-6">
          <mxGeometry x="175" y="26" width="10" height="10" as="geometry" />
        </mxCell>
        <mxCell id="xMQF3Xm1KzFrfOHQRXqz-17" value="" style="ellipse;strokeColor=#BFBFBF;" vertex="1" parent="xMQF3Xm1KzFrfOHQRXqz-6">
          <mxGeometry x="15" y="46" width="10" height="10" as="geometry" />
        </mxCell>
        <mxCell id="xMQF3Xm1KzFrfOHQRXqz-18" value="" style="ellipse;strokeColor=#BFBFBF;" vertex="1" parent="xMQF3Xm1KzFrfOHQRXqz-6">
          <mxGeometry x="35" y="46" width="10" height="10" as="geometry" />
        </mxCell>
        <mxCell id="xMQF3Xm1KzFrfOHQRXqz-19" value="" style="ellipse;strokeColor=#BFBFBF;" vertex="1" parent="xMQF3Xm1KzFrfOHQRXqz-6">
          <mxGeometry x="55" y="46" width="10" height="10" as="geometry" />
        </mxCell>
        <mxCell id="xMQF3Xm1KzFrfOHQRXqz-20" value="" style="ellipse;strokeColor=#d6b656;fillColor=#fff2cc;" vertex="1" parent="xMQF3Xm1KzFrfOHQRXqz-6">
          <mxGeometry x="75" y="46" width="10" height="10" as="geometry" />
        </mxCell>
        <mxCell id="xMQF3Xm1KzFrfOHQRXqz-21" value="" style="ellipse;strokeColor=#d6b656;fillColor=#fff2cc;" vertex="1" parent="xMQF3Xm1KzFrfOHQRXqz-6">
          <mxGeometry x="95" y="46" width="10" height="10" as="geometry" />
        </mxCell>
        <mxCell id="xMQF3Xm1KzFrfOHQRXqz-22" value="" style="ellipse;strokeColor=#d6b656;fillColor=#fff2cc;" vertex="1" parent="xMQF3Xm1KzFrfOHQRXqz-6">
          <mxGeometry x="115" y="46" width="10" height="10" as="geometry" />
        </mxCell>
        <mxCell id="xMQF3Xm1KzFrfOHQRXqz-23" value="" style="ellipse;strokeColor=#BFBFBF;" vertex="1" parent="xMQF3Xm1KzFrfOHQRXqz-6">
          <mxGeometry x="135" y="46" width="10" height="10" as="geometry" />
        </mxCell>
        <mxCell id="xMQF3Xm1KzFrfOHQRXqz-24" value="" style="ellipse;strokeColor=#BFBFBF;" vertex="1" parent="xMQF3Xm1KzFrfOHQRXqz-6">
          <mxGeometry x="155" y="46" width="10" height="10" as="geometry" />
        </mxCell>
        <mxCell id="xMQF3Xm1KzFrfOHQRXqz-25" value="" style="ellipse;strokeColor=#BFBFBF;" vertex="1" parent="xMQF3Xm1KzFrfOHQRXqz-6">
          <mxGeometry x="175" y="46" width="10" height="10" as="geometry" />
        </mxCell>
        <mxCell id="xMQF3Xm1KzFrfOHQRXqz-26" value="" style="ellipse;strokeColor=#BFBFBF;" vertex="1" parent="xMQF3Xm1KzFrfOHQRXqz-6">
          <mxGeometry x="15" y="66" width="10" height="10" as="geometry" />
        </mxCell>
        <mxCell id="xMQF3Xm1KzFrfOHQRXqz-27" value="" style="ellipse;strokeColor=#BFBFBF;" vertex="1" parent="xMQF3Xm1KzFrfOHQRXqz-6">
          <mxGeometry x="35" y="66" width="10" height="10" as="geometry" />
        </mxCell>
        <mxCell id="xMQF3Xm1KzFrfOHQRXqz-28" value="" style="ellipse;strokeColor=#BFBFBF;" vertex="1" parent="xMQF3Xm1KzFrfOHQRXqz-6">
          <mxGeometry x="55" y="66" width="10" height="10" as="geometry" />
        </mxCell>
        <mxCell id="xMQF3Xm1KzFrfOHQRXqz-29" value="" style="ellipse;strokeColor=#BFBFBF;" vertex="1" parent="xMQF3Xm1KzFrfOHQRXqz-6">
          <mxGeometry x="75" y="66" width="10" height="10" as="geometry" />
        </mxCell>
        <mxCell id="xMQF3Xm1KzFrfOHQRXqz-30" value="" style="ellipse;strokeColor=#d6b656;fillColor=#fff2cc;" vertex="1" parent="xMQF3Xm1KzFrfOHQRXqz-6">
          <mxGeometry x="95" y="66" width="10" height="10" as="geometry" />
        </mxCell>
        <mxCell id="xMQF3Xm1KzFrfOHQRXqz-31" value="" style="ellipse;strokeColor=#BFBFBF;" vertex="1" parent="xMQF3Xm1KzFrfOHQRXqz-6">
          <mxGeometry x="115" y="66" width="10" height="10" as="geometry" />
        </mxCell>
        <mxCell id="xMQF3Xm1KzFrfOHQRXqz-32" value="" style="ellipse;strokeColor=#BFBFBF;" vertex="1" parent="xMQF3Xm1KzFrfOHQRXqz-6">
          <mxGeometry x="135" y="66" width="10" height="10" as="geometry" />
        </mxCell>
        <mxCell id="xMQF3Xm1KzFrfOHQRXqz-33" value="" style="ellipse;strokeColor=#BFBFBF;" vertex="1" parent="xMQF3Xm1KzFrfOHQRXqz-6">
          <mxGeometry x="155" y="66" width="10" height="10" as="geometry" />
        </mxCell>
        <mxCell id="xMQF3Xm1KzFrfOHQRXqz-34" value="" style="ellipse;strokeColor=#BFBFBF;" vertex="1" parent="xMQF3Xm1KzFrfOHQRXqz-6">
          <mxGeometry x="175" y="66" width="10" height="10" as="geometry" />
        </mxCell>
        <mxCell id="xMQF3Xm1KzFrfOHQRXqz-44" value="" style="ellipse;strokeColor=#BFBFBF;" vertex="1" parent="xMQF3Xm1KzFrfOHQRXqz-6">
          <mxGeometry x="15" y="86" width="10" height="10" as="geometry" />
        </mxCell>
        <mxCell id="xMQF3Xm1KzFrfOHQRXqz-45" value="" style="ellipse;strokeColor=#BFBFBF;" vertex="1" parent="xMQF3Xm1KzFrfOHQRXqz-6">
          <mxGeometry x="35" y="86" width="10" height="10" as="geometry" />
        </mxCell>
        <mxCell id="xMQF3Xm1KzFrfOHQRXqz-46" value="" style="ellipse;strokeColor=#BFBFBF;" vertex="1" parent="xMQF3Xm1KzFrfOHQRXqz-6">
          <mxGeometry x="55" y="86" width="10" height="10" as="geometry" />
        </mxCell>
        <mxCell id="xMQF3Xm1KzFrfOHQRXqz-47" value="" style="ellipse;strokeColor=#d6b656;fillColor=#fff2cc;" vertex="1" parent="xMQF3Xm1KzFrfOHQRXqz-6">
          <mxGeometry x="75" y="86" width="10" height="10" as="geometry" />
        </mxCell>
        <mxCell id="xMQF3Xm1KzFrfOHQRXqz-48" value="" style="ellipse;strokeColor=#d6b656;fillColor=#fff2cc;" vertex="1" parent="xMQF3Xm1KzFrfOHQRXqz-6">
          <mxGeometry x="95" y="86" width="10" height="10" as="geometry" />
        </mxCell>
        <mxCell id="xMQF3Xm1KzFrfOHQRXqz-49" value="" style="ellipse;strokeColor=#d6b656;fillColor=#fff2cc;" vertex="1" parent="xMQF3Xm1KzFrfOHQRXqz-6">
          <mxGeometry x="115" y="86" width="10" height="10" as="geometry" />
        </mxCell>
        <mxCell id="xMQF3Xm1KzFrfOHQRXqz-50" value="" style="ellipse;strokeColor=#BFBFBF;" vertex="1" parent="xMQF3Xm1KzFrfOHQRXqz-6">
          <mxGeometry x="135" y="86" width="10" height="10" as="geometry" />
        </mxCell>
        <mxCell id="xMQF3Xm1KzFrfOHQRXqz-51" value="" style="ellipse;strokeColor=#BFBFBF;" vertex="1" parent="xMQF3Xm1KzFrfOHQRXqz-6">
          <mxGeometry x="155" y="86" width="10" height="10" as="geometry" />
        </mxCell>
        <mxCell id="xMQF3Xm1KzFrfOHQRXqz-52" value="" style="ellipse;strokeColor=#BFBFBF;" vertex="1" parent="xMQF3Xm1KzFrfOHQRXqz-6">
          <mxGeometry x="175" y="86" width="10" height="10" as="geometry" />
        </mxCell>
        <mxCell id="xMQF3Xm1KzFrfOHQRXqz-53" value="" style="ellipse;strokeColor=#BFBFBF;" vertex="1" parent="xMQF3Xm1KzFrfOHQRXqz-6">
          <mxGeometry x="15" y="106" width="10" height="10" as="geometry" />
        </mxCell>
        <mxCell id="xMQF3Xm1KzFrfOHQRXqz-54" value="" style="ellipse;strokeColor=#BFBFBF;" vertex="1" parent="xMQF3Xm1KzFrfOHQRXqz-6">
          <mxGeometry x="35" y="106" width="10" height="10" as="geometry" />
        </mxCell>
        <mxCell id="xMQF3Xm1KzFrfOHQRXqz-55" value="" style="ellipse;strokeColor=#d6b656;direction=north;fillColor=#fff2cc;" vertex="1" parent="xMQF3Xm1KzFrfOHQRXqz-6">
          <mxGeometry x="55" y="106" width="10" height="10" as="geometry" />
        </mxCell>
        <mxCell id="xMQF3Xm1KzFrfOHQRXqz-56" value="" style="ellipse;strokeColor=#d6b656;fillColor=#fff2cc;" vertex="1" parent="xMQF3Xm1KzFrfOHQRXqz-6">
          <mxGeometry x="75" y="106" width="10" height="10" as="geometry" />
        </mxCell>
        <mxCell id="xMQF3Xm1KzFrfOHQRXqz-57" value="" style="ellipse;strokeColor=#d6b656;fillColor=#fff2cc;" vertex="1" parent="xMQF3Xm1KzFrfOHQRXqz-6">
          <mxGeometry x="95" y="106" width="10" height="10" as="geometry" />
        </mxCell>
        <mxCell id="xMQF3Xm1KzFrfOHQRXqz-58" value="" style="ellipse;strokeColor=#d6b656;fillColor=#fff2cc;" vertex="1" parent="xMQF3Xm1KzFrfOHQRXqz-6">
          <mxGeometry x="115" y="106" width="10" height="10" as="geometry" />
        </mxCell>
        <mxCell id="xMQF3Xm1KzFrfOHQRXqz-59" value="" style="ellipse;strokeColor=#d6b656;fillColor=#fff2cc;" vertex="1" parent="xMQF3Xm1KzFrfOHQRXqz-6">
          <mxGeometry x="135" y="106" width="10" height="10" as="geometry" />
        </mxCell>
        <mxCell id="xMQF3Xm1KzFrfOHQRXqz-60" value="" style="ellipse;strokeColor=#BFBFBF;" vertex="1" parent="xMQF3Xm1KzFrfOHQRXqz-6">
          <mxGeometry x="155" y="106" width="10" height="10" as="geometry" />
        </mxCell>
        <mxCell id="xMQF3Xm1KzFrfOHQRXqz-61" value="" style="ellipse;strokeColor=#BFBFBF;" vertex="1" parent="xMQF3Xm1KzFrfOHQRXqz-6">
          <mxGeometry x="175" y="106" width="10" height="10" as="geometry" />
        </mxCell>
        <mxCell id="xMQF3Xm1KzFrfOHQRXqz-62" value="" style="ellipse;strokeColor=#BFBFBF;" vertex="1" parent="xMQF3Xm1KzFrfOHQRXqz-6">
          <mxGeometry x="15" y="126" width="10" height="10" as="geometry" />
        </mxCell>
        <mxCell id="xMQF3Xm1KzFrfOHQRXqz-63" value="" style="ellipse;strokeColor=#BFBFBF;" vertex="1" parent="xMQF3Xm1KzFrfOHQRXqz-6">
          <mxGeometry x="35" y="126" width="10" height="10" as="geometry" />
        </mxCell>
        <mxCell id="xMQF3Xm1KzFrfOHQRXqz-64" value="" style="ellipse;strokeColor=#BFBFBF;" vertex="1" parent="xMQF3Xm1KzFrfOHQRXqz-6">
          <mxGeometry x="55" y="126" width="10" height="10" as="geometry" />
        </mxCell>
        <mxCell id="xMQF3Xm1KzFrfOHQRXqz-65" value="" style="ellipse;strokeColor=#d6b656;fillColor=#fff2cc;" vertex="1" parent="xMQF3Xm1KzFrfOHQRXqz-6">
          <mxGeometry x="75" y="126" width="10" height="10" as="geometry" />
        </mxCell>
        <mxCell id="xMQF3Xm1KzFrfOHQRXqz-66" value="" style="ellipse;strokeColor=#d6b656;fillColor=#fff2cc;" vertex="1" parent="xMQF3Xm1KzFrfOHQRXqz-6">
          <mxGeometry x="95" y="126" width="10" height="10" as="geometry" />
        </mxCell>
        <mxCell id="xMQF3Xm1KzFrfOHQRXqz-67" value="" style="ellipse;strokeColor=#d79b00;fillColor=#ffe6cc;" vertex="1" parent="xMQF3Xm1KzFrfOHQRXqz-6">
          <mxGeometry x="115" y="126" width="10" height="10" as="geometry" />
        </mxCell>
        <mxCell id="xMQF3Xm1KzFrfOHQRXqz-68" value="" style="ellipse;strokeColor=#BFBFBF;" vertex="1" parent="xMQF3Xm1KzFrfOHQRXqz-6">
          <mxGeometry x="135" y="126" width="10" height="10" as="geometry" />
        </mxCell>
        <mxCell id="xMQF3Xm1KzFrfOHQRXqz-69" value="" style="ellipse;strokeColor=#BFBFBF;" vertex="1" parent="xMQF3Xm1KzFrfOHQRXqz-6">
          <mxGeometry x="155" y="126" width="10" height="10" as="geometry" />
        </mxCell>
        <mxCell id="xMQF3Xm1KzFrfOHQRXqz-70" value="" style="ellipse;strokeColor=#BFBFBF;" vertex="1" parent="xMQF3Xm1KzFrfOHQRXqz-6">
          <mxGeometry x="175" y="126" width="10" height="10" as="geometry" />
        </mxCell>
        <mxCell id="xMQF3Xm1KzFrfOHQRXqz-71" value="" style="ellipse;strokeColor=#BFBFBF;" vertex="1" parent="xMQF3Xm1KzFrfOHQRXqz-6">
          <mxGeometry x="15" y="146" width="10" height="10" as="geometry" />
        </mxCell>
        <mxCell id="xMQF3Xm1KzFrfOHQRXqz-72" value="" style="ellipse;strokeColor=#BFBFBF;" vertex="1" parent="xMQF3Xm1KzFrfOHQRXqz-6">
          <mxGeometry x="35" y="146" width="10" height="10" as="geometry" />
        </mxCell>
        <mxCell id="xMQF3Xm1KzFrfOHQRXqz-73" value="" style="ellipse;strokeColor=#BFBFBF;" vertex="1" parent="xMQF3Xm1KzFrfOHQRXqz-6">
          <mxGeometry x="55" y="146" width="10" height="10" as="geometry" />
        </mxCell>
        <mxCell id="xMQF3Xm1KzFrfOHQRXqz-74" value="" style="ellipse;strokeColor=#d79b00;fillColor=#ffe6cc;" vertex="1" parent="xMQF3Xm1KzFrfOHQRXqz-6">
          <mxGeometry x="75" y="146" width="10" height="10" as="geometry" />
        </mxCell>
        <mxCell id="xMQF3Xm1KzFrfOHQRXqz-75" value="" style="ellipse;strokeColor=#d79b00;fillColor=#ffe6cc;" vertex="1" parent="xMQF3Xm1KzFrfOHQRXqz-6">
          <mxGeometry x="95" y="146" width="10" height="10" as="geometry" />
        </mxCell>
        <mxCell id="xMQF3Xm1KzFrfOHQRXqz-76" value="" style="ellipse;strokeColor=#d79b00;fillColor=#ffe6cc;" vertex="1" parent="xMQF3Xm1KzFrfOHQRXqz-6">
          <mxGeometry x="115" y="146" width="10" height="10" as="geometry" />
        </mxCell>
        <mxCell id="xMQF3Xm1KzFrfOHQRXqz-77" value="" style="ellipse;strokeColor=#BFBFBF;" vertex="1" parent="xMQF3Xm1KzFrfOHQRXqz-6">
          <mxGeometry x="135" y="146" width="10" height="10" as="geometry" />
        </mxCell>
        <mxCell id="xMQF3Xm1KzFrfOHQRXqz-78" value="" style="ellipse;strokeColor=#BFBFBF;" vertex="1" parent="xMQF3Xm1KzFrfOHQRXqz-6">
          <mxGeometry x="155" y="146" width="10" height="10" as="geometry" />
        </mxCell>
        <mxCell id="xMQF3Xm1KzFrfOHQRXqz-79" value="" style="ellipse;strokeColor=#BFBFBF;" vertex="1" parent="xMQF3Xm1KzFrfOHQRXqz-6">
          <mxGeometry x="175" y="146" width="10" height="10" as="geometry" />
        </mxCell>
        <mxCell id="xMQF3Xm1KzFrfOHQRXqz-80" value="" style="ellipse;strokeColor=#BFBFBF;" vertex="1" parent="xMQF3Xm1KzFrfOHQRXqz-6">
          <mxGeometry x="15" y="166" width="10" height="10" as="geometry" />
        </mxCell>
        <mxCell id="xMQF3Xm1KzFrfOHQRXqz-81" value="" style="ellipse;strokeColor=#BFBFBF;" vertex="1" parent="xMQF3Xm1KzFrfOHQRXqz-6">
          <mxGeometry x="35" y="166" width="10" height="10" as="geometry" />
        </mxCell>
        <mxCell id="xMQF3Xm1KzFrfOHQRXqz-82" value="" style="ellipse;strokeColor=#BFBFBF;" vertex="1" parent="xMQF3Xm1KzFrfOHQRXqz-6">
          <mxGeometry x="55" y="166" width="10" height="10" as="geometry" />
        </mxCell>
        <mxCell id="xMQF3Xm1KzFrfOHQRXqz-83" value="" style="ellipse;strokeColor=#d79b00;fillColor=#ffe6cc;" vertex="1" parent="xMQF3Xm1KzFrfOHQRXqz-6">
          <mxGeometry x="75" y="166" width="10" height="10" as="geometry" />
        </mxCell>
        <mxCell id="xMQF3Xm1KzFrfOHQRXqz-84" value="" style="ellipse;strokeColor=#BFBFBF;" vertex="1" parent="xMQF3Xm1KzFrfOHQRXqz-6">
          <mxGeometry x="95" y="166" width="10" height="10" as="geometry" />
        </mxCell>
        <mxCell id="xMQF3Xm1KzFrfOHQRXqz-85" value="" style="ellipse;strokeColor=#b85450;fillColor=#f8cecc;" vertex="1" parent="xMQF3Xm1KzFrfOHQRXqz-6">
          <mxGeometry x="115" y="166" width="10" height="10" as="geometry" />
        </mxCell>
        <mxCell id="xMQF3Xm1KzFrfOHQRXqz-86" value="" style="ellipse;strokeColor=#BFBFBF;" vertex="1" parent="xMQF3Xm1KzFrfOHQRXqz-6">
          <mxGeometry x="135" y="166" width="10" height="10" as="geometry" />
        </mxCell>
        <mxCell id="xMQF3Xm1KzFrfOHQRXqz-87" value="" style="ellipse;strokeColor=#BFBFBF;" vertex="1" parent="xMQF3Xm1KzFrfOHQRXqz-6">
          <mxGeometry x="155" y="166" width="10" height="10" as="geometry" />
        </mxCell>
        <mxCell id="xMQF3Xm1KzFrfOHQRXqz-88" value="" style="ellipse;strokeColor=#BFBFBF;" vertex="1" parent="xMQF3Xm1KzFrfOHQRXqz-6">
          <mxGeometry x="175" y="166" width="10" height="10" as="geometry" />
        </mxCell>
        <mxCell id="xMQF3Xm1KzFrfOHQRXqz-89" value="" style="ellipse;strokeColor=#BFBFBF;" vertex="1" parent="xMQF3Xm1KzFrfOHQRXqz-6">
          <mxGeometry x="15" y="186" width="10" height="10" as="geometry" />
        </mxCell>
        <mxCell id="xMQF3Xm1KzFrfOHQRXqz-90" value="" style="ellipse;strokeColor=#BFBFBF;" vertex="1" parent="xMQF3Xm1KzFrfOHQRXqz-6">
          <mxGeometry x="35" y="186" width="10" height="10" as="geometry" />
        </mxCell>
        <mxCell id="xMQF3Xm1KzFrfOHQRXqz-91" value="" style="ellipse;strokeColor=#d79b00;fillColor=#ffe6cc;" vertex="1" parent="xMQF3Xm1KzFrfOHQRXqz-6">
          <mxGeometry x="55" y="186" width="10" height="10" as="geometry" />
        </mxCell>
        <mxCell id="xMQF3Xm1KzFrfOHQRXqz-92" value="" style="ellipse;strokeColor=#d79b00;fillColor=#ffe6cc;" vertex="1" parent="xMQF3Xm1KzFrfOHQRXqz-6">
          <mxGeometry x="75" y="186" width="10" height="10" as="geometry" />
        </mxCell>
        <mxCell id="xMQF3Xm1KzFrfOHQRXqz-93" value="" style="ellipse;strokeColor=#BFBFBF;" vertex="1" parent="xMQF3Xm1KzFrfOHQRXqz-6">
          <mxGeometry x="95" y="186" width="10" height="10" as="geometry" />
        </mxCell>
        <mxCell id="xMQF3Xm1KzFrfOHQRXqz-94" value="" style="ellipse;strokeColor=#d79b00;fillColor=#ffe6cc;" vertex="1" parent="xMQF3Xm1KzFrfOHQRXqz-6">
          <mxGeometry x="115" y="186" width="10" height="10" as="geometry" />
        </mxCell>
        <mxCell id="xMQF3Xm1KzFrfOHQRXqz-95" value="" style="ellipse;strokeColor=#d79b00;fillColor=#ffe6cc;" vertex="1" parent="xMQF3Xm1KzFrfOHQRXqz-6">
          <mxGeometry x="135" y="186" width="10" height="10" as="geometry" />
        </mxCell>
        <mxCell id="xMQF3Xm1KzFrfOHQRXqz-96" value="" style="ellipse;strokeColor=#BFBFBF;" vertex="1" parent="xMQF3Xm1KzFrfOHQRXqz-6">
          <mxGeometry x="155" y="186" width="10" height="10" as="geometry" />
        </mxCell>
        <mxCell id="xMQF3Xm1KzFrfOHQRXqz-97" value="" style="ellipse;strokeColor=#BFBFBF;" vertex="1" parent="xMQF3Xm1KzFrfOHQRXqz-6">
          <mxGeometry x="175" y="186" width="10" height="10" as="geometry" />
        </mxCell>
        <mxCell id="xMQF3Xm1KzFrfOHQRXqz-389" style="edgeStyle=orthogonalEdgeStyle;rounded=0;orthogonalLoop=1;jettySize=auto;html=1;exitX=1;exitY=0.5;exitDx=0;exitDy=0;entryX=0;entryY=0.5;entryDx=0;entryDy=0;" edge="1" parent="1" source="xMQF3Xm1KzFrfOHQRXqz-98" target="xMQF3Xm1KzFrfOHQRXqz-385">
          <mxGeometry relative="1" as="geometry" />
        </mxCell>
        <mxCell id="xMQF3Xm1KzFrfOHQRXqz-98" value="Offset vectors" style="swimlane;whiteSpace=wrap;html=1;" vertex="1" parent="1">
          <mxGeometry x="840" y="680" width="200" height="200" as="geometry" />
        </mxCell>
        <mxCell id="xMQF3Xm1KzFrfOHQRXqz-99" value="" style="ellipse;strokeColor=#BFBFBF;" vertex="1" parent="xMQF3Xm1KzFrfOHQRXqz-98">
          <mxGeometry x="15" y="26" width="10" height="10" as="geometry" />
        </mxCell>
        <mxCell id="xMQF3Xm1KzFrfOHQRXqz-100" value="" style="ellipse;strokeColor=#BFBFBF;" vertex="1" parent="xMQF3Xm1KzFrfOHQRXqz-98">
          <mxGeometry x="35" y="26" width="10" height="10" as="geometry" />
        </mxCell>
        <mxCell id="xMQF3Xm1KzFrfOHQRXqz-101" value="" style="ellipse;strokeColor=#BFBFBF;" vertex="1" parent="xMQF3Xm1KzFrfOHQRXqz-98">
          <mxGeometry x="55" y="26" width="10" height="10" as="geometry" />
        </mxCell>
        <mxCell id="xMQF3Xm1KzFrfOHQRXqz-102" value="" style="ellipse;strokeColor=#BFBFBF;" vertex="1" parent="xMQF3Xm1KzFrfOHQRXqz-98">
          <mxGeometry x="75" y="26" width="10" height="10" as="geometry" />
        </mxCell>
        <mxCell id="xMQF3Xm1KzFrfOHQRXqz-103" value="" style="ellipse;strokeColor=#BFBFBF;" vertex="1" parent="xMQF3Xm1KzFrfOHQRXqz-98">
          <mxGeometry x="95" y="26" width="10" height="10" as="geometry" />
        </mxCell>
        <mxCell id="xMQF3Xm1KzFrfOHQRXqz-104" value="" style="ellipse;strokeColor=#BFBFBF;" vertex="1" parent="xMQF3Xm1KzFrfOHQRXqz-98">
          <mxGeometry x="115" y="26" width="10" height="10" as="geometry" />
        </mxCell>
        <mxCell id="xMQF3Xm1KzFrfOHQRXqz-105" value="" style="ellipse;strokeColor=#BFBFBF;" vertex="1" parent="xMQF3Xm1KzFrfOHQRXqz-98">
          <mxGeometry x="135" y="26" width="10" height="10" as="geometry" />
        </mxCell>
        <mxCell id="xMQF3Xm1KzFrfOHQRXqz-106" value="" style="ellipse;strokeColor=#BFBFBF;" vertex="1" parent="xMQF3Xm1KzFrfOHQRXqz-98">
          <mxGeometry x="155" y="26" width="10" height="10" as="geometry" />
        </mxCell>
        <mxCell id="xMQF3Xm1KzFrfOHQRXqz-107" value="" style="ellipse;strokeColor=#BFBFBF;" vertex="1" parent="xMQF3Xm1KzFrfOHQRXqz-98">
          <mxGeometry x="175" y="26" width="10" height="10" as="geometry" />
        </mxCell>
        <mxCell id="xMQF3Xm1KzFrfOHQRXqz-108" value="" style="ellipse;strokeColor=#BFBFBF;" vertex="1" parent="xMQF3Xm1KzFrfOHQRXqz-98">
          <mxGeometry x="15" y="46" width="10" height="10" as="geometry" />
        </mxCell>
        <mxCell id="xMQF3Xm1KzFrfOHQRXqz-109" value="" style="ellipse;strokeColor=#BFBFBF;" vertex="1" parent="xMQF3Xm1KzFrfOHQRXqz-98">
          <mxGeometry x="35" y="46" width="10" height="10" as="geometry" />
        </mxCell>
        <mxCell id="xMQF3Xm1KzFrfOHQRXqz-110" value="" style="ellipse;strokeColor=#BFBFBF;" vertex="1" parent="xMQF3Xm1KzFrfOHQRXqz-98">
          <mxGeometry x="55" y="46" width="10" height="10" as="geometry" />
        </mxCell>
        <mxCell id="xMQF3Xm1KzFrfOHQRXqz-111" value="" style="ellipse;strokeColor=#BFBFBF;" vertex="1" parent="xMQF3Xm1KzFrfOHQRXqz-98">
          <mxGeometry x="75" y="46" width="10" height="10" as="geometry" />
        </mxCell>
        <mxCell id="xMQF3Xm1KzFrfOHQRXqz-112" value="" style="ellipse;strokeColor=#BFBFBF;" vertex="1" parent="xMQF3Xm1KzFrfOHQRXqz-98">
          <mxGeometry x="95" y="46" width="10" height="10" as="geometry" />
        </mxCell>
        <mxCell id="xMQF3Xm1KzFrfOHQRXqz-113" value="" style="ellipse;strokeColor=#BFBFBF;" vertex="1" parent="xMQF3Xm1KzFrfOHQRXqz-98">
          <mxGeometry x="115" y="46" width="10" height="10" as="geometry" />
        </mxCell>
        <mxCell id="xMQF3Xm1KzFrfOHQRXqz-114" value="" style="ellipse;strokeColor=#BFBFBF;" vertex="1" parent="xMQF3Xm1KzFrfOHQRXqz-98">
          <mxGeometry x="135" y="46" width="10" height="10" as="geometry" />
        </mxCell>
        <mxCell id="xMQF3Xm1KzFrfOHQRXqz-115" value="" style="ellipse;strokeColor=#BFBFBF;" vertex="1" parent="xMQF3Xm1KzFrfOHQRXqz-98">
          <mxGeometry x="155" y="46" width="10" height="10" as="geometry" />
        </mxCell>
        <mxCell id="xMQF3Xm1KzFrfOHQRXqz-116" value="" style="ellipse;strokeColor=#BFBFBF;" vertex="1" parent="xMQF3Xm1KzFrfOHQRXqz-98">
          <mxGeometry x="175" y="46" width="10" height="10" as="geometry" />
        </mxCell>
        <mxCell id="xMQF3Xm1KzFrfOHQRXqz-117" value="" style="ellipse;strokeColor=#BFBFBF;" vertex="1" parent="xMQF3Xm1KzFrfOHQRXqz-98">
          <mxGeometry x="15" y="66" width="10" height="10" as="geometry" />
        </mxCell>
        <mxCell id="xMQF3Xm1KzFrfOHQRXqz-118" value="" style="ellipse;strokeColor=#BFBFBF;" vertex="1" parent="xMQF3Xm1KzFrfOHQRXqz-98">
          <mxGeometry x="35" y="66" width="10" height="10" as="geometry" />
        </mxCell>
        <mxCell id="xMQF3Xm1KzFrfOHQRXqz-119" value="" style="ellipse;strokeColor=#BFBFBF;" vertex="1" parent="xMQF3Xm1KzFrfOHQRXqz-98">
          <mxGeometry x="55" y="66" width="10" height="10" as="geometry" />
        </mxCell>
        <mxCell id="xMQF3Xm1KzFrfOHQRXqz-120" value="" style="ellipse;strokeColor=#BFBFBF;" vertex="1" parent="xMQF3Xm1KzFrfOHQRXqz-98">
          <mxGeometry x="75" y="66" width="10" height="10" as="geometry" />
        </mxCell>
        <mxCell id="xMQF3Xm1KzFrfOHQRXqz-121" value="" style="ellipse;strokeColor=#BFBFBF;" vertex="1" parent="xMQF3Xm1KzFrfOHQRXqz-98">
          <mxGeometry x="95" y="66" width="10" height="10" as="geometry" />
        </mxCell>
        <mxCell id="xMQF3Xm1KzFrfOHQRXqz-122" value="" style="ellipse;strokeColor=#BFBFBF;" vertex="1" parent="xMQF3Xm1KzFrfOHQRXqz-98">
          <mxGeometry x="115" y="66" width="10" height="10" as="geometry" />
        </mxCell>
        <mxCell id="xMQF3Xm1KzFrfOHQRXqz-123" value="" style="ellipse;strokeColor=#BFBFBF;" vertex="1" parent="xMQF3Xm1KzFrfOHQRXqz-98">
          <mxGeometry x="135" y="66" width="10" height="10" as="geometry" />
        </mxCell>
        <mxCell id="xMQF3Xm1KzFrfOHQRXqz-124" value="" style="ellipse;strokeColor=#BFBFBF;" vertex="1" parent="xMQF3Xm1KzFrfOHQRXqz-98">
          <mxGeometry x="155" y="66" width="10" height="10" as="geometry" />
        </mxCell>
        <mxCell id="xMQF3Xm1KzFrfOHQRXqz-125" value="" style="ellipse;strokeColor=#BFBFBF;" vertex="1" parent="xMQF3Xm1KzFrfOHQRXqz-98">
          <mxGeometry x="175" y="66" width="10" height="10" as="geometry" />
        </mxCell>
        <mxCell id="xMQF3Xm1KzFrfOHQRXqz-126" value="" style="ellipse;strokeColor=#BFBFBF;" vertex="1" parent="xMQF3Xm1KzFrfOHQRXqz-98">
          <mxGeometry x="15" y="86" width="10" height="10" as="geometry" />
        </mxCell>
        <mxCell id="xMQF3Xm1KzFrfOHQRXqz-127" value="" style="ellipse;strokeColor=#BFBFBF;" vertex="1" parent="xMQF3Xm1KzFrfOHQRXqz-98">
          <mxGeometry x="35" y="86" width="10" height="10" as="geometry" />
        </mxCell>
        <mxCell id="xMQF3Xm1KzFrfOHQRXqz-128" value="" style="ellipse;strokeColor=#BFBFBF;" vertex="1" parent="xMQF3Xm1KzFrfOHQRXqz-98">
          <mxGeometry x="55" y="86" width="10" height="10" as="geometry" />
        </mxCell>
        <mxCell id="xMQF3Xm1KzFrfOHQRXqz-129" value="" style="ellipse;strokeColor=#BFBFBF;" vertex="1" parent="xMQF3Xm1KzFrfOHQRXqz-98">
          <mxGeometry x="75" y="86" width="10" height="10" as="geometry" />
        </mxCell>
        <mxCell id="xMQF3Xm1KzFrfOHQRXqz-130" value="" style="ellipse;strokeColor=#BFBFBF;" vertex="1" parent="xMQF3Xm1KzFrfOHQRXqz-98">
          <mxGeometry x="95" y="86" width="10" height="10" as="geometry" />
        </mxCell>
        <mxCell id="xMQF3Xm1KzFrfOHQRXqz-131" value="" style="ellipse;strokeColor=#BFBFBF;" vertex="1" parent="xMQF3Xm1KzFrfOHQRXqz-98">
          <mxGeometry x="115" y="86" width="10" height="10" as="geometry" />
        </mxCell>
        <mxCell id="xMQF3Xm1KzFrfOHQRXqz-132" value="" style="ellipse;strokeColor=#BFBFBF;" vertex="1" parent="xMQF3Xm1KzFrfOHQRXqz-98">
          <mxGeometry x="135" y="86" width="10" height="10" as="geometry" />
        </mxCell>
        <mxCell id="xMQF3Xm1KzFrfOHQRXqz-133" value="" style="ellipse;strokeColor=#BFBFBF;" vertex="1" parent="xMQF3Xm1KzFrfOHQRXqz-98">
          <mxGeometry x="155" y="86" width="10" height="10" as="geometry" />
        </mxCell>
        <mxCell id="xMQF3Xm1KzFrfOHQRXqz-134" value="" style="ellipse;strokeColor=#BFBFBF;" vertex="1" parent="xMQF3Xm1KzFrfOHQRXqz-98">
          <mxGeometry x="175" y="86" width="10" height="10" as="geometry" />
        </mxCell>
        <mxCell id="xMQF3Xm1KzFrfOHQRXqz-135" value="" style="ellipse;strokeColor=#BFBFBF;" vertex="1" parent="xMQF3Xm1KzFrfOHQRXqz-98">
          <mxGeometry x="15" y="106" width="10" height="10" as="geometry" />
        </mxCell>
        <mxCell id="xMQF3Xm1KzFrfOHQRXqz-136" value="" style="ellipse;strokeColor=#BFBFBF;" vertex="1" parent="xMQF3Xm1KzFrfOHQRXqz-98">
          <mxGeometry x="35" y="106" width="10" height="10" as="geometry" />
        </mxCell>
        <mxCell id="xMQF3Xm1KzFrfOHQRXqz-137" value="" style="ellipse;strokeColor=#BFBFBF;" vertex="1" parent="xMQF3Xm1KzFrfOHQRXqz-98">
          <mxGeometry x="55" y="106" width="10" height="10" as="geometry" />
        </mxCell>
        <mxCell id="xMQF3Xm1KzFrfOHQRXqz-138" value="" style="ellipse;strokeColor=#BFBFBF;" vertex="1" parent="xMQF3Xm1KzFrfOHQRXqz-98">
          <mxGeometry x="75" y="106" width="10" height="10" as="geometry" />
        </mxCell>
        <mxCell id="xMQF3Xm1KzFrfOHQRXqz-139" value="" style="ellipse;strokeColor=#BFBFBF;" vertex="1" parent="xMQF3Xm1KzFrfOHQRXqz-98">
          <mxGeometry x="95" y="106" width="10" height="10" as="geometry" />
        </mxCell>
        <mxCell id="xMQF3Xm1KzFrfOHQRXqz-140" value="" style="ellipse;strokeColor=#BFBFBF;" vertex="1" parent="xMQF3Xm1KzFrfOHQRXqz-98">
          <mxGeometry x="115" y="106" width="10" height="10" as="geometry" />
        </mxCell>
        <mxCell id="xMQF3Xm1KzFrfOHQRXqz-141" value="" style="ellipse;strokeColor=#BFBFBF;" vertex="1" parent="xMQF3Xm1KzFrfOHQRXqz-98">
          <mxGeometry x="135" y="106" width="10" height="10" as="geometry" />
        </mxCell>
        <mxCell id="xMQF3Xm1KzFrfOHQRXqz-142" value="" style="ellipse;strokeColor=#BFBFBF;" vertex="1" parent="xMQF3Xm1KzFrfOHQRXqz-98">
          <mxGeometry x="155" y="106" width="10" height="10" as="geometry" />
        </mxCell>
        <mxCell id="xMQF3Xm1KzFrfOHQRXqz-143" value="" style="ellipse;strokeColor=#BFBFBF;" vertex="1" parent="xMQF3Xm1KzFrfOHQRXqz-98">
          <mxGeometry x="175" y="106" width="10" height="10" as="geometry" />
        </mxCell>
        <mxCell id="xMQF3Xm1KzFrfOHQRXqz-144" value="" style="ellipse;strokeColor=#BFBFBF;" vertex="1" parent="xMQF3Xm1KzFrfOHQRXqz-98">
          <mxGeometry x="15" y="126" width="10" height="10" as="geometry" />
        </mxCell>
        <mxCell id="xMQF3Xm1KzFrfOHQRXqz-145" value="" style="ellipse;strokeColor=#BFBFBF;" vertex="1" parent="xMQF3Xm1KzFrfOHQRXqz-98">
          <mxGeometry x="35" y="126" width="10" height="10" as="geometry" />
        </mxCell>
        <mxCell id="xMQF3Xm1KzFrfOHQRXqz-146" value="" style="ellipse;strokeColor=#BFBFBF;" vertex="1" parent="xMQF3Xm1KzFrfOHQRXqz-98">
          <mxGeometry x="55" y="126" width="10" height="10" as="geometry" />
        </mxCell>
        <mxCell id="xMQF3Xm1KzFrfOHQRXqz-147" value="" style="ellipse;strokeColor=#BFBFBF;" vertex="1" parent="xMQF3Xm1KzFrfOHQRXqz-98">
          <mxGeometry x="75" y="126" width="10" height="10" as="geometry" />
        </mxCell>
        <mxCell id="xMQF3Xm1KzFrfOHQRXqz-148" value="" style="ellipse;strokeColor=#BFBFBF;" vertex="1" parent="xMQF3Xm1KzFrfOHQRXqz-98">
          <mxGeometry x="95" y="126" width="10" height="10" as="geometry" />
        </mxCell>
        <mxCell id="xMQF3Xm1KzFrfOHQRXqz-149" value="" style="ellipse;strokeColor=#BFBFBF;" vertex="1" parent="xMQF3Xm1KzFrfOHQRXqz-98">
          <mxGeometry x="115" y="126" width="10" height="10" as="geometry" />
        </mxCell>
        <mxCell id="xMQF3Xm1KzFrfOHQRXqz-150" value="" style="ellipse;strokeColor=#BFBFBF;" vertex="1" parent="xMQF3Xm1KzFrfOHQRXqz-98">
          <mxGeometry x="135" y="126" width="10" height="10" as="geometry" />
        </mxCell>
        <mxCell id="xMQF3Xm1KzFrfOHQRXqz-151" value="" style="ellipse;strokeColor=#BFBFBF;" vertex="1" parent="xMQF3Xm1KzFrfOHQRXqz-98">
          <mxGeometry x="155" y="126" width="10" height="10" as="geometry" />
        </mxCell>
        <mxCell id="xMQF3Xm1KzFrfOHQRXqz-152" value="" style="ellipse;strokeColor=#BFBFBF;" vertex="1" parent="xMQF3Xm1KzFrfOHQRXqz-98">
          <mxGeometry x="175" y="126" width="10" height="10" as="geometry" />
        </mxCell>
        <mxCell id="xMQF3Xm1KzFrfOHQRXqz-153" value="" style="ellipse;strokeColor=#BFBFBF;" vertex="1" parent="xMQF3Xm1KzFrfOHQRXqz-98">
          <mxGeometry x="15" y="146" width="10" height="10" as="geometry" />
        </mxCell>
        <mxCell id="xMQF3Xm1KzFrfOHQRXqz-154" value="" style="ellipse;strokeColor=#BFBFBF;" vertex="1" parent="xMQF3Xm1KzFrfOHQRXqz-98">
          <mxGeometry x="35" y="146" width="10" height="10" as="geometry" />
        </mxCell>
        <mxCell id="xMQF3Xm1KzFrfOHQRXqz-155" value="" style="ellipse;strokeColor=#BFBFBF;" vertex="1" parent="xMQF3Xm1KzFrfOHQRXqz-98">
          <mxGeometry x="55" y="146" width="10" height="10" as="geometry" />
        </mxCell>
        <mxCell id="xMQF3Xm1KzFrfOHQRXqz-156" value="" style="ellipse;strokeColor=#BFBFBF;" vertex="1" parent="xMQF3Xm1KzFrfOHQRXqz-98">
          <mxGeometry x="75" y="146" width="10" height="10" as="geometry" />
        </mxCell>
        <mxCell id="xMQF3Xm1KzFrfOHQRXqz-157" value="" style="ellipse;strokeColor=#BFBFBF;" vertex="1" parent="xMQF3Xm1KzFrfOHQRXqz-98">
          <mxGeometry x="95" y="146" width="10" height="10" as="geometry" />
        </mxCell>
        <mxCell id="xMQF3Xm1KzFrfOHQRXqz-158" value="" style="ellipse;strokeColor=#BFBFBF;" vertex="1" parent="xMQF3Xm1KzFrfOHQRXqz-98">
          <mxGeometry x="115" y="146" width="10" height="10" as="geometry" />
        </mxCell>
        <mxCell id="xMQF3Xm1KzFrfOHQRXqz-159" value="" style="ellipse;strokeColor=#BFBFBF;" vertex="1" parent="xMQF3Xm1KzFrfOHQRXqz-98">
          <mxGeometry x="135" y="146" width="10" height="10" as="geometry" />
        </mxCell>
        <mxCell id="xMQF3Xm1KzFrfOHQRXqz-160" value="" style="ellipse;strokeColor=#BFBFBF;" vertex="1" parent="xMQF3Xm1KzFrfOHQRXqz-98">
          <mxGeometry x="155" y="146" width="10" height="10" as="geometry" />
        </mxCell>
        <mxCell id="xMQF3Xm1KzFrfOHQRXqz-161" value="" style="ellipse;strokeColor=#BFBFBF;" vertex="1" parent="xMQF3Xm1KzFrfOHQRXqz-98">
          <mxGeometry x="175" y="146" width="10" height="10" as="geometry" />
        </mxCell>
        <mxCell id="xMQF3Xm1KzFrfOHQRXqz-162" value="" style="ellipse;strokeColor=#BFBFBF;" vertex="1" parent="xMQF3Xm1KzFrfOHQRXqz-98">
          <mxGeometry x="15" y="166" width="10" height="10" as="geometry" />
        </mxCell>
        <mxCell id="xMQF3Xm1KzFrfOHQRXqz-163" value="" style="ellipse;strokeColor=#BFBFBF;" vertex="1" parent="xMQF3Xm1KzFrfOHQRXqz-98">
          <mxGeometry x="35" y="166" width="10" height="10" as="geometry" />
        </mxCell>
        <mxCell id="xMQF3Xm1KzFrfOHQRXqz-164" value="" style="ellipse;strokeColor=#BFBFBF;" vertex="1" parent="xMQF3Xm1KzFrfOHQRXqz-98">
          <mxGeometry x="55" y="166" width="10" height="10" as="geometry" />
        </mxCell>
        <mxCell id="xMQF3Xm1KzFrfOHQRXqz-165" value="" style="ellipse;strokeColor=#BFBFBF;" vertex="1" parent="xMQF3Xm1KzFrfOHQRXqz-98">
          <mxGeometry x="75" y="166" width="10" height="10" as="geometry" />
        </mxCell>
        <mxCell id="xMQF3Xm1KzFrfOHQRXqz-166" value="" style="ellipse;strokeColor=#BFBFBF;" vertex="1" parent="xMQF3Xm1KzFrfOHQRXqz-98">
          <mxGeometry x="95" y="166" width="10" height="10" as="geometry" />
        </mxCell>
        <mxCell id="xMQF3Xm1KzFrfOHQRXqz-167" value="" style="ellipse;strokeColor=#BFBFBF;" vertex="1" parent="xMQF3Xm1KzFrfOHQRXqz-98">
          <mxGeometry x="115" y="166" width="10" height="10" as="geometry" />
        </mxCell>
        <mxCell id="xMQF3Xm1KzFrfOHQRXqz-168" value="" style="ellipse;strokeColor=#BFBFBF;" vertex="1" parent="xMQF3Xm1KzFrfOHQRXqz-98">
          <mxGeometry x="135" y="166" width="10" height="10" as="geometry" />
        </mxCell>
        <mxCell id="xMQF3Xm1KzFrfOHQRXqz-169" value="" style="ellipse;strokeColor=#BFBFBF;" vertex="1" parent="xMQF3Xm1KzFrfOHQRXqz-98">
          <mxGeometry x="155" y="166" width="10" height="10" as="geometry" />
        </mxCell>
        <mxCell id="xMQF3Xm1KzFrfOHQRXqz-170" value="" style="ellipse;strokeColor=#BFBFBF;" vertex="1" parent="xMQF3Xm1KzFrfOHQRXqz-98">
          <mxGeometry x="175" y="166" width="10" height="10" as="geometry" />
        </mxCell>
        <mxCell id="xMQF3Xm1KzFrfOHQRXqz-171" value="" style="ellipse;strokeColor=#BFBFBF;" vertex="1" parent="xMQF3Xm1KzFrfOHQRXqz-98">
          <mxGeometry x="15" y="186" width="10" height="10" as="geometry" />
        </mxCell>
        <mxCell id="xMQF3Xm1KzFrfOHQRXqz-172" value="" style="ellipse;strokeColor=#BFBFBF;" vertex="1" parent="xMQF3Xm1KzFrfOHQRXqz-98">
          <mxGeometry x="35" y="186" width="10" height="10" as="geometry" />
        </mxCell>
        <mxCell id="xMQF3Xm1KzFrfOHQRXqz-173" value="" style="ellipse;strokeColor=#BFBFBF;" vertex="1" parent="xMQF3Xm1KzFrfOHQRXqz-98">
          <mxGeometry x="55" y="186" width="10" height="10" as="geometry" />
        </mxCell>
        <mxCell id="xMQF3Xm1KzFrfOHQRXqz-174" value="" style="ellipse;strokeColor=#BFBFBF;" vertex="1" parent="xMQF3Xm1KzFrfOHQRXqz-98">
          <mxGeometry x="75" y="186" width="10" height="10" as="geometry" />
        </mxCell>
        <mxCell id="xMQF3Xm1KzFrfOHQRXqz-175" value="" style="ellipse;strokeColor=#BFBFBF;" vertex="1" parent="xMQF3Xm1KzFrfOHQRXqz-98">
          <mxGeometry x="95" y="186" width="10" height="10" as="geometry" />
        </mxCell>
        <mxCell id="xMQF3Xm1KzFrfOHQRXqz-176" value="" style="ellipse;strokeColor=#BFBFBF;" vertex="1" parent="xMQF3Xm1KzFrfOHQRXqz-98">
          <mxGeometry x="115" y="186" width="10" height="10" as="geometry" />
        </mxCell>
        <mxCell id="xMQF3Xm1KzFrfOHQRXqz-177" value="" style="ellipse;strokeColor=#BFBFBF;" vertex="1" parent="xMQF3Xm1KzFrfOHQRXqz-98">
          <mxGeometry x="135" y="186" width="10" height="10" as="geometry" />
        </mxCell>
        <mxCell id="xMQF3Xm1KzFrfOHQRXqz-178" value="" style="ellipse;strokeColor=#BFBFBF;" vertex="1" parent="xMQF3Xm1KzFrfOHQRXqz-98">
          <mxGeometry x="155" y="186" width="10" height="10" as="geometry" />
        </mxCell>
        <mxCell id="xMQF3Xm1KzFrfOHQRXqz-179" value="" style="ellipse;strokeColor=#BFBFBF;" vertex="1" parent="xMQF3Xm1KzFrfOHQRXqz-98">
          <mxGeometry x="175" y="186" width="10" height="10" as="geometry" />
        </mxCell>
        <mxCell id="xMQF3Xm1KzFrfOHQRXqz-191" value="" style="group" vertex="1" connectable="0" parent="xMQF3Xm1KzFrfOHQRXqz-98">
          <mxGeometry x="113" y="158" width="10" height="14" as="geometry" />
        </mxCell>
        <mxCell id="xMQF3Xm1KzFrfOHQRXqz-189" value="" style="endArrow=classicThin;html=1;rounded=0;endFill=1;endSize=2;" edge="1" parent="xMQF3Xm1KzFrfOHQRXqz-191">
          <mxGeometry width="50" height="50" relative="1" as="geometry">
            <mxPoint x="10" y="14" as="sourcePoint" />
            <mxPoint x="10" as="targetPoint" />
          </mxGeometry>
        </mxCell>
        <mxCell id="xMQF3Xm1KzFrfOHQRXqz-190" value="" style="endArrow=classicThin;html=1;rounded=0;endFill=1;endSize=2;" edge="1" parent="xMQF3Xm1KzFrfOHQRXqz-191">
          <mxGeometry width="50" height="50" relative="1" as="geometry">
            <mxPoint x="10" y="13.299999999999999" as="sourcePoint" />
            <mxPoint y="13.299999999999999" as="targetPoint" />
          </mxGeometry>
        </mxCell>
        <mxCell id="xMQF3Xm1KzFrfOHQRXqz-195" value="" style="endArrow=classicThin;html=1;rounded=0;endFill=1;endSize=2;" edge="1" parent="xMQF3Xm1KzFrfOHQRXqz-98">
          <mxGeometry width="50" height="50" relative="1" as="geometry">
            <mxPoint x="140" y="192" as="sourcePoint" />
            <mxPoint x="140" y="172" as="targetPoint" />
          </mxGeometry>
        </mxCell>
        <mxCell id="xMQF3Xm1KzFrfOHQRXqz-196" value="" style="endArrow=classicThin;html=1;rounded=0;endFill=1;endSize=2;" edge="1" parent="xMQF3Xm1KzFrfOHQRXqz-98">
          <mxGeometry width="50" height="50" relative="1" as="geometry">
            <mxPoint x="140" y="191" as="sourcePoint" />
            <mxPoint x="125" y="190.98" as="targetPoint" />
          </mxGeometry>
        </mxCell>
        <mxCell id="xMQF3Xm1KzFrfOHQRXqz-206" value="" style="group;rotation=-180;" vertex="1" connectable="0" parent="xMQF3Xm1KzFrfOHQRXqz-98">
          <mxGeometry x="100" y="130" width="15" height="20" as="geometry" />
        </mxCell>
        <mxCell id="xMQF3Xm1KzFrfOHQRXqz-204" value="" style="endArrow=classicThin;html=1;rounded=0;endFill=1;endSize=2;" edge="1" parent="xMQF3Xm1KzFrfOHQRXqz-206">
          <mxGeometry width="50" height="50" relative="1" as="geometry">
            <mxPoint as="sourcePoint" />
            <mxPoint y="20" as="targetPoint" />
          </mxGeometry>
        </mxCell>
        <mxCell id="xMQF3Xm1KzFrfOHQRXqz-205" value="" style="endArrow=classicThin;html=1;rounded=0;endFill=1;endSize=2;" edge="1" parent="xMQF3Xm1KzFrfOHQRXqz-206">
          <mxGeometry width="50" height="50" relative="1" as="geometry">
            <mxPoint y="1" as="sourcePoint" />
            <mxPoint x="15" y="1" as="targetPoint" />
          </mxGeometry>
        </mxCell>
        <mxCell id="xMQF3Xm1KzFrfOHQRXqz-314" value="" style="endArrow=classicThin;html=1;rounded=0;endFill=1;endSize=2;" edge="1" parent="xMQF3Xm1KzFrfOHQRXqz-98">
          <mxGeometry width="50" height="50" relative="1" as="geometry">
            <mxPoint x="80" y="172" as="sourcePoint" />
            <mxPoint x="80" y="158" as="targetPoint" />
          </mxGeometry>
        </mxCell>
        <mxCell id="xMQF3Xm1KzFrfOHQRXqz-315" value="" style="endArrow=classicThin;html=1;rounded=0;endFill=1;endSize=2;" edge="1" parent="xMQF3Xm1KzFrfOHQRXqz-98">
          <mxGeometry width="50" height="50" relative="1" as="geometry">
            <mxPoint x="80" y="171.83000000000004" as="sourcePoint" />
            <mxPoint x="90" y="172.18000000000006" as="targetPoint" />
          </mxGeometry>
        </mxCell>
        <mxCell id="xMQF3Xm1KzFrfOHQRXqz-319" value="" style="group;flipH=1;" vertex="1" connectable="0" parent="xMQF3Xm1KzFrfOHQRXqz-98">
          <mxGeometry x="59" y="173" width="20" height="20" as="geometry" />
        </mxCell>
        <mxCell id="xMQF3Xm1KzFrfOHQRXqz-320" value="" style="endArrow=classicThin;html=1;rounded=0;endFill=1;endSize=2;" edge="1" parent="xMQF3Xm1KzFrfOHQRXqz-319">
          <mxGeometry width="50" height="50" relative="1" as="geometry">
            <mxPoint y="20" as="sourcePoint" />
            <mxPoint as="targetPoint" />
          </mxGeometry>
        </mxCell>
        <mxCell id="xMQF3Xm1KzFrfOHQRXqz-321" value="" style="endArrow=classicThin;html=1;rounded=0;endFill=1;endSize=2;" edge="1" parent="xMQF3Xm1KzFrfOHQRXqz-319">
          <mxGeometry width="50" height="50" relative="1" as="geometry">
            <mxPoint y="19" as="sourcePoint" />
            <mxPoint x="20" y="19" as="targetPoint" />
          </mxGeometry>
        </mxCell>
        <mxCell id="xMQF3Xm1KzFrfOHQRXqz-180" value="&lt;div&gt;w x h x N&lt;br&gt;&lt;/div&gt;&lt;div&gt;9 x 9 x 17&lt;/div&gt;" style="text;html=1;align=center;verticalAlign=middle;resizable=0;points=[];autosize=1;strokeColor=none;fillColor=none;" vertex="1" parent="1">
          <mxGeometry x="900" y="420" width="80" height="40" as="geometry" />
        </mxCell>
        <mxCell id="xMQF3Xm1KzFrfOHQRXqz-183" value="&lt;div&gt;w x h x 2N&lt;br&gt;&lt;/div&gt;&lt;div&gt;9 x 9 x 34&lt;br&gt;&lt;/div&gt;" style="text;html=1;align=center;verticalAlign=middle;resizable=0;points=[];autosize=1;strokeColor=none;fillColor=none;" vertex="1" parent="1">
          <mxGeometry x="900" y="880" width="80" height="40" as="geometry" />
        </mxCell>
        <mxCell id="xMQF3Xm1KzFrfOHQRXqz-198" value="" style="group" vertex="1" connectable="0" parent="1">
          <mxGeometry x="951" y="854" width="10" height="20" as="geometry" />
        </mxCell>
        <mxCell id="xMQF3Xm1KzFrfOHQRXqz-199" value="" style="endArrow=classicThin;html=1;rounded=0;endFill=1;endSize=2;" edge="1" parent="xMQF3Xm1KzFrfOHQRXqz-198">
          <mxGeometry width="50" height="50" relative="1" as="geometry">
            <mxPoint x="10" y="20" as="sourcePoint" />
            <mxPoint x="10" as="targetPoint" />
          </mxGeometry>
        </mxCell>
        <mxCell id="xMQF3Xm1KzFrfOHQRXqz-200" value="" style="endArrow=classicThin;html=1;rounded=0;endFill=1;endSize=2;" edge="1" parent="xMQF3Xm1KzFrfOHQRXqz-198">
          <mxGeometry width="50" height="50" relative="1" as="geometry">
            <mxPoint x="10" y="19" as="sourcePoint" />
            <mxPoint y="19" as="targetPoint" />
          </mxGeometry>
        </mxCell>
        <mxCell id="xMQF3Xm1KzFrfOHQRXqz-201" value="" style="group;rotation=-180;" vertex="1" connectable="0" parent="1">
          <mxGeometry x="959" y="828" width="10" height="14" as="geometry" />
        </mxCell>
        <mxCell id="xMQF3Xm1KzFrfOHQRXqz-202" value="" style="endArrow=classicThin;html=1;rounded=0;endFill=1;endSize=2;" edge="1" parent="xMQF3Xm1KzFrfOHQRXqz-201">
          <mxGeometry width="50" height="50" relative="1" as="geometry">
            <mxPoint as="sourcePoint" />
            <mxPoint y="14" as="targetPoint" />
          </mxGeometry>
        </mxCell>
        <mxCell id="xMQF3Xm1KzFrfOHQRXqz-203" value="" style="endArrow=classicThin;html=1;rounded=0;endFill=1;endSize=2;" edge="1" parent="xMQF3Xm1KzFrfOHQRXqz-201">
          <mxGeometry width="50" height="50" relative="1" as="geometry">
            <mxPoint y="1" as="sourcePoint" />
            <mxPoint x="10" y="1" as="targetPoint" />
          </mxGeometry>
        </mxCell>
        <mxCell id="xMQF3Xm1KzFrfOHQRXqz-300" value="" style="group;rotation=-180;" vertex="1" connectable="0" parent="1">
          <mxGeometry x="959" y="810" width="10" height="20" as="geometry" />
        </mxCell>
        <mxCell id="xMQF3Xm1KzFrfOHQRXqz-301" value="" style="endArrow=classicThin;html=1;rounded=0;endFill=1;endSize=2;" edge="1" parent="xMQF3Xm1KzFrfOHQRXqz-300">
          <mxGeometry width="50" height="50" relative="1" as="geometry">
            <mxPoint as="sourcePoint" />
            <mxPoint y="20" as="targetPoint" />
          </mxGeometry>
        </mxCell>
        <mxCell id="xMQF3Xm1KzFrfOHQRXqz-302" value="" style="endArrow=classicThin;html=1;rounded=0;endFill=1;endSize=2;" edge="1" parent="xMQF3Xm1KzFrfOHQRXqz-300">
          <mxGeometry width="50" height="50" relative="1" as="geometry">
            <mxPoint y="1" as="sourcePoint" />
            <mxPoint x="10" y="1" as="targetPoint" />
          </mxGeometry>
        </mxCell>
        <mxCell id="xMQF3Xm1KzFrfOHQRXqz-307" value="" style="endArrow=classicThin;html=1;rounded=0;endFill=1;endSize=2;" edge="1" parent="1">
          <mxGeometry width="50" height="50" relative="1" as="geometry">
            <mxPoint x="920" y="810" as="sourcePoint" />
            <mxPoint x="920" y="830" as="targetPoint" />
          </mxGeometry>
        </mxCell>
        <mxCell id="xMQF3Xm1KzFrfOHQRXqz-308" value="" style="endArrow=classicThin;html=1;rounded=0;endFill=1;endSize=2;entryX=0.256;entryY=0.507;entryDx=0;entryDy=0;entryPerimeter=0;" edge="1" parent="1" target="xMQF3Xm1KzFrfOHQRXqz-148">
          <mxGeometry width="50" height="50" relative="1" as="geometry">
            <mxPoint x="920" y="811" as="sourcePoint" />
            <mxPoint x="935" y="811" as="targetPoint" />
          </mxGeometry>
        </mxCell>
        <mxCell id="xMQF3Xm1KzFrfOHQRXqz-316" value="" style="group;flipH=1;" vertex="1" connectable="0" parent="1">
          <mxGeometry x="920" y="854" width="10" height="20" as="geometry" />
        </mxCell>
        <mxCell id="xMQF3Xm1KzFrfOHQRXqz-317" value="" style="endArrow=classicThin;html=1;rounded=0;endFill=1;endSize=2;" edge="1" parent="xMQF3Xm1KzFrfOHQRXqz-316">
          <mxGeometry width="50" height="50" relative="1" as="geometry">
            <mxPoint y="20" as="sourcePoint" />
            <mxPoint as="targetPoint" />
          </mxGeometry>
        </mxCell>
        <mxCell id="xMQF3Xm1KzFrfOHQRXqz-318" value="" style="endArrow=classicThin;html=1;rounded=0;endFill=1;endSize=2;" edge="1" parent="xMQF3Xm1KzFrfOHQRXqz-316">
          <mxGeometry width="50" height="50" relative="1" as="geometry">
            <mxPoint y="19" as="sourcePoint" />
            <mxPoint x="10" y="19" as="targetPoint" />
          </mxGeometry>
        </mxCell>
        <mxCell id="xMQF3Xm1KzFrfOHQRXqz-384" value="" style="group" vertex="1" connectable="0" parent="1">
          <mxGeometry x="1192" y="550" width="78" height="230" as="geometry" />
        </mxCell>
        <mxCell id="xMQF3Xm1KzFrfOHQRXqz-355" value="" style="ellipse;strokeColor=#b85450;fillColor=#f8cecc;" vertex="1" parent="xMQF3Xm1KzFrfOHQRXqz-384">
          <mxGeometry x="28" width="10" height="10" as="geometry" />
        </mxCell>
        <mxCell id="xMQF3Xm1KzFrfOHQRXqz-356" value="" style="ellipse;strokeColor=#b85450;fillColor=#f8cecc;" vertex="1" parent="xMQF3Xm1KzFrfOHQRXqz-384">
          <mxGeometry x="44" width="10" height="10" as="geometry" />
        </mxCell>
        <mxCell id="xMQF3Xm1KzFrfOHQRXqz-357" value="" style="ellipse;strokeColor=#b85450;fillColor=#f8cecc;" vertex="1" parent="xMQF3Xm1KzFrfOHQRXqz-384">
          <mxGeometry x="37" y="11" width="10" height="10" as="geometry" />
        </mxCell>
        <mxCell id="xMQF3Xm1KzFrfOHQRXqz-358" value="" style="ellipse;strokeColor=#b85450;fillColor=#f8cecc;" vertex="1" parent="xMQF3Xm1KzFrfOHQRXqz-384">
          <mxGeometry x="54" y="10" width="10" height="10" as="geometry" />
        </mxCell>
        <mxCell id="xMQF3Xm1KzFrfOHQRXqz-359" value="" style="ellipse;strokeColor=#b85450;fillColor=#f8cecc;" vertex="1" parent="xMQF3Xm1KzFrfOHQRXqz-384">
          <mxGeometry x="18" y="11" width="10" height="10" as="geometry" />
        </mxCell>
        <mxCell id="xMQF3Xm1KzFrfOHQRXqz-360" value="" style="ellipse;strokeColor=#b85450;fillColor=#f8cecc;" vertex="1" parent="xMQF3Xm1KzFrfOHQRXqz-384">
          <mxGeometry x="68" y="21" width="10" height="10" as="geometry" />
        </mxCell>
        <mxCell id="xMQF3Xm1KzFrfOHQRXqz-361" style="rounded=0;orthogonalLoop=1;jettySize=auto;html=1;exitX=1;exitY=0.5;exitDx=0;exitDy=0;entryX=0;entryY=0.5;entryDx=0;entryDy=0;fillColor=#f8cecc;strokeColor=#b85450;endArrow=none;endFill=0;" edge="1" parent="xMQF3Xm1KzFrfOHQRXqz-384" source="xMQF3Xm1KzFrfOHQRXqz-362" target="xMQF3Xm1KzFrfOHQRXqz-360">
          <mxGeometry relative="1" as="geometry" />
        </mxCell>
        <mxCell id="xMQF3Xm1KzFrfOHQRXqz-362" value="" style="ellipse;strokeColor=#b85450;fillColor=#f8cecc;" vertex="1" parent="xMQF3Xm1KzFrfOHQRXqz-384">
          <mxGeometry x="6" y="22" width="10" height="10" as="geometry" />
        </mxCell>
        <mxCell id="xMQF3Xm1KzFrfOHQRXqz-363" value="" style="ellipse;strokeColor=#b85450;fillColor=#f8cecc;" vertex="1" parent="xMQF3Xm1KzFrfOHQRXqz-384">
          <mxGeometry x="68" y="65" width="10" height="10" as="geometry" />
        </mxCell>
        <mxCell id="xMQF3Xm1KzFrfOHQRXqz-364" value="" style="ellipse;strokeColor=#b85450;fillColor=#f8cecc;" vertex="1" parent="xMQF3Xm1KzFrfOHQRXqz-384">
          <mxGeometry y="67" width="10" height="10" as="geometry" />
        </mxCell>
        <mxCell id="xMQF3Xm1KzFrfOHQRXqz-365" value="" style="ellipse;strokeColor=#b85450;fillColor=#f8cecc;" vertex="1" parent="xMQF3Xm1KzFrfOHQRXqz-384">
          <mxGeometry x="67" y="101" width="10" height="10" as="geometry" />
        </mxCell>
        <mxCell id="xMQF3Xm1KzFrfOHQRXqz-366" value="" style="ellipse;strokeColor=#b85450;fillColor=#f8cecc;" vertex="1" parent="xMQF3Xm1KzFrfOHQRXqz-384">
          <mxGeometry x="1" y="107" width="10" height="10" as="geometry" />
        </mxCell>
        <mxCell id="xMQF3Xm1KzFrfOHQRXqz-367" value="" style="ellipse;strokeColor=#b85450;fillColor=#f8cecc;" vertex="1" parent="xMQF3Xm1KzFrfOHQRXqz-384">
          <mxGeometry x="54" y="84" width="10" height="10" as="geometry" />
        </mxCell>
        <mxCell id="xMQF3Xm1KzFrfOHQRXqz-368" style="rounded=0;orthogonalLoop=1;jettySize=auto;html=1;exitX=1;exitY=0.5;exitDx=0;exitDy=0;entryX=0;entryY=0.5;entryDx=0;entryDy=0;fillColor=#f8cecc;strokeColor=#b85450;endArrow=none;endFill=0;" edge="1" parent="xMQF3Xm1KzFrfOHQRXqz-384" source="xMQF3Xm1KzFrfOHQRXqz-369" target="xMQF3Xm1KzFrfOHQRXqz-367">
          <mxGeometry relative="1" as="geometry" />
        </mxCell>
        <mxCell id="xMQF3Xm1KzFrfOHQRXqz-369" value="" style="ellipse;strokeColor=#b85450;fillColor=#f8cecc;" vertex="1" parent="xMQF3Xm1KzFrfOHQRXqz-384">
          <mxGeometry x="14" y="84" width="10" height="10" as="geometry" />
        </mxCell>
        <mxCell id="xMQF3Xm1KzFrfOHQRXqz-370" value="" style="ellipse;strokeColor=#b85450;fillColor=#f8cecc;" vertex="1" parent="xMQF3Xm1KzFrfOHQRXqz-384">
          <mxGeometry x="54" y="161" width="10" height="10" as="geometry" />
        </mxCell>
        <mxCell id="xMQF3Xm1KzFrfOHQRXqz-371" value="" style="ellipse;strokeColor=#b85450;fillColor=#f8cecc;" vertex="1" parent="xMQF3Xm1KzFrfOHQRXqz-384">
          <mxGeometry x="22" y="163" width="10" height="10" as="geometry" />
        </mxCell>
        <mxCell id="xMQF3Xm1KzFrfOHQRXqz-372" value="" style="ellipse;strokeColor=#b85450;fillColor=#f8cecc;" vertex="1" parent="xMQF3Xm1KzFrfOHQRXqz-384">
          <mxGeometry x="54" y="220" width="10" height="10" as="geometry" />
        </mxCell>
        <mxCell id="xMQF3Xm1KzFrfOHQRXqz-373" value="" style="ellipse;strokeColor=#b85450;fillColor=#f8cecc;" vertex="1" parent="xMQF3Xm1KzFrfOHQRXqz-384">
          <mxGeometry x="24" y="220" width="10" height="10" as="geometry" />
        </mxCell>
        <mxCell id="xMQF3Xm1KzFrfOHQRXqz-374" value="" style="endArrow=none;html=1;rounded=0;fillColor=#f8cecc;strokeColor=#b85450;entryX=0.5;entryY=1;entryDx=0;entryDy=0;exitX=0.5;exitY=0;exitDx=0;exitDy=0;" edge="1" parent="xMQF3Xm1KzFrfOHQRXqz-384" source="xMQF3Xm1KzFrfOHQRXqz-370" target="xMQF3Xm1KzFrfOHQRXqz-367">
          <mxGeometry width="50" height="50" relative="1" as="geometry">
            <mxPoint x="58" y="155" as="sourcePoint" />
            <mxPoint x="108" y="105" as="targetPoint" />
          </mxGeometry>
        </mxCell>
        <mxCell id="xMQF3Xm1KzFrfOHQRXqz-375" value="" style="endArrow=none;html=1;rounded=0;fillColor=#f8cecc;strokeColor=#b85450;entryX=0.5;entryY=1;entryDx=0;entryDy=0;exitX=0.5;exitY=0;exitDx=0;exitDy=0;" edge="1" parent="xMQF3Xm1KzFrfOHQRXqz-384" source="xMQF3Xm1KzFrfOHQRXqz-371">
          <mxGeometry width="50" height="50" relative="1" as="geometry">
            <mxPoint x="18.930000000000007" y="161" as="sourcePoint" />
            <mxPoint x="18.930000000000007" y="94" as="targetPoint" />
          </mxGeometry>
        </mxCell>
        <mxCell id="xMQF3Xm1KzFrfOHQRXqz-376" value="" style="endArrow=none;html=1;rounded=0;fillColor=#f8cecc;strokeColor=#b85450;exitX=0.5;exitY=1;exitDx=0;exitDy=0;entryX=0.5;entryY=0;entryDx=0;entryDy=0;" edge="1" parent="xMQF3Xm1KzFrfOHQRXqz-384" source="xMQF3Xm1KzFrfOHQRXqz-370" target="xMQF3Xm1KzFrfOHQRXqz-372">
          <mxGeometry width="50" height="50" relative="1" as="geometry">
            <mxPoint x="79" y="181" as="sourcePoint" />
            <mxPoint x="79" y="114" as="targetPoint" />
          </mxGeometry>
        </mxCell>
        <mxCell id="xMQF3Xm1KzFrfOHQRXqz-377" value="" style="endArrow=none;html=1;rounded=0;fillColor=#f8cecc;strokeColor=#b85450;entryX=0.5;entryY=1;entryDx=0;entryDy=0;exitX=0.5;exitY=0;exitDx=0;exitDy=0;" edge="1" parent="xMQF3Xm1KzFrfOHQRXqz-384" source="xMQF3Xm1KzFrfOHQRXqz-373">
          <mxGeometry width="50" height="50" relative="1" as="geometry">
            <mxPoint x="26.939999999999998" y="240" as="sourcePoint" />
            <mxPoint x="26.939999999999998" y="173" as="targetPoint" />
          </mxGeometry>
        </mxCell>
        <mxCell id="xMQF3Xm1KzFrfOHQRXqz-378" value="" style="endArrow=none;html=1;rounded=0;fillColor=#f8cecc;strokeColor=#b85450;exitX=0.5;exitY=1;exitDx=0;exitDy=0;entryX=0.5;entryY=0;entryDx=0;entryDy=0;" edge="1" parent="xMQF3Xm1KzFrfOHQRXqz-384" source="xMQF3Xm1KzFrfOHQRXqz-363" target="xMQF3Xm1KzFrfOHQRXqz-365">
          <mxGeometry width="50" height="50" relative="1" as="geometry">
            <mxPoint x="78" y="76" as="sourcePoint" />
            <mxPoint x="128.69014084507046" y="135" as="targetPoint" />
          </mxGeometry>
        </mxCell>
        <mxCell id="xMQF3Xm1KzFrfOHQRXqz-379" value="" style="endArrow=none;html=1;rounded=0;fillColor=#f8cecc;strokeColor=#b85450;exitX=0.5;exitY=0;exitDx=0;exitDy=0;entryX=0.5;entryY=1;entryDx=0;entryDy=0;" edge="1" parent="xMQF3Xm1KzFrfOHQRXqz-384" source="xMQF3Xm1KzFrfOHQRXqz-363" target="xMQF3Xm1KzFrfOHQRXqz-360">
          <mxGeometry width="50" height="50" relative="1" as="geometry">
            <mxPoint x="57.03999999999999" y="63" as="sourcePoint" />
            <mxPoint x="67.99959595959587" y="32" as="targetPoint" />
          </mxGeometry>
        </mxCell>
        <mxCell id="xMQF3Xm1KzFrfOHQRXqz-380" value="" style="endArrow=none;html=1;rounded=0;fillColor=#f8cecc;strokeColor=#b85450;entryX=0.5;entryY=1;entryDx=0;entryDy=0;exitX=0.5;exitY=0;exitDx=0;exitDy=0;" edge="1" parent="xMQF3Xm1KzFrfOHQRXqz-384" source="xMQF3Xm1KzFrfOHQRXqz-369" target="xMQF3Xm1KzFrfOHQRXqz-362">
          <mxGeometry width="50" height="50" relative="1" as="geometry">
            <mxPoint x="17" y="91" as="sourcePoint" />
            <mxPoint x="17" y="24" as="targetPoint" />
          </mxGeometry>
        </mxCell>
        <mxCell id="xMQF3Xm1KzFrfOHQRXqz-381" value="" style="endArrow=none;html=1;rounded=0;fillColor=#f8cecc;strokeColor=#b85450;entryX=0.398;entryY=0.981;entryDx=0;entryDy=0;exitX=0.5;exitY=0;exitDx=0;exitDy=0;entryPerimeter=0;" edge="1" parent="xMQF3Xm1KzFrfOHQRXqz-384" source="xMQF3Xm1KzFrfOHQRXqz-367" target="xMQF3Xm1KzFrfOHQRXqz-360">
          <mxGeometry width="50" height="50" relative="1" as="geometry">
            <mxPoint x="29" y="94" as="sourcePoint" />
            <mxPoint x="21" y="42" as="targetPoint" />
          </mxGeometry>
        </mxCell>
        <mxCell id="xMQF3Xm1KzFrfOHQRXqz-382" value="" style="endArrow=none;html=1;rounded=0;fillColor=#f8cecc;strokeColor=#b85450;exitX=0.5;exitY=0;exitDx=0;exitDy=0;entryX=0.5;entryY=1;entryDx=0;entryDy=0;" edge="1" parent="xMQF3Xm1KzFrfOHQRXqz-384" source="xMQF3Xm1KzFrfOHQRXqz-364" target="xMQF3Xm1KzFrfOHQRXqz-362">
          <mxGeometry width="50" height="50" relative="1" as="geometry">
            <mxPoint x="3" y="75" as="sourcePoint" />
            <mxPoint x="3" y="41" as="targetPoint" />
          </mxGeometry>
        </mxCell>
        <mxCell id="xMQF3Xm1KzFrfOHQRXqz-383" value="" style="endArrow=none;html=1;rounded=0;fillColor=#f8cecc;strokeColor=#b85450;exitX=0.5;exitY=1;exitDx=0;exitDy=0;entryX=0.5;entryY=0;entryDx=0;entryDy=0;" edge="1" parent="xMQF3Xm1KzFrfOHQRXqz-384" source="xMQF3Xm1KzFrfOHQRXqz-364" target="xMQF3Xm1KzFrfOHQRXqz-366">
          <mxGeometry width="50" height="50" relative="1" as="geometry">
            <mxPoint x="4" y="85" as="sourcePoint" />
            <mxPoint x="3" y="111" as="targetPoint" />
          </mxGeometry>
        </mxCell>
        <mxCell id="xMQF3Xm1KzFrfOHQRXqz-385" value="Specific positions of keypoints" style="swimlane;whiteSpace=wrap;html=1;" vertex="1" parent="1">
          <mxGeometry x="1101" y="521" width="264" height="264" as="geometry" />
        </mxCell>
      </root>
    </mxGraphModel>
  </diagram>
</mxfile>
